<svg width="24" height="28" viewBox="0 0 24 28" fill="none" xmlns="http://www.w3.org/2000/svg">
<path d="M23.2268 11.5733L12.9468 1.06667C12.8229 0.941698 12.6754 0.842506 12.5129 0.774814C12.3504 0.707123 12.1762 0.672272 12.0002 0.672272C11.8241 0.672272 11.6499 0.707123 11.4874 0.774814C11.3249 0.842506 11.1774 0.941698 11.0535 1.06667L0.773487 11.5867C0.524736 11.8374 0.32828 12.1351 0.195524 12.4624C0.0627691 12.7897 -0.0036397 13.1401 0.000153819 13.4933V24.6667C-0.00087928 25.3492 0.259851 26.0062 0.728653 26.5023C1.19746 26.9984 1.83863 27.2958 2.52015 27.3333H21.4802C22.1617 27.2958 22.8029 26.9984 23.2717 26.5023C23.7405 26.0062 24.0012 25.3492 24.0002 24.6667V13.4933C24.0012 12.7772 23.7239 12.0888 23.2268 11.5733ZM9.33349 24.6667V16.6667H14.6668V24.6667H9.33349ZM21.3335 24.6667H17.3335V15.3333C17.3335 14.9797 17.193 14.6406 16.943 14.3905C16.6929 14.1405 16.3538 14 16.0002 14H8.00015C7.64653 14 7.30739 14.1405 7.05735 14.3905C6.8073 14.6406 6.66682 14.9797 6.66682 15.3333V24.6667H2.66682V13.44L12.0002 3.90667L21.3335 13.4933V24.6667Z" fill="#262626"/>
</svg>
