<svg width="24" height="24" viewBox="0 0 24 24" fill="none" xmlns="http://www.w3.org/2000/svg">
<path d="M12.9975 12.9972L19.0715 13.0043C19.3378 13.0043 19.5932 12.8985 19.7815 12.7102C19.9698 12.5219 20.0756 12.2665 20.0756 12.0002C20.0756 11.7339 19.9698 11.4785 19.7815 11.2902C19.5932 11.1019 19.3378 10.9961 19.0715 10.9961L12.9975 11.0032L13.0046 4.92914C13.0046 4.66284 12.8988 4.40744 12.7105 4.21914C12.5222 4.03084 12.2668 3.92505 12.0005 3.92505C11.7342 3.92505 11.4788 4.03084 11.2905 4.21914C11.1022 4.40744 10.9964 4.66284 10.9964 4.92914L11.0034 11.0032L4.92939 10.9961C4.79738 10.9956 4.66657 11.0212 4.5445 11.0714C4.42244 11.1217 4.31153 11.1957 4.21819 11.289C4.12484 11.3823 4.0509 11.4933 4.00063 11.6153C3.95036 11.7374 3.92476 11.8682 3.9253 12.0002C3.92476 12.1322 3.95036 12.263 4.00063 12.3851C4.0509 12.5072 4.12484 12.6181 4.21819 12.7114C4.31153 12.8048 4.42244 12.8787 4.5445 12.929C4.66657 12.9792 4.79738 13.0048 4.92939 13.0043L11.0034 12.9972L10.9964 19.0713C10.9958 19.2033 11.0214 19.3341 11.0717 19.4562C11.122 19.5782 11.1959 19.6891 11.2893 19.7825C11.3826 19.8758 11.4935 19.9498 11.6156 20C11.7376 20.0503 11.8684 20.0759 12.0005 20.0754C12.1325 20.0759 12.2633 20.0503 12.3853 20C12.5074 19.9498 12.6183 19.8758 12.7117 19.7825C12.805 19.6891 12.879 19.5782 12.9292 19.4562C12.9795 19.3341 13.0051 19.2033 13.0046 19.0713L12.9975 12.9972Z" fill="#FCFCFC"/>
</svg>
