<svg width="32" height="32" viewBox="0 0 32 32" fill="none" xmlns="http://www.w3.org/2000/svg">
<path d="M27.72 15.12L23.2667 6.21334C22.9341 5.54715 22.4222 4.98701 21.7885 4.59598C21.1548 4.20494 20.4246 3.99854 19.68 4.00001H12.32C11.5754 3.99854 10.8452 4.20494 10.2115 4.59598C9.57788 4.98701 9.06594 5.54715 8.73335 6.21334L4.28002 15.12C4.09428 15.4927 3.99839 15.9036 4.00002 16.32V24C4.00002 25.0609 4.42145 26.0783 5.17159 26.8284C5.92174 27.5786 6.93915 28 8.00002 28H24C25.0609 28 26.0783 27.5786 26.8284 26.8284C27.5786 26.0783 28 25.0609 28 24V16.32C28.0017 15.9036 27.9058 15.4927 27.72 15.12ZM11.12 7.40001C11.2318 7.17809 11.4034 6.99184 11.6155 6.86227C11.8275 6.73269 12.0715 6.66495 12.32 6.66667H19.68C19.9285 6.66495 20.1725 6.73269 20.3846 6.86227C20.5966 6.99184 20.7682 7.17809 20.88 7.40001L24.5067 14.6667H21.3334C20.9797 14.6667 20.6406 14.8072 20.3905 15.0572C20.1405 15.3072 20 15.6464 20 16V20H12V16C12 15.6464 11.8595 15.3072 11.6095 15.0572C11.3594 14.8072 11.0203 14.6667 10.6667 14.6667H7.49335L11.12 7.40001ZM24 25.3333H8.00002C7.6464 25.3333 7.30726 25.1929 7.05721 24.9428C6.80716 24.6928 6.66669 24.3536 6.66669 24V17.3333H9.33335V21.3333C9.33335 21.687 9.47383 22.0261 9.72388 22.2762C9.97393 22.5262 10.3131 22.6667 10.6667 22.6667H21.3334C21.687 22.6667 22.0261 22.5262 22.2762 22.2762C22.5262 22.0261 22.6667 21.687 22.6667 21.3333V17.3333H25.3334V24C25.3334 24.3536 25.1929 24.6928 24.9428 24.9428C24.6928 25.1929 24.3536 25.3333 24 25.3333Z" fill="#262626"/>
</svg>
