<svg width="9" height="14" viewBox="0 0 9 14" fill="none" xmlns="http://www.w3.org/2000/svg">
<path d="M6.81325 13.6667C6.63364 13.666 6.45603 13.629 6.29106 13.558C6.12609 13.487 5.97718 13.3833 5.85325 13.2533L0.706582 7.92C0.46228 7.67076 0.325439 7.33567 0.325439 6.98667C0.325439 6.63767 0.46228 6.30258 0.706582 6.05334L6.03992 0.720003C6.16423 0.595685 6.31182 0.497071 6.47425 0.42979C6.63668 0.36251 6.81077 0.327881 6.98658 0.327881C7.1624 0.327881 7.33649 0.36251 7.49892 0.42979C7.66135 0.497071 7.80893 0.595685 7.93325 0.720003C8.05757 0.844321 8.15618 0.991908 8.22346 1.15434C8.29074 1.31677 8.32537 1.49086 8.32537 1.66667C8.32537 1.84248 8.29074 2.01657 8.22346 2.179C8.15618 2.34143 8.05757 2.48902 7.93325 2.61334L3.53325 7L7.77325 11.4C8.02158 11.6498 8.16097 11.9878 8.16097 12.34C8.16097 12.6922 8.02158 13.0302 7.77325 13.28C7.64708 13.4052 7.49716 13.5039 7.3323 13.5703C7.16744 13.6367 6.99096 13.6695 6.81325 13.6667Z" fill="#B3B3B3"/>
</svg>
