<svg width="42" height="42" viewBox="0 0 42 42" fill="none" xmlns="http://www.w3.org/2000/svg">
<path d="M10.5 34.125C11.8924 34.125 13.2277 33.5719 14.2123 32.5873C15.1969 31.6027 15.75 30.2674 15.75 28.875C15.75 27.4826 15.1969 26.1473 14.2123 25.1627C13.2277 24.1781 11.8924 23.625 10.5 23.625C9.10761 23.625 7.77226 24.1781 6.78769 25.1627C5.80312 26.1473 5.25 27.4826 5.25 28.875C5.25 30.2674 5.80312 31.6027 6.78769 32.5873C7.77226 33.5719 9.10761 34.125 10.5 34.125ZM10.5 36.75C9.46584 36.75 8.44181 36.5463 7.48637 36.1506C6.53093 35.7548 5.6628 35.1747 4.93153 34.4435C4.20027 33.7122 3.6202 32.8441 3.22445 31.8886C2.82869 30.9332 2.625 29.9092 2.625 28.875C2.625 27.8408 2.82869 26.8168 3.22445 25.8614C3.6202 24.9059 4.20027 24.0378 4.93153 23.3065C5.6628 22.5753 6.53093 21.9952 7.48637 21.5994C8.44181 21.2037 9.46584 21 10.5 21C12.5886 21 14.5916 21.8297 16.0685 23.3065C17.5453 24.7834 18.375 26.7864 18.375 28.875C18.375 30.9636 17.5453 32.9666 16.0685 34.4435C14.5916 35.9203 12.5886 36.75 10.5 36.75Z" fill="#262626"/>
<path d="M11.8125 27.5625H24.9375C25.8125 27.5625 26.25 28 26.25 28.875C26.25 29.75 25.8125 30.1875 24.9375 30.1875H11.8125C10.9375 30.1875 10.5 29.75 10.5 28.875C10.5 28 10.9375 27.5625 11.8125 27.5625Z" fill="#262626"/>
<path d="M31.5 34.125C32.8924 34.125 34.2277 33.5719 35.2123 32.5873C36.1969 31.6027 36.75 30.2674 36.75 28.875C36.75 27.4826 36.1969 26.1473 35.2123 25.1627C34.2277 24.1781 32.8924 23.625 31.5 23.625C30.1076 23.625 28.7723 24.1781 27.7877 25.1627C26.8031 26.1473 26.25 27.4826 26.25 28.875C26.25 30.2674 26.8031 31.6027 27.7877 32.5873C28.7723 33.5719 30.1076 34.125 31.5 34.125ZM31.5 36.75C30.4658 36.75 29.4418 36.5463 28.4864 36.1506C27.5309 35.7548 26.6628 35.1747 25.9315 34.4435C25.2003 33.7122 24.6202 32.8441 24.2244 31.8886C23.8287 30.9332 23.625 29.9092 23.625 28.875C23.625 27.8408 23.8287 26.8168 24.2244 25.8614C24.6202 24.9059 25.2003 24.0378 25.9315 23.3065C26.6628 22.5753 27.5309 21.9952 28.4864 21.5994C29.4418 21.2037 30.4658 21 31.5 21C33.5886 21 35.5916 21.8297 37.0685 23.3065C38.5453 24.7834 39.375 26.7864 39.375 28.875C39.375 30.9636 38.5453 32.9666 37.0685 34.4435C35.5916 35.9203 33.5886 36.75 31.5 36.75Z" fill="#262626"/>
<path d="M19.6875 7.875C19.3394 7.875 19.0056 7.73672 18.7594 7.49058C18.5133 7.24444 18.375 6.9106 18.375 6.5625C18.375 6.2144 18.5133 5.88056 18.7594 5.63442C19.0056 5.38828 19.3394 5.25 19.6875 5.25H26.25C26.5428 5.25008 26.8271 5.34805 27.0578 5.52831C27.2885 5.70858 27.4523 5.96081 27.5231 6.24487L31.4606 21.9949C31.5359 22.3293 31.4773 22.68 31.2974 22.9718C31.1175 23.2636 30.8305 23.4735 30.4979 23.5565C30.1652 23.6395 29.8133 23.589 29.5174 23.4159C29.2215 23.2428 29.005 22.9608 28.9144 22.6301L25.2262 7.875H19.6875ZM3.9375 15.75C3.5894 15.75 3.25556 15.6117 3.00942 15.3656C2.76328 15.1194 2.625 14.7856 2.625 14.4375C2.625 14.0894 2.76328 13.7556 3.00942 13.5094C3.25556 13.2633 3.5894 13.125 3.9375 13.125H9.1875C9.46285 13.1252 9.73117 13.212 9.95447 13.3731C10.1778 13.5342 10.3447 13.7615 10.4317 14.0228L13.0567 21.8978C13.1189 22.063 13.1471 22.2391 13.1396 22.4155C13.1321 22.5919 13.0891 22.765 13.0131 22.9243C12.9372 23.0837 12.8298 23.2261 12.6976 23.3431C12.5653 23.46 12.4108 23.5491 12.2433 23.6049C12.0758 23.6607 11.8988 23.6822 11.7228 23.668C11.5468 23.6538 11.3755 23.6043 11.2191 23.5223C11.0627 23.4404 10.9245 23.3277 10.8126 23.1911C10.7008 23.0545 10.6177 22.8967 10.5683 22.7272L8.2425 15.75H3.9375Z" fill="#262626"/>
<path d="M15.3142 24.6015L13.5607 22.6485L26.6858 10.836L28.4392 12.789L15.3142 24.6015Z" fill="#262626"/>
</svg>
