<svg width="38" height="32" viewBox="0 0 38 32" fill="none" xmlns="http://www.w3.org/2000/svg">
<path d="M8.5 29.125C9.89239 29.125 11.2277 28.5719 12.2123 27.5873C13.1969 26.6027 13.75 25.2674 13.75 23.875C13.75 22.4826 13.1969 21.1473 12.2123 20.1627C11.2277 19.1781 9.89239 18.625 8.5 18.625C7.10761 18.625 5.77225 19.1781 4.78769 20.1627C3.80312 21.1473 3.25 22.4826 3.25 23.875C3.25 25.2674 3.80312 26.6027 4.78769 27.5873C5.77225 28.5719 7.10761 29.125 8.5 29.125ZM8.5 31.75C7.46584 31.75 6.44181 31.5463 5.48637 31.1506C4.53093 30.7548 3.6628 30.1747 2.93153 29.4435C2.20027 28.7122 1.6202 27.8441 1.22445 26.8886C0.828693 25.9332 0.625 24.9092 0.625 23.875C0.625 22.8408 0.828693 21.8168 1.22445 20.8614C1.6202 19.9059 2.20027 19.0378 2.93153 18.3065C3.6628 17.5753 4.53093 16.9952 5.48637 16.5994C6.44181 16.2037 7.46584 16 8.5 16C10.5886 16 12.5916 16.8297 14.0685 18.3065C15.5453 19.7834 16.375 21.7864 16.375 23.875C16.375 25.9636 15.5453 27.9666 14.0685 29.4435C12.5916 30.9203 10.5886 31.75 8.5 31.75Z" fill="#262626"/>
<path d="M9.8125 22.5625H22.9375C23.8125 22.5625 24.25 23 24.25 23.875C24.25 24.75 23.8125 25.1875 22.9375 25.1875H9.8125C8.9375 25.1875 8.5 24.75 8.5 23.875C8.5 23 8.9375 22.5625 9.8125 22.5625Z" fill="#262626"/>
<path d="M29.5 29.125C30.8924 29.125 32.2277 28.5719 33.2123 27.5873C34.1969 26.6027 34.75 25.2674 34.75 23.875C34.75 22.4826 34.1969 21.1473 33.2123 20.1627C32.2277 19.1781 30.8924 18.625 29.5 18.625C28.1076 18.625 26.7723 19.1781 25.7877 20.1627C24.8031 21.1473 24.25 22.4826 24.25 23.875C24.25 25.2674 24.8031 26.6027 25.7877 27.5873C26.7723 28.5719 28.1076 29.125 29.5 29.125ZM29.5 31.75C28.4658 31.75 27.4418 31.5463 26.4864 31.1506C25.5309 30.7548 24.6628 30.1747 23.9315 29.4435C23.2003 28.7122 22.6202 27.8441 22.2244 26.8886C21.8287 25.9332 21.625 24.9092 21.625 23.875C21.625 22.8408 21.8287 21.8168 22.2244 20.8614C22.6202 19.9059 23.2003 19.0378 23.9315 18.3065C24.6628 17.5753 25.5309 16.9952 26.4864 16.5994C27.4418 16.2037 28.4658 16 29.5 16C31.5886 16 33.5916 16.8297 35.0685 18.3065C36.5453 19.7834 37.375 21.7864 37.375 23.875C37.375 25.9636 36.5453 27.9666 35.0685 29.4435C33.5916 30.9203 31.5886 31.75 29.5 31.75Z" fill="#262626"/>
<path d="M17.6875 2.875C17.3394 2.875 17.0056 2.73672 16.7594 2.49058C16.5133 2.24444 16.375 1.9106 16.375 1.5625C16.375 1.2144 16.5133 0.880564 16.7594 0.634423C17.0056 0.388281 17.3394 0.25 17.6875 0.25H24.25C24.5428 0.250081 24.8271 0.348046 25.0578 0.528315C25.2885 0.708584 25.4523 0.960808 25.5231 1.24487L29.4606 16.9949C29.5359 17.3293 29.4773 17.68 29.2974 17.9718C29.1175 18.2636 28.8305 18.4735 28.4979 18.5565C28.1652 18.6395 27.8133 18.589 27.5174 18.4159C27.2215 18.2428 27.005 17.9608 26.9144 17.6301L23.2262 2.875H17.6875ZM1.9375 10.75C1.5894 10.75 1.25556 10.6117 1.00942 10.3656C0.763281 10.1194 0.625 9.7856 0.625 9.4375C0.625 9.0894 0.763281 8.75556 1.00942 8.50942C1.25556 8.26328 1.5894 8.125 1.9375 8.125H7.1875C7.46285 8.12521 7.73117 8.21201 7.95447 8.37313C8.17777 8.53424 8.34474 8.76151 8.43175 9.02275L11.0568 16.8978C11.1189 17.063 11.1471 17.2391 11.1396 17.4155C11.1321 17.5919 11.0891 17.765 11.0131 17.9243C10.9372 18.0837 10.8298 18.2261 10.6976 18.3431C10.5653 18.46 10.4108 18.5491 10.2433 18.6049C10.0758 18.6607 9.89877 18.6822 9.72279 18.668C9.54681 18.6538 9.3755 18.6043 9.21911 18.5223C9.06272 18.4404 8.92448 18.3277 8.81264 18.1911C8.70081 18.0545 8.61768 17.8967 8.56825 17.7272L6.2425 10.75H1.9375Z" fill="#262626"/>
<path d="M13.3142 19.6015L11.5607 17.6485L24.6858 5.836L26.4392 7.789L13.3142 19.6015Z" fill="#262626"/>
</svg>
