<svg width="48" height="48" viewBox="0 0 48 48" fill="none" xmlns="http://www.w3.org/2000/svg">
<path d="M40 4H14C8.486 4 4 8.486 4 14V34C4 39.514 8.486 44 14 44H38C41.308 44 44 41.308 44 38C44 34.692 41.308 32 38 32H12V36H38C38.5304 36 39.0391 36.2107 39.4142 36.5858C39.7893 36.9609 40 37.4696 40 38C40 38.5304 39.7893 39.0391 39.4142 39.4142C39.0391 39.7893 38.5304 40 38 40H14C10.692 40 8 37.308 8 34C8 30.692 10.692 28 14 28H40C42.206 28 44 26.206 44 24V8C44 5.794 42.206 4 40 4ZM40 24H14C11.8352 23.9972 9.72861 24.7008 8 26.004V14C8 10.692 10.692 8 14 8H40V24Z" fill="#262626"/>
</svg>
