<svg width="48" height="48" viewBox="0 0 48 48" fill="none" xmlns="http://www.w3.org/2000/svg">
<path d="M32.26 30.26L36 6H28V4H20V6H10C7.8 6 6 7.8 6 10V18C6 20.2 7.8 22 10 22H14.46L15.74 30.26C13.48 32.1 12 34.86 12 38V40C12 42.2 13.8 44 16 44H32C34.2 44 36 42.2 36 40V38C36 34.86 34.52 32.1 32.26 30.26ZM10 18V10H12.62L13.86 18H10ZM31.34 10L28.58 28H19.44L16.66 10H31.34ZM32 40H16V38C16 34.7 18.7 32 22 32H26C29.3 32 32 34.7 32 38V40Z" fill="#262626"/>
<path d="M24 38C25.1046 38 26 37.1046 26 36C26 34.8954 25.1046 34 24 34C22.8954 34 22 34.8954 22 36C22 37.1046 22.8954 38 24 38Z" fill="#262626"/>
</svg>
