<svg width="42" height="42" viewBox="0 0 42 42" fill="none" xmlns="http://www.w3.org/2000/svg">
<path d="M8.85714 6.125C6.17813 6.125 4 8.03086 4 10.375V31.625C4 33.9691 6.17813 35.875 8.85714 35.875H33.1429C35.8219 35.875 38 33.9691 38 31.625V10.375C38 8.03086 35.8219 6.125 33.1429 6.125H8.85714ZM13.7143 10.375V14.625H18.5714V10.375H23.4286V14.625H28.2857V10.375H33.1429V14.625H28.2857V18.875H33.1429V23.125H28.2857V27.375H33.1429V31.625H28.2857V27.375H23.4286V31.625H18.5714V27.375H13.7143V31.625H8.85714V27.375H13.7143V23.125H8.85714V18.875H13.7143V14.625H8.85714V10.375H13.7143ZM18.5714 18.875H23.4286V14.625H18.5714V18.875ZM18.5714 23.125V18.875H13.7143V23.125H18.5714ZM23.4286 23.125H18.5714V27.375H23.4286V23.125ZM23.4286 23.125H28.2857V18.875H23.4286V23.125Z" fill="#262626"/>
</svg>
