<svg width="42" height="42" viewBox="0 0 42 42" fill="none" xmlns="http://www.w3.org/2000/svg">
<path d="M31.5 7H29.75V5.25C29.75 4.78587 29.5656 4.34075 29.2374 4.01256C28.9093 3.68437 28.4641 3.5 28 3.5C27.5359 3.5 27.0908 3.68437 26.7626 4.01256C26.4344 4.34075 26.25 4.78587 26.25 5.25V7H15.75V5.25C15.75 4.78587 15.5656 4.34075 15.2374 4.01256C14.9092 3.68437 14.4641 3.5 14 3.5C13.5359 3.5 13.0908 3.68437 12.7626 4.01256C12.4344 4.34075 12.25 4.78587 12.25 5.25V7H10.5C9.10761 7 7.77226 7.55312 6.78769 8.53769C5.80312 9.52226 5.25 10.8576 5.25 12.25V33.25C5.25 34.6424 5.80312 35.9777 6.78769 36.9623C7.77226 37.9469 9.10761 38.5 10.5 38.5H31.5C32.8924 38.5 34.2277 37.9469 35.2123 36.9623C36.1969 35.9777 36.75 34.6424 36.75 33.25V12.25C36.75 10.8576 36.1969 9.52226 35.2123 8.53769C34.2277 7.55312 32.8924 7 31.5 7ZM10.5 10.5H12.25V12.25C12.25 12.7141 12.4344 13.1592 12.7626 13.4874C13.0908 13.8156 13.5359 14 14 14C14.4641 14 14.9092 13.8156 15.2374 13.4874C15.5656 13.1592 15.75 12.7141 15.75 12.25V10.5H26.25V12.25C26.25 12.7141 26.4344 13.1592 26.7626 13.4874C27.0908 13.8156 27.5359 14 28 14C28.4641 14 28.9093 13.8156 29.2374 13.4874C29.5656 13.1592 29.75 12.7141 29.75 12.25V10.5H31.5C31.9641 10.5 32.4092 10.6844 32.7374 11.0126C33.0656 11.3408 33.25 11.7859 33.25 12.25V16.625H8.75V12.25C8.75 11.7859 8.93437 11.3408 9.26256 11.0126C9.59075 10.6844 10.0359 10.5 10.5 10.5ZM31.5 35H10.5C10.0359 35 9.59075 34.8156 9.26256 34.4874C8.93437 34.1592 8.75 33.7141 8.75 33.25V20.125H33.25V33.25C33.25 33.7141 33.0656 34.1592 32.7374 34.4874C32.4092 34.8156 31.9641 35 31.5 35Z" fill="#262626"/>
<path d="M14 28.4375C14.9665 28.4375 15.75 27.654 15.75 26.6875C15.75 25.721 14.9665 24.9375 14 24.9375C13.0335 24.9375 12.25 25.721 12.25 26.6875C12.25 27.654 13.0335 28.4375 14 28.4375Z" fill="#262626"/>
<path d="M28 24.9375H21C20.5359 24.9375 20.0908 25.1219 19.7626 25.4501C19.4344 25.7783 19.25 26.2234 19.25 26.6875C19.25 27.1516 19.4344 27.5967 19.7626 27.9249C20.0908 28.2531 20.5359 28.4375 21 28.4375H28C28.4641 28.4375 28.9092 28.2531 29.2374 27.9249C29.5656 27.5967 29.75 27.1516 29.75 26.6875C29.75 26.2234 29.5656 25.7783 29.2374 25.4501C28.9092 25.1219 28.4641 24.9375 28 24.9375Z" fill="#262626"/>
</svg>
