<svg width="48" height="48" viewBox="0 0 48 48" fill="none" xmlns="http://www.w3.org/2000/svg">
<path fill-rule="evenodd" clip-rule="evenodd" d="M27 16C28.1046 16 29 15.1046 29 14C29 12.8954 28.1046 12 27 12C25.8954 12 25 12.8954 25 14C25 15.1046 25.8954 16 27 16ZM39.9702 33C39.9702 29.5601 38.6037 26.2611 36.1713 23.8287C33.7389 21.3963 30.4399 20.0298 27 20.0298C23.5601 20.0298 20.2611 21.3963 17.8287 23.8287C15.3963 26.2611 14.0298 29.5601 14.0298 33L39.9702 33ZM43 33H42.5C43.3284 33 44 33.6716 44 34.5C44 35.3284 43.3284 36 42.5 36H5.5C4.67157 36 4 35.3284 4 34.5C4 33.6716 4.67157 33 5.5 33L11 33C11 31.986 11.0963 30.9819 11.2837 30C11.8807 26.8726 13.4027 23.9699 15.6863 21.6863C18.6869 18.6857 22.7565 17 27 17C31.2435 17 35.3131 18.6857 38.3137 21.6863C40.5973 23.9699 42.1193 26.8727 42.7163 30C42.9037 30.9819 43 31.986 43 33Z" fill="#262626"/>
</svg>
