<svg width="42" height="42" viewBox="0 0 42 42" fill="none" xmlns="http://www.w3.org/2000/svg">
<path fill-rule="evenodd" clip-rule="evenodd" d="M7.875 14C7.39175 14 7 14.3918 7 14.875V34.125C7 34.6082 7.39175 35 7.875 35H34.125C34.6082 35 35 34.6082 35 34.125V14.875C35 14.3918 34.6082 14 34.125 14H7.875ZM3.5 14.875C3.5 12.4588 5.45875 10.5 7.875 10.5H34.125C36.5412 10.5 38.5 12.4588 38.5 14.875V34.125C38.5 36.5412 36.5412 38.5 34.125 38.5H7.875C5.45875 38.5 3.5 36.5412 3.5 34.125V14.875Z" fill="#262626"/>
<path fill-rule="evenodd" clip-rule="evenodd" d="M3.5 28C3.5 27.0335 4.2835 26.25 5.25 26.25H36.75C37.7165 26.25 38.5 27.0335 38.5 28V34.125C38.5 35.2853 38.0391 36.3981 37.2186 37.2186C36.3981 38.0391 35.2853 38.5 34.125 38.5H7.875C6.71468 38.5 5.60188 38.0391 4.78141 37.2186C3.96094 36.3981 3.5 35.2853 3.5 34.125V28ZM7 29.75V34.125C7 34.3571 7.09219 34.5796 7.25628 34.7437C7.42038 34.9078 7.64294 35 7.875 35H34.125C34.3571 35 34.5796 34.9078 34.7437 34.7437C34.9078 34.5796 35 34.3571 35 34.125V29.75H7Z" fill="#262626"/>
<path fill-rule="evenodd" clip-rule="evenodd" d="M16.625 5.25C15.1753 5.25 14 6.42525 14 7.875C14 9.32475 15.1753 10.5 16.625 10.5C18.0747 10.5 19.25 9.32475 19.25 7.875C19.25 6.42525 18.0747 5.25 16.625 5.25ZM10.5 7.875C10.5 4.49226 13.2423 1.75 16.625 1.75C20.0077 1.75 22.75 4.49226 22.75 7.875C22.75 11.2577 20.0077 14 16.625 14C13.2423 14 10.5 11.2577 10.5 7.875Z" fill="#262626"/>
<path fill-rule="evenodd" clip-rule="evenodd" d="M24.5 7C23.5335 7 22.75 7.7835 22.75 8.75C22.75 9.7165 23.5335 10.5 24.5 10.5C25.4665 10.5 26.25 9.7165 26.25 8.75C26.25 7.7835 25.4665 7 24.5 7ZM19.25 8.75C19.25 5.8505 21.6005 3.5 24.5 3.5C27.3995 3.5 29.75 5.8505 29.75 8.75C29.75 11.6495 27.3995 14 24.5 14C21.6005 14 19.25 11.6495 19.25 8.75Z" fill="#262626"/>
<path fill-rule="evenodd" clip-rule="evenodd" d="M19.8611 10.9213C20.5165 10.3596 21.4835 10.3596 22.1389 10.9213L28.2639 16.1713C28.9977 16.8003 29.0827 17.9051 28.4537 18.6389C27.8247 19.3727 26.7199 19.4577 25.9861 18.8287L21 14.5549L16.0139 18.8287C15.2801 19.4577 14.1753 19.3727 13.5463 18.6389C12.9173 17.9051 13.0023 16.8003 13.7361 16.1713L19.8611 10.9213Z" fill="#262626"/>
</svg>
