<svg width="22" height="22" viewBox="0 0 22 22" fill="none" xmlns="http://www.w3.org/2000/svg">
<path fill-rule="evenodd" clip-rule="evenodd" d="M10.6329 1.44256C10.8693 1.35248 11.1307 1.35248 11.3671 1.44256L18.5859 4.19256C18.9857 4.34489 19.25 4.72834 19.25 5.15625V12.0312C19.25 15.7599 16.0009 19.134 11.3033 20.5794C11.1057 20.6402 10.8943 20.6402 10.6967 20.5794C6.03012 19.1435 2.75 16.1267 2.75 12.0312V5.15625C2.75 4.72834 3.01426 4.34489 3.41413 4.19256L10.6329 1.44256ZM4.8125 5.86694V12.0312C4.8125 14.744 6.92703 17.1745 10.9991 18.5114C15.0435 17.1684 17.1875 14.431 17.1875 12.0312V5.86694L11 3.5098L4.8125 5.86694ZM14.7649 7.12327C15.1973 7.49392 15.2474 8.14495 14.8767 8.57738L10.7517 13.3899C10.5648 13.608 10.2954 13.7382 10.0083 13.7492C9.72129 13.7603 9.44266 13.6511 9.23955 13.448L7.17705 11.3855C6.77432 10.9827 6.77432 10.3298 7.17705 9.92705C7.57977 9.52432 8.23273 9.52432 8.63545 9.92705L9.9105 11.2021L13.3108 7.23512C13.6814 6.80269 14.3324 6.75261 14.7649 7.12327Z" fill="#222222"/>
</svg>
