<svg width="42" height="42" viewBox="0 0 42 42" fill="none" xmlns="http://www.w3.org/2000/svg">
<path fill-rule="evenodd" clip-rule="evenodd" d="M15.5835 2.67488C15.716 2.64175 15.8521 2.625 15.9886 2.625H26.0114C26.1479 2.625 26.284 2.64175 26.4165 2.67488L26.0114 4.29545C26.4165 2.67488 26.4163 2.67481 26.4165 2.67488L26.4237 2.67667L26.4381 2.68033L26.4879 2.69316C26.5303 2.70416 26.5907 2.72004 26.6672 2.74071C26.8201 2.78202 27.038 2.84258 27.306 2.92159C27.8407 3.07927 28.5808 3.31222 29.4053 3.61453C31.0036 4.20056 33.1123 5.11515 34.5978 6.35308C37.337 8.63572 39.375 11.9877 39.375 15.1534V31.858C39.375 32.7805 38.6271 33.5284 37.7045 33.5284H33.5284V37.7045C33.5284 38.6271 32.7805 39.375 31.858 39.375H10.142C9.21948 39.375 8.47159 38.6271 8.47159 37.7045V33.5284H4.29545C3.37289 33.5284 2.625 32.7805 2.625 31.858V15.1534C2.625 11.9877 4.66303 8.63572 7.40219 6.35308C8.88771 5.11515 10.9964 4.20056 12.5947 3.61453C13.4192 3.31222 14.1593 3.07927 14.694 2.92159C14.962 2.84258 15.1799 2.78202 15.3328 2.74071C15.4093 2.72004 15.4697 2.70416 15.5121 2.69316L15.5619 2.68033L15.5763 2.67667L15.5835 2.67488C15.5837 2.67481 15.5835 2.67488 15.9886 4.29545L15.5835 2.67488ZM16.204 5.96602C16.2039 5.96606 16.2042 5.96599 16.204 5.96602C16.0731 6.00138 15.8799 6.05502 15.6389 6.12609C15.1557 6.26857 14.4864 6.47933 13.7448 6.75123C12.211 7.31365 10.5611 8.06951 9.54099 8.91964C7.26879 10.8131 5.96591 13.3078 5.96591 15.1534V30.1875H8.47159V15.1534C8.47159 14.2308 9.21948 13.483 10.142 13.483C11.0646 13.483 11.8125 14.2308 11.8125 15.1534V36.0341H30.1875V15.1534C30.1875 14.2308 30.9354 13.483 31.858 13.483C32.7805 13.483 33.5284 14.2308 33.5284 15.1534V30.1875H36.0341V15.1534C36.0341 13.3078 34.7312 10.8131 32.459 8.91964C31.4388 8.06951 29.789 7.31365 28.2552 6.75123C27.5136 6.47933 26.8443 6.26857 26.3611 6.12609C26.1201 6.05502 25.9269 6.00138 25.796 5.96602C25.7958 5.96599 25.7961 5.96606 25.796 5.96602H16.204Z" fill="#262626"/>
<path fill-rule="evenodd" clip-rule="evenodd" d="M15.9886 2.625C16.9112 2.625 17.6591 3.37289 17.6591 4.29545C17.6591 5.18152 18.0111 6.03129 18.6376 6.65783C19.2642 7.28438 20.1139 7.63636 21 7.63636C21.8861 7.63636 22.7358 7.28438 23.3624 6.65783C23.9889 6.03129 24.3409 5.18152 24.3409 4.29545C24.3409 3.37289 25.0888 2.625 26.0114 2.625C26.9339 2.625 27.6818 3.37289 27.6818 4.29545C27.6818 6.06758 26.9778 7.76713 25.7248 9.02021C24.4717 10.2733 22.7721 10.9773 21 10.9773C19.2279 10.9773 17.5283 10.2733 16.2752 9.02021C15.0222 7.76713 14.3182 6.06758 14.3182 4.29545C14.3182 3.37289 15.0661 2.625 15.9886 2.625Z" fill="#262626"/>
</svg>
