<svg width="42" height="38" viewBox="0 0 42 38" fill="none" xmlns="http://www.w3.org/2000/svg">
<path fill-rule="evenodd" clip-rule="evenodd" d="M13.7979 4.75179C12.6933 4.63228 11.5764 4.74603 10.5173 5.08589C9.45826 5.42575 8.48005 5.98435 7.64428 6.72651C6.80852 7.46868 6.1333 8.37833 5.66116 9.39819C5.18901 10.418 4.93016 11.526 4.90091 12.6523C4.87166 13.7786 5.07265 14.8989 5.4912 15.9426C5.90976 16.9862 6.53683 17.9307 7.33291 18.7164L7.34556 18.729L21.0168 32.4629L23.2183 30.2513L20.6002 27.5957C19.8146 26.7989 19.8146 25.507 20.6002 24.7102C21.3857 23.9134 22.6594 23.9134 23.4449 24.7102L26.0768 27.3797L28.2714 25.175L25.6291 22.4948C24.8435 21.698 24.8435 20.4061 25.6291 19.6093C26.4146 18.8124 27.6883 18.8124 28.4738 19.6093L31.1299 22.3034L33.3246 20.0987L30.1551 16.8838C29.3319 16.0488 28.2155 15.5798 27.0514 15.5798C25.8874 15.5798 24.771 16.0488 23.9478 16.8838L21.9363 18.9241C19.7627 21.1288 16.2361 21.1288 14.0626 18.9241L12.9703 17.8162C12.2161 17.0509 11.7922 16.013 11.7922 14.9309C11.7922 13.8488 12.2159 12.8111 12.9701 12.0458L18.2283 6.71223C17.8296 6.36007 17.3966 6.0477 16.9351 5.78031C15.9706 5.2215 14.9024 4.87131 13.7979 4.75179ZM22.3021 8.35121L15.8153 14.9309L16.9074 16.0386C17.5098 16.6496 18.4891 16.6496 19.0915 16.0386L21.103 13.9982C22.6807 12.398 24.8204 11.499 27.0514 11.499C29.2825 11.499 31.4222 12.398 32.9998 13.9982L35.9977 17.0391C36.1968 16.6945 36.3712 16.3347 36.519 15.9625C36.9328 14.9206 37.1301 13.8034 37.0986 12.6807C37.0671 11.5579 36.8075 10.4539 36.336 9.43758C35.8645 8.42129 35.1913 7.51466 34.3585 6.77443C33.5256 6.0342 32.5511 5.4763 31.496 5.13565C30.4408 4.795 29.3277 4.67893 28.2262 4.79471C27.1248 4.91049 26.0588 5.25562 25.0949 5.8085C24.131 6.36139 23.29 7.11013 22.6245 8.00786C22.5296 8.13597 22.4211 8.25089 22.3021 8.35121ZM37.3802 21.7679C37.4258 21.7298 37.4701 21.6894 37.513 21.6466C38.698 20.466 39.63 19.0501 40.2507 17.4873C40.8714 15.9246 41.1674 14.2487 41.1201 12.5646C41.0729 10.8805 40.6835 9.22442 39.9762 7.7C39.269 6.17558 38.2591 4.81563 37.0099 3.70528C35.7606 2.59493 34.2989 1.75809 32.7161 1.24711C31.1334 0.736135 29.4637 0.562032 27.8115 0.735699C26.1594 0.909366 24.5604 1.42706 23.1145 2.25639C22.3648 2.68645 21.6646 3.1955 21.025 3.77374C20.3848 3.18841 19.6829 2.67277 18.9305 2.23685C17.4837 1.39862 15.8814 0.873337 14.2246 0.694067C12.5678 0.514798 10.8924 0.685428 9.30379 1.19521C7.7152 1.705 6.24788 2.5429 4.99424 3.65615C3.74059 4.76939 2.72777 6.13387 2.01955 7.66366C1.31133 9.19345 0.92306 10.8554 0.879185 12.5449C0.835311 14.2344 1.13678 15.9147 1.76462 17.4802C2.39129 19.0428 3.32956 20.4571 4.52053 21.6345L19.6012 36.7843C20.3852 37.5719 21.6483 37.5719 22.4323 36.7843L37.3802 21.7679Z" fill="#262626"/>
</svg>
