<svg width="42" height="42" viewBox="0 0 42 42" fill="none" xmlns="http://www.w3.org/2000/svg">
<path fill-rule="evenodd" clip-rule="evenodd" d="M34.3801 7.5109C34.0223 7.18148 33.5514 7.00263 33.0651 7.01155C32.5789 7.02047 32.1148 7.21646 31.7694 7.55878L31.7643 7.56384L25.7268 13.4981C25.0417 14.1714 23.9419 14.1667 23.2627 13.4875L21.8839 12.1087L20.8661 13.1412L28.8592 21.1343L29.8915 20.1163L28.5127 18.7375C27.8334 18.0582 27.8287 16.9584 28.502 16.2733L34.4162 10.2562L34.5684 10.0908C34.867 9.72226 35.0163 9.25446 34.9859 8.78028C34.9548 8.29496 34.7378 7.84032 34.3801 7.5109ZM29.8315 25.091C29.9309 25.026 30.0252 24.9498 30.1125 24.8625C30.1938 24.7811 30.2655 24.6938 30.3274 24.6019L33.6038 21.3711C33.9358 21.0437 34.1234 20.5974 34.1251 20.1311C34.1267 19.6649 33.9422 19.2173 33.6125 18.8876L32.2143 17.4894L36.9324 12.6892C36.9458 12.6756 36.9589 12.6618 36.9718 12.6478L37.1748 12.4273C37.1928 12.4077 37.2104 12.3878 37.2275 12.3674C38.1194 11.3053 38.5675 9.94032 38.4788 8.55628C38.39 7.17224 37.7712 5.87568 36.7509 4.93622C35.7307 3.99676 34.3876 3.48671 33.001 3.51214C31.6156 3.53754 30.2933 4.09546 29.3085 5.06998C29.3076 5.07091 29.3067 5.07183 29.3058 5.07275L24.5107 9.78577L23.1125 8.38758C22.7828 8.05786 22.3351 7.87336 21.8688 7.87503C21.4026 7.87669 20.9562 8.06437 20.6289 8.39644L17.4007 11.671C17.3079 11.7333 17.2197 11.8055 17.1377 11.8876C17.0495 11.9758 16.9726 12.071 16.9072 12.1716L6.13536 23.0982C6.12687 23.1068 6.11847 23.1155 6.11016 23.1243L5.83541 23.4148C5.82277 23.4281 5.81034 23.4417 5.79813 23.4555C4.24161 25.2088 3.42821 27.4989 3.53001 29.8412C3.63181 32.1836 4.64082 34.3944 6.34359 36.0061C8.04636 37.6178 10.3093 38.5039 12.6537 38.4769C14.9974 38.4499 17.2386 37.5125 18.9037 35.863C18.9042 35.8625 18.9047 35.862 18.9053 35.8614L20.6626 34.1286C21.3508 33.45 21.3585 32.342 20.6799 31.6538C20.0013 30.9656 18.8933 30.9578 18.2051 31.6364L16.4446 33.3724L16.4414 33.3756C15.4218 34.3862 14.049 34.9606 12.6134 34.9771C11.1779 34.9936 9.7922 34.4511 8.74954 33.4642C7.70689 32.4773 7.08904 31.1235 7.02671 29.6892C6.96474 28.2635 7.45652 26.8694 8.39854 25.7983L8.64053 25.5424L18.4089 15.6337L26.367 23.5918L24.7273 25.2087C24.0392 25.8873 24.0314 26.9953 24.71 27.6835C25.3886 28.3717 26.4966 28.3794 27.1848 27.7008L29.8315 25.091Z" fill="#262626"/>
<path fill-rule="evenodd" clip-rule="evenodd" d="M24.5001 28C22.5671 28 21.0001 29.567 21.0001 31.5C21.0001 33.433 22.5671 35 24.5001 35C26.4331 35 28.0001 33.433 28.0001 31.5C28.0001 29.567 26.4331 28 24.5001 28ZM17.5001 31.5C17.5001 27.634 20.6341 24.5 24.5001 24.5C28.3661 24.5 31.5001 27.634 31.5001 31.5C31.5001 35.366 28.3661 38.5 24.5001 38.5C20.6341 38.5 17.5001 35.366 17.5001 31.5Z" fill="#262626"/>
</svg>
