<svg width="28" height="22" viewBox="0 0 28 22" fill="none" xmlns="http://www.w3.org/2000/svg">
<path d="M19.8941 21.1005L26.6997 14.7092C26.9696 14.4496 27.122 14.102 27.125 13.7391V2.78261C27.1218 2.17815 26.8647 1.5993 26.4096 1.17188C25.9545 0.744452 25.3381 0.503 24.6944 0.5L3.30556 0.499999C2.66192 0.502999 2.04555 0.744451 1.59042 1.17187C1.1353 1.5993 0.878195 2.17815 0.875001 2.78261L0.875 19.2174C0.878194 19.8219 1.1353 20.4007 1.59042 20.8281C2.04555 21.2555 2.66192 21.497 3.30556 21.5L18.8611 21.5C19.2475 21.4972 19.6177 21.3541 19.8941 21.1005ZM3.79167 18.7609L3.79167 3.23913L24.2083 3.23913V13.1685L18.2535 18.7609H3.79167ZM14.4861 5.06522L6.70833 5.06522C6.32156 5.06522 5.95063 5.20951 5.67714 5.46635C5.40365 5.7232 5.25 6.07155 5.25 6.43478L5.25 15.5652C5.25 15.9284 5.40365 16.2768 5.67714 16.5336C5.95063 16.7905 6.32156 16.9348 6.70833 16.9348L14.4861 16.9348C14.8729 16.9348 15.2438 16.7905 15.5173 16.5336C15.7908 16.2768 15.9444 15.9284 15.9444 15.5652V6.43478C15.9444 6.07155 15.7908 5.7232 15.5173 5.46635C15.2438 5.20951 14.8729 5.06522 14.4861 5.06522ZM13.0278 7.80435V14.1957H8.16667V12.3696H9.625C10.0118 12.3696 10.3827 12.2253 10.6562 11.9684C10.9297 11.7116 11.0833 11.3632 11.0833 11C11.0833 10.6368 10.9297 10.2884 10.6562 10.0316C10.3827 9.77473 10.0118 9.63043 9.625 9.63043H8.16667V7.80435L13.0278 7.80435Z" fill="#262626"/>
</svg>
