<svg width="42" height="42" viewBox="0 0 42 42" fill="none" xmlns="http://www.w3.org/2000/svg">
<path d="M26.8941 31.1005L33.6997 24.7092C33.9696 24.4497 34.122 24.102 34.125 23.7391V12.7826C34.1218 12.1781 33.8647 11.5993 33.4096 11.1719C32.9545 10.7445 32.3381 10.503 31.6944 10.5L10.3056 10.5C9.66192 10.503 9.04555 10.7445 8.59042 11.1719C8.1353 11.5993 7.8782 12.1781 7.875 12.7826L7.875 29.2174C7.87819 29.8219 8.1353 30.4007 8.59042 30.8281C9.04555 31.2556 9.66192 31.497 10.3056 31.5L25.8611 31.5C26.2475 31.4972 26.6177 31.3541 26.8941 31.1005ZM10.7917 28.7609L10.7917 13.2391L31.2083 13.2391V23.1685L25.2535 28.7609H10.7917ZM21.4861 15.0652L13.7083 15.0652C13.3216 15.0652 12.9506 15.2095 12.6771 15.4664C12.4036 15.7232 12.25 16.0716 12.25 16.4348L12.25 25.5652C12.25 25.9285 12.4036 26.2768 12.6771 26.5336C12.9506 26.7905 13.3216 26.9348 13.7083 26.9348L21.4861 26.9348C21.8729 26.9348 22.2438 26.7905 22.5173 26.5336C22.7908 26.2768 22.9444 25.9285 22.9444 25.5652V16.4348C22.9444 16.0716 22.7908 15.7232 22.5173 15.4664C22.2438 15.2095 21.8729 15.0652 21.4861 15.0652ZM20.0278 17.8043V24.1957H15.1667V22.3696H16.625C17.0118 22.3696 17.3827 22.2253 17.6562 21.9684C17.9297 21.7116 18.0833 21.3632 18.0833 21C18.0833 20.6368 17.9297 20.2884 17.6562 20.0316C17.3827 19.7747 17.0118 19.6304 16.625 19.6304H15.1667V17.8043L20.0278 17.8043Z" fill="#262626"/>
</svg>
