<svg width="22" height="22" viewBox="0 0 22 22" xmlns="http://www.w3.org/2000/svg">
<path d="M2.75 11H11V12.375H2.75V11ZM1.375 7.5625H8.25V8.9375H1.375V7.5625Z" fill="#262626"/>
<path d="M20.5694 11.4166L18.5069 6.60413C18.4539 6.48043 18.3658 6.375 18.2535 6.30094C18.1412 6.22687 18.0096 6.18743 17.875 6.1875H15.8125V4.8125C15.8125 4.63016 15.7401 4.4553 15.6112 4.32636C15.4823 4.19743 15.3074 4.125 15.125 4.125H4.12505V5.5H14.4375V14.1323C14.1243 14.3142 13.8501 14.5563 13.6309 14.8447C13.4116 15.1331 13.2517 15.462 13.1602 15.8125H8.83992C8.67259 15.1644 8.27464 14.5996 7.72067 14.224C7.16669 13.8483 6.49473 13.6876 5.83073 13.7719C5.16674 13.8563 4.55629 14.1799 4.11383 14.6821C3.67136 15.1843 3.42725 15.8307 3.42725 16.5C3.42725 17.1693 3.67136 17.8157 4.11383 18.3179C4.55629 18.8201 5.16674 19.1437 5.83073 19.2281C6.49473 19.3124 7.16669 19.1517 7.72067 18.776C8.27464 18.4004 8.67259 17.8356 8.83992 17.1875H13.1602C13.3097 17.7775 13.6518 18.3009 14.1321 18.6747C14.6125 19.0485 15.2039 19.2515 15.8125 19.2515C16.4212 19.2515 17.0126 19.0485 17.493 18.6747C17.9733 18.3009 18.3154 17.7775 18.4649 17.1875H19.9375C20.1199 17.1875 20.2948 17.1151 20.4237 16.9861C20.5526 16.8572 20.625 16.6823 20.625 16.5V11.6875C20.6251 11.5944 20.6061 11.5022 20.5694 11.4166ZM6.18755 17.875C5.9156 17.875 5.64976 17.7944 5.42364 17.6433C5.19752 17.4922 5.02128 17.2774 4.91721 17.0262C4.81314 16.7749 4.78591 16.4985 4.83897 16.2318C4.89202 15.965 5.02298 15.72 5.21528 15.5277C5.40757 15.3354 5.65257 15.2045 5.9193 15.1514C6.18602 15.0984 6.46249 15.1256 6.71374 15.2297C6.96498 15.3337 7.17973 15.51 7.33082 15.7361C7.4819 15.9622 7.56255 16.2281 7.56255 16.5C7.56218 16.8646 7.4172 17.2141 7.15942 17.4719C6.90163 17.7297 6.55211 17.8746 6.18755 17.875ZM15.8125 7.5625H17.4213L18.8953 11H15.8125V7.5625ZM15.8125 17.875C15.5406 17.875 15.2748 17.7944 15.0486 17.6433C14.8225 17.4922 14.6463 17.2774 14.5422 17.0262C14.4381 16.7749 14.4109 16.4985 14.464 16.2318C14.517 15.965 14.648 15.72 14.8403 15.5277C15.0326 15.3354 15.2776 15.2045 15.5443 15.1514C15.811 15.0984 16.0875 15.1256 16.3387 15.2297C16.59 15.3337 16.8047 15.51 16.9558 15.7361C17.1069 15.9622 17.1875 16.2281 17.1875 16.5C17.1872 16.8646 17.0422 17.2141 16.7844 17.4719C16.5266 17.7297 16.1771 17.8746 15.8125 17.875ZM19.25 15.8125H18.4649C18.3135 15.2236 17.9709 14.7016 17.4909 14.3284C17.0109 13.9551 16.4206 13.7517 15.8125 13.75V12.375H19.25V15.8125Z"/>
</svg>
