<svg width="42" height="42" viewBox="0 0 42 42" fill="none" xmlns="http://www.w3.org/2000/svg">
<path fill-rule="evenodd" clip-rule="evenodd" d="M23.4402 31.1687C23.4402 31.1687 23.4401 31.1687 23.0368 29.1667L23.4402 31.1687C23.0893 31.2383 22.726 31.2159 22.3866 31.1036L16.9032 29.2887C15.8259 28.9322 15.2436 27.7759 15.6027 26.7062C15.9619 25.6365 17.1264 25.0584 18.2037 25.4149L23.1702 27.0587L23.2298 27.0469C23.6096 26.9722 24.1538 26.8656 24.8125 26.7376C26.1294 26.4818 27.9057 26.1404 29.7405 25.7988C31.5731 25.4577 33.4738 25.1145 35.0363 24.8559C36.5006 24.6136 37.9037 24.4028 38.5729 24.4028C39.35 24.4028 40.2366 24.5956 40.9551 25.2198C41.7095 25.8753 42 26.7637 42 27.5787C42 29.0532 41.0987 30.4535 40.0269 31.5177C39.0266 32.5109 36.8548 34.4252 34.1935 36.1067C31.5896 37.752 28.2074 39.375 24.8646 39.375C21.7747 39.375 19.2275 38.6027 17.1317 37.9091C16.9385 37.8452 16.7513 37.7828 16.5695 37.7223C14.6672 37.089 13.3567 36.6528 12.0701 36.6528H2.93125C1.79561 36.6528 0.875 35.7387 0.875 34.6111C0.875 33.4835 1.79561 32.5694 2.93125 32.5694H12.0701C14.0753 32.5694 16.0576 33.2369 17.8107 33.8272C18.0213 33.8981 18.2286 33.9679 18.4322 34.0353C20.4489 34.7028 22.4711 35.2917 24.8646 35.2917C27.0051 35.2917 29.5632 34.1924 31.9856 32.6618C34.3165 31.189 36.2351 29.5017 37.0822 28.6667C36.6772 28.7271 36.2165 28.8002 35.7124 28.8837C34.1904 29.1355 32.3213 29.4729 30.4984 29.8122C28.6776 30.1512 26.9126 30.4904 25.6021 30.745C24.9471 30.8722 24.4061 30.9783 24.029 31.0524L23.4402 31.1687Z" fill="#262626"/>
<path fill-rule="evenodd" clip-rule="evenodd" d="M7.83546 22.5458C6.42187 23.3479 5.19394 24.3629 4.38524 25.1659C3.58222 25.9632 2.28028 25.9632 1.47726 25.1659C0.674246 24.3686 0.674246 23.0759 1.47726 22.2786C2.49634 21.2667 4.01007 20.0133 5.79509 19.0005C7.56316 17.9973 9.75045 17.1435 12.0701 17.1435C13.2616 17.1435 14.7005 17.4279 16.107 17.8122C17.5486 18.206 19.0974 18.7446 20.5581 19.3366C22.0168 19.9277 23.426 20.5876 24.5821 21.2348C25.1594 21.558 25.6989 21.892 26.1599 22.2269C26.5945 22.5425 27.0712 22.9383 27.4235 23.4046C28.3059 24.5729 28.2143 25.8664 27.8537 26.8211C27.5211 27.7018 26.9225 28.4448 26.4218 28.9751C25.8969 29.5311 25.3385 29.999 24.927 30.3195C24.7176 30.4825 24.5377 30.614 24.4073 30.7066C24.3419 30.7531 24.2885 30.7901 24.2495 30.8168L24.2019 30.8491L24.1866 30.8593L24.1813 30.8629L24.1782 30.8649C24.1782 30.8649 24.1774 30.8654 23.0368 29.1667L24.1782 30.8649C23.2333 31.4904 21.9558 31.2374 21.3259 30.2992C20.6967 29.362 20.9507 28.0962 21.893 27.47L21.8946 27.469L21.9159 27.4545C21.9364 27.4405 21.97 27.4172 22.0144 27.3857C22.1035 27.3224 22.2342 27.227 22.389 27.1065C22.7057 26.8598 23.0898 26.5338 23.4216 26.1823C23.631 25.9606 23.7768 25.7732 23.8723 25.6279C23.8312 25.596 23.7846 25.5608 23.7317 25.5224C23.4412 25.3114 23.049 25.0642 22.5625 24.7918C21.591 24.248 20.3442 23.6602 19.004 23.1171C17.6659 22.5748 16.2732 22.0926 15.016 21.7492C13.7236 21.3961 12.7065 21.2269 12.0701 21.2269C10.7343 21.2269 9.26601 21.7342 7.83546 22.5458Z" fill="#262626"/>
<path d="M29.8125 21.8322C29.601 21.8322 29.3974 21.8022 29.2017 21.7422C29.0047 21.6822 28.8307 21.5773 28.6797 21.4273C26.0818 19.0883 23.8089 16.832 21.8611 14.6585C19.912 12.4838 18.9375 10.4518 18.9375 8.56258C18.9375 6.88326 19.5115 5.47384 20.6594 4.3343C21.8073 3.19477 23.2271 2.625 24.9187 2.625C25.8854 2.625 26.7917 2.82712 27.6375 3.23135C28.4833 3.63679 29.2083 4.18436 29.8125 4.87408C30.4167 4.18436 31.1417 3.63679 31.9875 3.23135C32.8333 2.82712 33.7396 2.625 34.7063 2.625C36.3979 2.625 37.8177 3.19477 38.9656 4.3343C40.1135 5.47384 40.6875 6.88326 40.6875 8.56258C40.6875 10.4518 39.7136 12.4838 37.7657 14.6585C35.8167 16.832 33.5432 19.0883 30.9453 21.4273C30.7943 21.5773 30.6203 21.6822 30.4233 21.7422C30.2276 21.8022 30.024 21.8322 29.8125 21.8322ZM29.8125 17.5589C31.5948 15.8796 33.249 14.2075 34.7751 12.5426C36.3 10.8788 37.0625 9.55217 37.0625 8.56258C37.0625 7.87286 36.8438 7.31029 36.4064 6.87487C35.9678 6.44064 35.401 6.22353 34.7063 6.22353C34.2833 6.22353 33.8834 6.3057 33.5064 6.47003C33.1282 6.63556 32.8031 6.88326 32.5312 7.21313L29.8125 10.4518L27.0937 7.21313C26.8219 6.88326 26.4974 6.63556 26.1204 6.47003C25.7422 6.3057 25.3417 6.22353 24.9187 6.22353C24.224 6.22353 23.6579 6.44064 23.2204 6.87487C22.7818 7.31029 22.5625 7.87286 22.5625 8.56258C22.5625 9.55217 23.325 10.8788 24.8499 12.5426C26.376 14.2075 28.0302 15.8796 29.8125 17.5589Z" fill="#262626"/>
</svg>
