<svg width="14" height="9" viewBox="0 0 14 9" fill="none" xmlns="http://www.w3.org/2000/svg">
<path d="M6.99976 8.66667C6.82428 8.66768 6.65033 8.63405 6.48788 8.56769C6.32543 8.50134 6.17768 8.40357 6.05309 8.28L0.719759 2.94666C0.595441 2.82235 0.496827 2.67476 0.429546 2.51233C0.362266 2.3499 0.327637 2.17581 0.327637 2C0.327637 1.82419 0.362266 1.65009 0.429546 1.48766C0.496827 1.32524 0.595441 1.17765 0.719759 1.05333C0.844077 0.929013 0.991664 0.830398 1.15409 0.763117C1.31652 0.695837 1.49061 0.661209 1.66643 0.661209C1.84224 0.661209 2.01633 0.695837 2.17876 0.763117C2.34119 0.830398 2.48877 0.929013 2.61309 1.05333L6.99976 5.46667L11.3998 1.22666C11.5224 1.09028 11.6719 0.980666 11.8388 0.904685C12.0058 0.828703 12.1866 0.787987 12.37 0.785081C12.5534 0.782176 12.7355 0.817142 12.9047 0.887797C13.074 0.958452 13.2269 1.06327 13.3538 1.19571C13.4807 1.32814 13.5789 1.48533 13.6423 1.65746C13.7057 1.82959 13.7329 2.01294 13.7222 2.19605C13.7115 2.37917 13.6631 2.55811 13.5801 2.72167C13.4971 2.88524 13.3812 3.02992 13.2398 3.14666L7.90643 8.29333C7.66259 8.52842 7.33843 8.6619 6.99976 8.66667Z" fill="#262626"/>
</svg>
