<svg width="42" height="42" viewBox="0 0 42 42" fill="none" xmlns="http://www.w3.org/2000/svg">
<path fill-rule="evenodd" clip-rule="evenodd" d="M6.0133 12.2138C6.0133 10.1367 7.91739 8.75 9.86702 8.75C11.8167 8.75 13.7207 10.1367 13.7207 12.2138V29.7862C13.7207 31.8633 11.8167 33.25 9.86702 33.25C7.91739 33.25 6.0133 31.8633 6.0133 29.7862V12.2138ZM9.86702 11.2845C8.97886 11.2845 8.58245 11.8647 8.58245 12.2138V29.7862C8.58245 30.1353 8.97885 30.7155 9.86702 30.7155C10.7552 30.7155 11.1516 30.1353 11.1516 29.7862V12.2138C11.1516 11.8647 10.7552 11.2845 9.86702 11.2845Z" fill="#262626"/>
<path fill-rule="evenodd" clip-rule="evenodd" d="M28.2793 12.2138C28.2793 10.1367 30.1833 8.75 32.133 8.75C34.0827 8.75 35.9867 10.1367 35.9867 12.2138V29.7862C35.9867 31.8633 34.0827 33.25 32.133 33.25C30.1833 33.25 28.2793 31.8633 28.2793 29.7862V12.2138ZM32.133 11.2845C31.2448 11.2845 30.8484 11.8647 30.8484 12.2138V29.7862C30.8484 30.1353 31.2448 30.7155 32.133 30.7155C33.0212 30.7155 33.4176 30.1353 33.4176 29.7862V12.2138C33.4176 11.8647 33.0212 11.2845 32.133 11.2845Z" fill="#262626"/>
<path fill-rule="evenodd" clip-rule="evenodd" d="M0.875 16.4943C0.875 14.414 2.74678 12.9741 4.72872 12.9741C6.71066 12.9741 8.58245 14.414 8.58245 16.4943V25.5057C8.58245 27.586 6.71066 29.0259 4.72872 29.0259C2.74678 29.0259 0.875 27.586 0.875 25.5057V16.4943ZM4.72872 15.5086C3.87287 15.5086 3.44415 16.0861 3.44415 16.4943V25.5057C3.44415 25.9139 3.87287 26.4914 4.72872 26.4914C5.58458 26.4914 6.0133 25.9139 6.0133 25.5057V16.4943C6.0133 16.0861 5.58458 15.5086 4.72872 15.5086Z" fill="#262626"/>
<path fill-rule="evenodd" clip-rule="evenodd" d="M33.4176 16.4943C33.4176 14.414 35.2893 12.9741 37.2713 12.9741C39.2533 12.9741 41.125 14.414 41.125 16.4943V25.5057C41.125 27.586 39.2533 29.0259 37.2713 29.0259C35.2893 29.0259 33.4176 27.586 33.4176 25.5057V16.4943ZM37.2713 15.5086C36.4154 15.5086 35.9867 16.0861 35.9867 16.4943V25.5057C35.9867 25.9139 36.4154 26.4914 37.2713 26.4914C38.1272 26.4914 38.5559 25.9139 38.5559 25.5057V16.4943C38.5559 16.0861 38.1272 15.5086 37.2713 15.5086Z" fill="#262626"/>
<path fill-rule="evenodd" clip-rule="evenodd" d="M11.1516 23.5345C11.1516 24.2344 11.7267 24.8017 12.4362 24.8017H29.5638C30.2733 24.8017 30.8484 24.2344 30.8484 23.5345V18.4655C30.8484 17.7656 30.2733 17.1983 29.5638 17.1983H12.4362C11.7267 17.1983 11.1516 17.7656 11.1516 18.4655V23.5345ZM13.7207 22.2672V19.7328H28.2793V22.2672H13.7207Z" fill="#262626"/>
</svg>
