<svg width="42" height="42" viewBox="0 0 42 42" fill="none" xmlns="http://www.w3.org/2000/svg">
<path d="M9.1 7C5.95 7 4.375 10.1111 4.375 11.6667V19.4444C4.375 21 5.95 24.1111 9.1 24.1111C10.0607 24.1111 11.179 23.6756 12.25 22.9756V33.4444C12.25 34.3 12.9587 35 13.825 35H15.4C16.2662 35 16.975 34.3 16.975 33.4444V14.7778C16.975 11.6667 12.25 7 9.1 7ZM13.825 18.2467L10.5332 20.3778C9.73 20.8911 9.226 21 9.1 21C7.9975 21 7.525 19.5689 7.525 19.4444V11.7133C7.525 11.5422 7.9975 10.1111 9.1 10.1111C10.5175 10.1111 13.825 13.3778 13.825 14.7778V18.2467ZM29.8375 25.6667C30.94 25.6667 31.9952 25.4956 32.9875 25.1689V33.4444C32.9875 34.3 32.2787 35 31.4125 35H28.2625C27.3962 35 26.6875 34.3 26.6875 33.4444V25.1689C27.6797 25.4956 28.735 25.6667 29.8375 25.6667ZM29.8375 7C25.0495 7 21.175 10.8267 21.175 15.5556C21.175 20.2844 25.0495 24.1111 29.8375 24.1111C34.6255 24.1111 38.5 20.2844 38.5 15.5556C38.5 10.8267 34.6255 7 29.8375 7ZM29.8375 21C26.7977 21 24.325 18.5578 24.325 15.5556C24.325 12.5533 26.7977 10.1111 29.8375 10.1111C32.8772 10.1111 35.35 12.5533 35.35 15.5556C35.35 18.5578 32.8772 21 29.8375 21Z" fill="#262626"/>
</svg>
