<svg width="42" height="34" viewBox="0 0 42 34" fill="none" xmlns="http://www.w3.org/2000/svg">
<path fill-rule="evenodd" clip-rule="evenodd" d="M21 0L41.125 11.0174L34.4395 14.6774C35.5933 18.253 35.8623 22.0571 35.2132 25.7697L34.9775 27.118L33.5957 27.2501C29.3662 27.6546 25.3786 29.3807 22.2149 32.1764L21 33.25L19.785 32.1763C18.4943 31.0357 17.0663 30.073 15.5407 29.3056V30.7427C15.5407 31.7331 14.726 32.5359 13.7209 32.5359C12.7159 32.5359 11.9012 31.7331 11.9012 30.7427V27.8989C10.7638 27.582 9.59445 27.3639 8.40596 27.2501L7.02444 27.1178L6.78862 25.7699C6.13913 22.0575 6.40802 18.2535 7.56195 14.6782L0.875 11.0174L21 0ZM10.8197 16.4616C10.1411 18.8653 9.92746 21.376 10.1926 23.8618C10.7672 23.9521 11.3371 24.0632 11.9012 24.1946V17.2936C11.9012 17.2156 11.9063 17.1382 11.9164 17.062L10.8197 16.4616ZM15.5407 19.0461V25.3569C17.4882 26.1562 19.3256 27.2126 21 28.5032C24.145 26.0792 27.8648 24.4815 31.8091 23.8617C32.074 21.3758 31.8603 18.865 31.1818 16.4611L21.8838 21.551L21 22.0348L20.1162 21.551L15.5407 19.0461ZM21 17.9321L33.6308 11.0174L21 4.10272L8.36925 11.0174L8.86004 11.2861L14.9042 14.5946L20.1163 11.7415C20.9949 11.2606 22.1028 11.5726 22.5908 12.4383C23.0788 13.3041 22.7623 14.3958 21.8837 14.8767L18.6513 16.6461L21 17.9321Z" fill="#262626"/>
</svg>
