<svg width="32" height="32" viewBox="0 0 32 32" fill="none" xmlns="http://www.w3.org/2000/svg">
<path d="M25.3334 5.33334H6.66675C5.60588 5.33334 4.58847 5.75477 3.83832 6.50492C3.08818 7.25506 2.66675 8.27248 2.66675 9.33334V22.6667C2.66675 23.7275 3.08818 24.745 3.83832 25.4951C4.58847 26.2453 5.60588 26.6667 6.66675 26.6667H25.3334C26.3943 26.6667 27.4117 26.2453 28.1618 25.4951C28.912 24.745 29.3334 23.7275 29.3334 22.6667V9.33334C29.3334 8.27248 28.912 7.25506 28.1618 6.50492C27.4117 5.75477 26.3943 5.33334 25.3334 5.33334ZM24.4401 8.00001L16.0001 14.3333L7.56008 8.00001H24.4401ZM25.3334 24H6.66675C6.31313 24 5.97399 23.8595 5.72394 23.6095C5.47389 23.3594 5.33341 23.0203 5.33341 22.6667V9.66668L15.2001 17.0667C15.4309 17.2398 15.7116 17.3333 16.0001 17.3333C16.2886 17.3333 16.5693 17.2398 16.8001 17.0667L26.6667 9.66668V22.6667C26.6667 23.0203 26.5263 23.3594 26.2762 23.6095C26.0262 23.8595 25.687 24 25.3334 24Z" fill="#B3B3B3"/>
</svg>
