<svg width="28" height="32" viewBox="0 0 28 32" fill="none" xmlns="http://www.w3.org/2000/svg">
<path d="M14 0.25C6.7655 0.25 0.875 6.1405 0.875 13.375C0.875 20.6095 6.7655 26.5 14 26.5C21.2345 26.5 27.125 20.6095 27.125 13.375C27.125 6.1405 21.2345 0.25 14 0.25ZM14 2.875C16.6566 2.87159 19.2152 3.87822 21.1573 5.69092C23.0994 7.50362 24.2798 9.98682 24.4593 12.6374C23.6762 12.0879 22.7787 11.723 21.8343 11.5703C21.265 11.4757 20.688 11.4344 20.111 11.4469C19.2645 11.4588 18.4233 11.5828 17.6094 11.8158C17.2465 10.9828 16.6083 10.3 15.8018 9.88182C14.9953 9.46362 14.0695 9.33548 13.1797 9.51888C13.1692 9.50969 13.1495 9.52938 13.139 9.51888C12.2872 8.8075 11.3802 7.705 10.9655 6.60775C10.6886 5.87406 10.6269 5.19812 10.7594 4.639C10.8881 4.09037 11.1702 3.57194 11.9079 3.07975C12.5969 2.94363 13.2976 2.87505 14 2.875ZM8.09375 4.72038C8.01687 5.6692 8.15736 6.62307 8.50456 7.50944C9.01425 8.843 9.81198 10.0477 10.8408 11.0374C10.2898 11.7787 10.0166 12.69 10.0692 13.6122C10.1217 14.5344 10.4966 15.4088 11.1283 16.0827C10.9183 17.1274 10.4208 18.3993 9.69369 19.2812C9.191 19.8916 8.61219 20.3011 8.05306 20.4704C7.49394 20.641 6.91512 20.6502 6.08431 20.2249C4.48962 18.3835 3.5 16.0105 3.5 13.375C3.5 9.76038 5.33094 6.60775 8.09375 4.72038ZM14 12.0625C14.7389 12.0625 15.3125 12.6374 15.3125 13.375C15.3125 14.1139 14.7376 14.6875 14 14.6875C13.2611 14.6875 12.6875 14.1126 12.6875 13.375C12.6875 12.6361 13.2624 12.0625 14 12.0625ZM20.153 14.1139C20.573 14.0982 20.9982 14.1284 21.3828 14.1953C22.1519 14.3292 22.7977 14.6101 23.2282 15.0156C23.6338 15.4002 23.9002 15.8924 23.9671 16.7389C23.2615 18.8218 21.9201 20.6308 20.132 21.911C18.3439 23.1912 16.1992 23.8781 14 23.875C12.3331 23.875 10.7594 23.4944 9.36556 22.8079C10.304 22.3984 11.0823 21.7159 11.7031 20.9626C12.5861 19.8796 13.2294 18.6217 13.5905 17.2718C13.7283 17.2862 13.8569 17.3125 14 17.3125C15.7233 17.3125 17.1631 16.1588 17.6921 14.6048C18.481 14.3111 19.3118 14.1454 20.153 14.1139ZM12.6875 27.8125V29.125H6.125C5.40013 29.125 4.8125 29.7126 4.8125 30.4375C4.8125 31.1624 5.40013 31.75 6.125 31.75H21.875C22.5999 31.75 23.1875 31.1624 23.1875 30.4375C23.1875 29.7126 22.5999 29.125 21.875 29.125H15.3125V27.8125H12.6875Z" fill="#262626"/>
</svg>
