<svg width="48" height="48" viewBox="0 0 48 48" fill="none" xmlns="http://www.w3.org/2000/svg">
<path d="M24 6C15.732 6 9 12.732 9 21C9 29.268 15.732 36 24 36C32.268 36 39 29.268 39 21C39 12.732 32.268 6 24 6ZM24 9C27.0361 8.99611 29.9602 10.1465 32.1798 12.2182C34.3993 14.2899 35.7484 17.1278 35.9535 20.157C35.0585 19.529 34.0328 19.112 32.9535 18.9375C32.3028 18.8293 31.6435 18.7821 30.984 18.7965C30.0166 18.8101 29.0552 18.9518 28.125 19.218C27.7103 18.2661 26.981 17.4857 26.0592 17.0078C25.1375 16.5299 24.0794 16.3834 23.0625 16.593C23.0505 16.5825 23.028 16.605 23.016 16.593C22.0425 15.78 21.006 14.52 20.532 13.266C20.2155 12.4275 20.145 11.655 20.2965 11.016C20.4435 10.389 20.766 9.7965 21.609 9.234C22.3965 9.07843 23.1973 9.00006 24 9ZM17.25 11.109C17.1621 12.1934 17.3227 13.2835 17.7195 14.2965C18.302 15.8206 19.2137 17.1973 20.3895 18.3285C19.7597 19.1757 19.4476 20.2172 19.5076 21.2711C19.5677 22.325 19.9961 23.3243 20.718 24.0945C20.478 25.2885 19.9095 26.742 19.0785 27.75C18.504 28.4475 17.8425 28.9155 17.2035 29.109C16.5645 29.304 15.903 29.3145 14.9535 28.8285C13.131 26.724 12 24.012 12 21C12 16.869 14.0925 13.266 17.25 11.109ZM24 19.5C24.8445 19.5 25.5 20.157 25.5 21C25.5 21.8445 24.843 22.5 24 22.5C23.1555 22.5 22.5 21.843 22.5 21C22.5 20.1555 23.157 19.5 24 19.5ZM31.032 21.8445C31.512 21.8265 31.998 21.861 32.4375 21.9375C33.3165 22.0905 34.0545 22.4115 34.5465 22.875C35.01 23.3145 35.3145 23.877 35.391 24.8445C34.5845 27.2249 33.0515 29.2923 31.008 30.7554C28.9644 32.2185 26.5133 33.0036 24 33C22.095 33 20.2965 32.565 18.7035 31.7805C19.776 31.3125 20.6655 30.5325 21.375 29.6715C22.3842 28.4338 23.1193 26.9962 23.532 25.4535C23.6895 25.47 23.8365 25.5 24 25.5C25.9695 25.5 27.615 24.1815 28.2195 22.4055C29.1211 22.0698 30.0706 21.8804 31.032 21.8445ZM22.5 37.5V39H15C14.1716 39 13.5 39.6716 13.5 40.5C13.5 41.3284 14.1716 42 15 42H33C33.8284 42 34.5 41.3284 34.5 40.5C34.5 39.6716 33.8284 39 33 39H25.5V37.5H22.5Z" fill="#262626"/>
</svg>
