<svg width="22" height="22" viewBox="0 0 22 22" fill="none" xmlns="http://www.w3.org/2000/svg">
<path d="M13.7502 14.6667H8.25016C8.00705 14.6667 7.77389 14.7632 7.60198 14.9352C7.43007 15.1071 7.3335 15.3402 7.3335 15.5833C7.3335 15.8264 7.43007 16.0596 7.60198 16.2315C7.77389 16.4034 8.00705 16.5 8.25016 16.5H13.7502C13.9933 16.5 14.2264 16.4034 14.3983 16.2315C14.5703 16.0596 14.6668 15.8264 14.6668 15.5833C14.6668 15.3402 14.5703 15.1071 14.3983 14.9352C14.2264 14.7632 13.9933 14.6667 13.7502 14.6667ZM8.25016 12.8333H11.0002C11.2433 12.8333 11.4764 12.7368 11.6483 12.5648C11.8203 12.3929 11.9168 12.1598 11.9168 11.9167C11.9168 11.6736 11.8203 11.4404 11.6483 11.2685C11.4764 11.0966 11.2433 11 11.0002 11H8.25016C8.00705 11 7.77389 11.0966 7.60198 11.2685C7.43007 11.4404 7.3335 11.6736 7.3335 11.9167C7.3335 12.1598 7.43007 12.3929 7.60198 12.5648C7.77389 12.7368 8.00705 12.8333 8.25016 12.8333Z" fill="#262626"/>
<path d="M18.0948 7.63579L13.1082 2.13579C13.0225 2.04084 12.9178 1.96486 12.801 1.91277C12.6842 1.86067 12.5578 1.8336 12.4298 1.83329H6.01317C5.70861 1.82966 5.40631 1.88606 5.12355 1.99926C4.84078 2.11247 4.58308 2.28026 4.36517 2.49307C4.14726 2.70587 3.9734 2.95952 3.85352 3.23952C3.73364 3.51952 3.67009 3.8204 3.6665 4.12496V17.875C3.67009 18.1795 3.73364 18.4804 3.85352 18.7604C3.9734 19.0404 4.14726 19.294 4.36517 19.5069C4.58308 19.7197 4.84078 19.8875 5.12355 20.0007C5.40631 20.1139 5.70861 20.1703 6.01317 20.1666H15.9865C16.2911 20.1703 16.5934 20.1139 16.8761 20.0007C17.1589 19.8875 17.4166 19.7197 17.6345 19.5069C17.8524 19.294 18.0263 19.0404 18.1462 18.7604C18.266 18.4804 18.3296 18.1795 18.3332 17.875V8.24996C18.3326 8.02278 18.2476 7.80391 18.0948 7.63579ZM12.8332 4.58329L15.3448 7.33329H13.5115C13.4155 7.3275 13.3216 7.30264 13.2354 7.26017C13.1491 7.21771 13.0721 7.15848 13.009 7.08595C12.9458 7.01341 12.8977 6.92903 12.8676 6.83772C12.8374 6.74641 12.8257 6.65001 12.8332 6.55413V4.58329ZM15.9865 18.3333H6.01317C5.94935 18.337 5.88542 18.3281 5.82505 18.3071C5.76468 18.286 5.70905 18.2533 5.66136 18.2107C5.61368 18.1681 5.57486 18.1165 5.54714 18.0589C5.51942 18.0013 5.50335 17.9388 5.49984 17.875V4.12496C5.50335 4.06113 5.51942 3.99861 5.54714 3.941C5.57486 3.88339 5.61368 3.83182 5.66136 3.78924C5.70905 3.74666 5.76468 3.71391 5.82505 3.69287C5.88542 3.67183 5.94935 3.66291 6.01317 3.66663H10.9998V6.55413C10.985 7.22937 11.2379 7.88304 11.7034 8.37249C12.1688 8.86194 12.8089 9.14742 13.484 9.16663H16.4998V17.875C16.4963 17.9388 16.4803 18.0013 16.4525 18.0589C16.4248 18.1165 16.386 18.1681 16.3383 18.2107C16.2906 18.2533 16.235 18.286 16.1746 18.3071C16.1143 18.3281 16.0503 18.337 15.9865 18.3333Z" fill="#262626"/>
</svg>
