<svg width="22" height="22" viewBox="0 0 22 22" fill="none" xmlns="http://www.w3.org/2000/svg">
<path fill-rule="evenodd" clip-rule="evenodd" d="M16.55 2.03259C16.8674 1.90114 17.2075 1.83349 17.551 1.83349C17.8944 1.83349 18.2346 1.90114 18.5519 2.03259C18.8692 2.16403 19.1576 2.35669 19.4004 2.59957C19.6433 2.84244 19.836 3.13078 19.9674 3.44811C20.0989 3.76545 20.1665 4.10556 20.1665 4.44904C20.1665 4.79252 20.0989 5.13263 19.9674 5.44997C19.836 5.7673 19.6433 6.05564 19.4004 6.29851L14.1507 11.5483C13.7513 11.9477 13.2436 12.219 12.6906 12.3297L10.2632 12.8155C9.96272 12.8757 9.65202 12.7816 9.43527 12.565C9.21852 12.3483 9.12439 12.0376 9.18443 11.7371L9.6695 9.30899C9.78049 8.75589 10.0527 8.24801 10.4517 7.84932L15.7015 2.59957C15.9444 2.35669 16.2327 2.16403 16.55 2.03259ZM17.551 3.66682C17.4482 3.66682 17.3465 3.68706 17.2516 3.72637C17.1567 3.76568 17.0705 3.82329 16.9978 3.89593L16.1671 4.72669L17.2736 5.83265L18.1041 5.00215C18.1767 4.92952 18.2343 4.84329 18.2736 4.74838C18.3129 4.65348 18.3332 4.55176 18.3332 4.44904C18.3332 4.34632 18.3129 4.2446 18.2736 4.1497C18.2343 4.0548 18.1767 3.96857 18.1041 3.89593C18.0314 3.8233 17.9452 3.76568 17.8503 3.72637C17.7554 3.68706 17.6537 3.66682 17.551 3.66682ZM15.9772 7.12902L14.8707 6.02306L11.7481 9.14568C11.605 9.28857 11.5069 9.47104 11.4671 9.66928L11.2516 10.748L12.3308 10.532C12.5293 10.4923 12.7111 10.3951 12.8543 10.2519L15.9772 7.12902ZM5.5 5.5C5.25688 5.5 5.02373 5.59658 4.85182 5.76849C4.67991 5.94039 4.58333 6.17355 4.58333 6.41667V16.5C4.58333 16.7431 4.67991 16.9763 4.85182 17.1482C5.02373 17.3201 5.25689 17.4167 5.5 17.4167H15.5833C15.8264 17.4167 16.0596 17.3201 16.2315 17.1482C16.4034 16.9763 16.5 16.7431 16.5 16.5V13.75C16.5 13.2437 16.9104 12.8333 17.4167 12.8333C17.9229 12.8333 18.3333 13.2437 18.3333 13.75V16.5C18.3333 17.2293 18.0436 17.9288 17.5279 18.4445C17.0122 18.9603 16.3127 19.25 15.5833 19.25H5.5C4.77065 19.25 4.07118 18.9603 3.55546 18.4445C3.03973 17.9288 2.75 17.2293 2.75 16.5V6.41667C2.75 5.68732 3.03973 4.98785 3.55546 4.47212C4.07118 3.9564 4.77065 3.66667 5.5 3.66667H8.25C8.75626 3.66667 9.16667 4.07707 9.16667 4.58333C9.16667 5.08959 8.75626 5.5 8.25 5.5H5.5Z" fill="#262626"/>
</svg>
