<svg width="36" height="28" viewBox="0 0 36 28" fill="none" xmlns="http://www.w3.org/2000/svg">
<path fill-rule="evenodd" clip-rule="evenodd" d="M18.3016 0.658819C18.9732 0.931492 19.2966 1.697 19.024 2.36864C18.5075 3.64084 18.4049 4.49951 18.4455 5.1284C18.4866 5.76435 18.6772 6.27265 18.9448 6.91372L19.003 7.05232C19.2536 7.64806 19.577 8.41662 19.674 9.34171C19.7829 10.3801 19.6064 11.5176 19.0132 12.8943C18.7264 13.56 17.9542 13.8671 17.2885 13.5803C16.6228 13.2935 16.3157 12.5213 16.6025 11.8556C17.0557 10.8036 17.1162 10.1196 17.0633 9.61545C17.0079 9.08727 16.8254 8.65024 16.5476 7.98519L16.5225 7.92504C16.2421 7.25361 15.8972 6.40034 15.826 5.29751C15.7543 4.18762 15.9628 2.93031 16.5918 1.3812C16.8644 0.709569 17.6299 0.386147 18.3016 0.658819ZM11.9288 6.05764C12.3059 5.43853 12.1096 4.631 11.4905 4.25398C10.8714 3.87696 10.0639 4.07321 9.68684 4.69232C9.01799 5.79063 8.7376 6.77966 8.82932 7.72683C8.91814 8.64407 9.34756 9.33089 9.62123 9.7679C9.93911 10.2755 10.0415 10.4535 10.0721 10.648C10.0885 10.7526 10.1106 11.0357 9.70551 11.6626C9.31205 12.2713 9.48661 13.0838 10.0954 13.4773C10.7042 13.8708 11.5167 13.6962 11.9102 13.0874C12.5515 12.0951 12.8105 11.1639 12.6652 10.2402C12.5449 9.47556 12.1499 8.85355 11.9077 8.47226C11.8858 8.43773 11.8651 8.40518 11.846 8.37467C11.5717 7.93667 11.4655 7.71578 11.4421 7.47383C11.4216 7.26182 11.4523 6.84019 11.9288 6.05764ZM2.25 20.25H3.72247C5.1639 24.3282 9.05323 27.25 13.625 27.25H22.375C26.9468 27.25 30.8361 24.3282 32.2775 20.25H33.75C34.7165 20.25 35.5 19.4665 35.5 18.5C35.5 17.5335 34.7165 16.75 33.75 16.75H2.25C1.2835 16.75 0.5 17.5335 0.5 18.5C0.5 19.4665 1.2835 20.25 2.25 20.25ZM22.375 23.75C24.9621 23.75 27.2276 22.3451 28.4396 20.25H7.56043C8.77244 22.3451 11.0379 23.75 13.625 23.75H22.375ZM25.9288 6.05764C26.3059 5.43853 26.1096 4.631 25.4905 4.25398C24.8714 3.87696 24.0639 4.07321 23.6868 4.69232C23.018 5.79063 22.7376 6.77966 22.8293 7.72683C22.9181 8.64407 23.3476 9.33089 23.6212 9.7679C23.9391 10.2755 24.0415 10.4535 24.0721 10.648C24.0885 10.7526 24.1106 11.0357 23.7055 11.6626C23.3121 12.2713 23.4866 13.0838 24.0954 13.4773C24.7042 13.8708 25.5167 13.6962 25.9102 13.0874C26.5515 12.0951 26.8105 11.1639 26.6652 10.2402C26.5449 9.47556 26.1499 8.85355 25.9077 8.47226C25.8858 8.43773 25.8651 8.40518 25.846 8.37467C25.5717 7.93667 25.4655 7.71578 25.4421 7.47383C25.4216 7.26182 25.4523 6.84019 25.9288 6.05764Z" fill="#262626"/>
</svg>
