<svg width="42" height="42" viewBox="0 0 42 42" fill="none" xmlns="http://www.w3.org/2000/svg">
<path d="M21 32.4844C29.2472 32.4844 35.9297 25.8019 35.9297 17.5547C35.9297 9.30747 29.2472 2.625 21 2.625C12.7528 2.625 6.07031 9.30747 6.07031 17.5547C6.07031 25.8019 12.7528 32.4844 21 32.4844ZM19.4065 9.61611V8.41025C19.4065 7.7499 19.9377 7.21875 20.598 7.21875H21.3948C22.0551 7.21875 22.5863 7.7499 22.5863 8.41025V9.63047C23.6988 9.68789 24.7755 10.0683 25.6727 10.7358C26.0747 11.0301 26.1177 11.6187 25.7588 11.9632L24.5889 13.0758C24.3161 13.3414 23.907 13.3485 23.584 13.1476C23.1964 12.9035 22.7657 12.7815 22.3063 12.7815H19.5142C18.8682 12.7815 18.3442 13.3701 18.3442 14.095C18.3442 14.6836 18.7031 15.2076 19.2127 15.3583L23.6845 16.7005C25.5292 17.2532 26.8211 19.0261 26.8211 21.0144C26.8211 23.4548 24.9262 25.4287 22.5791 25.4933V26.6991C22.5791 27.3595 22.0479 27.8906 21.3876 27.8906H20.5909C19.9305 27.8906 19.3994 27.3595 19.3994 26.6991V25.4789C18.2868 25.4215 17.2102 25.0411 16.3129 24.3735C15.911 24.0792 15.8679 23.4907 16.2268 23.1461L17.3968 22.0336C17.6695 21.768 18.0787 21.7608 18.4017 21.9618C18.7893 22.2059 19.2199 22.3279 19.6793 22.3279H22.4714C23.1174 22.3279 23.6414 21.7393 23.6414 21.0144C23.6414 20.4258 23.2825 19.9018 22.7729 19.7511L18.3012 18.4088C16.4565 17.8562 15.1645 16.0833 15.1645 14.095C15.1717 11.6546 17.0594 9.68071 19.4065 9.61611ZM37.0781 27.8906H34.7454C33.3385 29.7568 31.5441 31.3144 29.5056 32.4844H34.085C34.4654 32.4844 34.7741 32.7428 34.7741 33.0586V34.207C34.7741 34.5229 34.4654 34.7812 34.085 34.7812H7.90781C7.52739 34.7812 7.21875 34.5229 7.21875 34.207V33.0586C7.21875 32.7428 7.52739 32.4844 7.90781 32.4844H12.4872C10.4487 31.3144 8.66147 29.7568 7.24746 27.8906H4.92188C3.65142 27.8906 2.625 28.917 2.625 30.1875V37.0781C2.625 38.3486 3.65142 39.375 4.92188 39.375H37.0781C38.3486 39.375 39.375 38.3486 39.375 37.0781V30.1875C39.375 28.917 38.3486 27.8906 37.0781 27.8906Z" fill="#262626"/>
</svg>
