<svg width="32" height="32" viewBox="0 0 32 32" fill="none" xmlns="http://www.w3.org/2000/svg">
<path d="M27.2268 13.5733L16.9468 3.06664C16.8229 2.94167 16.6754 2.84248 16.5129 2.77478C16.3504 2.70709 16.1762 2.67224 16.0002 2.67224C15.8241 2.67224 15.6499 2.70709 15.4874 2.77478C15.3249 2.84248 15.1774 2.94167 15.0535 3.06664L4.77349 13.5866C4.52474 13.8374 4.32828 14.1351 4.19552 14.4624C4.06277 14.7897 3.99636 15.1401 4.00015 15.4933V26.6666C3.99912 27.3492 4.25985 28.0062 4.72865 28.5022C5.19746 28.9983 5.83863 29.2958 6.52015 29.3333H25.4802C26.1617 29.2958 26.8029 28.9983 27.2717 28.5022C27.7405 28.0062 28.0012 27.3492 28.0002 26.6666V15.4933C28.0012 14.7772 27.7239 14.0888 27.2268 13.5733ZM13.3335 26.6666V18.6666H18.6668V26.6666H13.3335ZM25.3335 26.6666H21.3335V17.3333C21.3335 16.9797 21.193 16.6405 20.943 16.3905C20.6929 16.1404 20.3538 16 20.0002 16H12.0002C11.6465 16 11.3074 16.1404 11.0573 16.3905C10.8073 16.6405 10.6668 16.9797 10.6668 17.3333V26.6666H6.66682V15.44L16.0002 5.90664L25.3335 15.4933V26.6666Z" fill="#262626"/>
</svg>
