<svg width="32" height="32" viewBox="0 0 32 32" fill="none" xmlns="http://www.w3.org/2000/svg">
<path d="M27.2266 13.5733L16.9466 3.06667C16.8226 2.9417 16.6752 2.84251 16.5127 2.77481C16.3502 2.70712 16.1759 2.67227 15.9999 2.67227C15.8239 2.67227 15.6496 2.70712 15.4871 2.77481C15.3247 2.84251 15.1772 2.9417 15.0532 3.06667L4.77324 13.5867C4.52449 13.8374 4.32804 14.1351 4.19528 14.4624C4.06252 14.7897 3.99612 15.1401 3.99991 15.4933V26.6667C3.99888 27.3492 4.25961 28.0062 4.72841 28.5023C5.19721 28.9984 5.83839 29.2958 6.51991 29.3333H25.4799C26.1614 29.2958 26.8026 28.9984 27.2714 28.5023C27.7402 28.0062 28.0009 27.3492 27.9999 26.6667V15.4933C28.001 14.7772 27.7237 14.0888 27.2266 13.5733ZM13.3332 26.6667V18.6667H18.6666V26.6667H13.3332ZM25.3332 26.6667H21.3332V17.3333C21.3332 16.9797 21.1928 16.6406 20.9427 16.3905C20.6927 16.1405 20.3535 16 19.9999 16H11.9999C11.6463 16 11.3071 16.1405 11.0571 16.3905C10.8071 16.6406 10.6666 16.9797 10.6666 17.3333V26.6667H6.66658V15.44L15.9999 5.90667L25.3332 15.4933V26.6667Z" fill="#262626"/>
</svg>
