<svg width="28" height="28" viewBox="0 0 28 28" fill="none" xmlns="http://www.w3.org/2000/svg">
<path d="M14.0003 0.666664C11.3632 0.666664 8.78538 1.44865 6.59273 2.91374C4.40007 4.37882 2.69111 6.4612 1.68194 8.89755C0.672769 11.3339 0.408725 14.0148 0.923194 16.6012C1.43766 19.1876 2.70754 21.5634 4.57224 23.4281C6.43694 25.2928 8.81271 26.5627 11.3991 27.0771C13.9855 27.5916 16.6664 27.3276 19.1028 26.3184C21.5391 25.3092 23.6215 23.6003 25.0866 21.4076C26.5517 19.2149 27.3337 16.6371 27.3337 14C27.3337 12.249 26.9888 10.5152 26.3187 8.89755C25.6487 7.27988 24.6665 5.81002 23.4284 4.57191C22.1903 3.33379 20.7205 2.35167 19.1028 1.6816C17.4851 1.01154 15.7513 0.666664 14.0003 0.666664V0.666664ZM15.3337 19.3333C15.3337 19.687 15.1932 20.0261 14.9431 20.2761C14.6931 20.5262 14.354 20.6667 14.0003 20.6667C13.6467 20.6667 13.3076 20.5262 13.0575 20.2761C12.8075 20.0261 12.667 19.687 12.667 19.3333V12.6667C12.667 12.313 12.8075 11.9739 13.0575 11.7239C13.3076 11.4738 13.6467 11.3333 14.0003 11.3333C14.354 11.3333 14.6931 11.4738 14.9431 11.7239C15.1932 11.9739 15.3337 12.313 15.3337 12.6667V19.3333ZM14.0003 10C13.7366 10 13.4788 9.9218 13.2596 9.77529C13.0403 9.62878 12.8694 9.42054 12.7685 9.17691C12.6676 8.93327 12.6412 8.66519 12.6926 8.40654C12.7441 8.1479 12.8711 7.91033 13.0575 7.72386C13.244 7.53739 13.4816 7.4104 13.7402 7.35895C13.9989 7.3075 14.2669 7.33391 14.5106 7.43482C14.7542 7.53574 14.9624 7.70664 15.109 7.9259C15.2555 8.14517 15.3337 8.40296 15.3337 8.66666C15.3337 9.02029 15.1932 9.35942 14.9431 9.60947C14.6931 9.85952 14.354 10 14.0003 10Z" fill="#428BC1"/>
</svg>
