<svg width="48" height="48" viewBox="0 0 48 48" fill="none" xmlns="http://www.w3.org/2000/svg">
<path d="M31.5 4C32.6935 4 33.8381 4.47411 34.682 5.31802C35.5259 6.16193 36 7.30653 36 8.5V39.5C36 40.6935 35.5259 41.8381 34.682 42.682C33.8381 43.5259 32.6935 44 31.5 44H16.5C15.3065 44 14.1619 43.5259 13.318 42.682C12.4741 41.8381 12 40.6935 12 39.5V8.5C12 7.30653 12.4741 6.16193 13.318 5.31802C14.1619 4.47411 15.3065 4 16.5 4H31.5ZM31.5 7H16.5C16.1022 7 15.7206 7.15804 15.4393 7.43934C15.158 7.72064 15 8.10218 15 8.5V39.5C15 40.328 15.672 41 16.5 41H31.5C31.8978 41 32.2794 40.842 32.5607 40.5607C32.842 40.2794 33 39.8978 33 39.5V8.5C33 8.10218 32.842 7.72064 32.5607 7.43934C32.2794 7.15804 31.8978 7 31.5 7ZM26.498 35C26.8958 34.9995 27.2776 35.157 27.5592 35.4379C27.8409 35.7189 27.9995 36.1002 28 36.498C28.0005 36.8958 27.843 37.2776 27.5621 37.5592C27.2811 37.8409 26.8998 37.9995 26.502 38L21.502 38.008C21.1042 38.0085 20.7224 37.851 20.4408 37.5701C20.1591 37.2891 20.0005 36.9078 20 36.51C19.9995 36.1122 20.157 35.7304 20.4379 35.4488C20.7189 35.1671 21.1002 35.0085 21.498 35.008L26.498 35Z" fill="#262626"/>
</svg>
