<svg width="48" height="48" viewBox="0 0 48 48" fill="none" xmlns="http://www.w3.org/2000/svg">
<path fill-rule="evenodd" clip-rule="evenodd" d="M16.5 12C16.5 11.1716 17.1716 10.5 18 10.5H32.918C34.6934 10.5001 36.4112 11.13 37.7658 12.2777C39.1203 13.4253 40.0239 15.0163 40.3156 16.7675L41.4696 23.6955L43.0896 33.4256C43.1729 33.9265 43.1463 34.4399 43.0114 34.9294C42.8766 35.419 42.6368 35.8733 42.3088 36.2609C41.9808 36.6485 41.5724 36.9601 41.112 37.1741C40.6515 37.388 40.15 37.4993 39.6422 37.5L6 37.5C5.60218 37.5 5.22064 37.342 4.93934 37.0607C4.65804 36.7794 4.5 36.3978 4.5 36C4.5 31.8891 6.13303 27.9467 9.03984 25.0398C11.9467 22.133 15.8891 20.5 20 20.5H37.896L37.3564 17.2605C37.3564 17.2605 37.3564 17.2605 37.3564 17.2605C37.1813 16.2098 36.6392 15.2552 35.8265 14.5666C35.0138 13.878 33.9832 13.5001 32.918 13.5C32.918 13.5 32.918 13.5 32.918 13.5H18C17.1716 13.5 16.5 12.8284 16.5 12ZM38.3957 23.5H20C16.6848 23.5 13.5054 24.817 11.1612 27.1612C9.17331 29.149 7.92413 31.7375 7.59028 34.5L39.6378 34.5C39.6381 34.5 39.6375 34.5 39.6378 34.5C39.7101 34.4998 39.7822 34.4839 39.8478 34.4534C39.9136 34.4229 39.9719 34.3784 40.0188 34.323C40.0656 34.2676 40.0999 34.2027 40.1191 34.1328C40.1384 34.063 40.1422 33.9898 40.1304 33.9184M40.1304 33.9184L38.5104 24.1885L38.3957 23.5M16.5 30C16.5 29.1716 17.1716 28.5 18 28.5H18.02C18.8484 28.5 19.52 29.1716 19.52 30C19.52 30.8284 18.8484 31.5 18.02 31.5H18C17.1716 31.5 16.5 30.8284 16.5 30ZM22.5 30C22.5 29.1716 23.1716 28.5 24 28.5H24.02C24.8484 28.5 25.52 29.1716 25.52 30C25.52 30.8284 24.8484 31.5 24.02 31.5H24C23.1716 31.5 22.5 30.8284 22.5 30ZM28.5 30C28.5 29.1716 29.1716 28.5 30 28.5H30.02C30.8484 28.5 31.52 29.1716 31.52 30C31.52 30.8284 30.8484 31.5 30.02 31.5H30C29.1716 31.5 28.5 30.8284 28.5 30Z" fill="#262626"/>
</svg>
