<svg width="38" height="38" viewBox="0 0 38 38" fill="none" xmlns="http://www.w3.org/2000/svg">
<path d="M19 23.75H12.5543C6.93263 23.75 2.375 27.7376 2.375 32.6562V35.625M35.625 7.125V19C35.625 20.2598 35.1246 21.468 34.2338 22.3588C33.343 23.2496 32.1348 23.75 30.875 23.75H26.125V35.625M23.75 9.5C23.75 10.4357 23.5657 11.3622 23.2076 12.2266C22.8496 13.0911 22.3248 13.8765 21.6631 14.5381C21.0015 15.1998 20.2161 15.7246 19.3516 16.0826C18.4872 16.4407 17.5607 16.625 16.625 16.625C15.6893 16.625 14.7628 16.4407 13.8984 16.0826C13.0339 15.7246 12.2485 15.1998 11.5869 14.5381C10.9252 13.8765 10.4004 13.0911 10.0424 12.2266C9.68429 11.3622 9.5 10.4357 9.5 9.5C9.5 7.61033 10.2507 5.79806 11.5869 4.46186C12.9231 3.12567 14.7353 2.375 16.625 2.375C18.5147 2.375 20.3269 3.12567 21.6631 4.46186C22.9993 5.79806 23.75 7.61033 23.75 9.5V9.5Z" stroke="#262626" stroke-width="4" stroke-linecap="round" stroke-linejoin="round"/>
</svg>
