<svg width="32" height="32" viewBox="0 0 32 32" fill="none" xmlns="http://www.w3.org/2000/svg">
<path fill-rule="evenodd" clip-rule="evenodd" d="M21.8549 5.60427C20.935 5.33782 19.9686 5.27268 19.0213 5.41329C18.074 5.5539 17.1681 5.89694 16.3653 6.41908C15.5625 6.94122 14.8816 7.6302 14.369 8.43911C13.8563 9.24803 13.524 10.1579 13.3946 11.1068C13.2652 12.0557 13.3417 13.0213 13.619 13.938C13.7613 14.4085 13.6332 14.9192 13.2856 15.2668L5.33356 23.2188L5.33341 26.6667H8.00008V25.3333C8.00008 24.597 8.59704 24 9.33342 24H10.6667V22.6667C10.6667 21.9303 11.2637 21.3333 12.0001 21.3333H14.1145L16.7333 18.7145C17.0812 18.3666 17.5926 18.2385 18.0634 18.3815C19.0598 18.684 20.1132 18.7489 21.1392 18.571C22.1652 18.393 23.1352 17.9772 23.9716 17.3569C24.808 16.7366 25.4874 15.929 25.9554 14.9988C26.4233 14.0688 26.6669 13.0423 26.6667 12.0013M13.3334 24V25.3333C13.3334 26.0697 12.7365 26.6667 12.0001 26.6667H10.6667V28C10.6667 28.7364 10.0698 29.3333 9.33342 29.3333H5.33341C4.62617 29.3333 3.9479 29.0524 3.4478 28.5523C2.9477 28.0522 2.66675 27.3739 2.66675 26.6667V23.2187C2.6669 22.5115 2.9479 21.8332 3.44794 21.3332L10.8641 13.917C10.6466 12.8762 10.6081 11.8039 10.7524 10.7464C10.9336 9.41797 11.3988 8.14416 12.1165 7.01167C12.8342 5.87919 13.7874 4.91463 14.9114 4.18363C16.0353 3.45264 17.3036 2.97237 18.6298 2.77552C19.956 2.57867 21.309 2.66987 22.5968 3.04289C23.8846 3.41591 25.077 4.06201 26.0926 4.93721C27.1083 5.81241 27.9235 6.89617 28.4828 8.11471C29.042 9.33325 29.3321 10.658 29.3334 11.9987C29.3338 13.4565 28.9928 14.8951 28.3375 16.1974C27.6823 17.4996 26.7311 18.6303 25.5602 19.4988C24.3893 20.3672 23.0312 20.9493 21.5948 21.1984C20.4283 21.4007 19.2364 21.3788 18.0825 21.1366L15.6096 23.6095C15.3595 23.8595 15.0204 24 14.6667 24H13.3334ZM26.6667 12.0013C26.6657 11.0439 26.4585 10.0971 26.0591 9.227C25.6597 8.35661 25.0774 7.5825 24.3519 6.95736C23.6264 6.33221 22.7748 5.87071 21.8549 5.60427M18.6667 9.33333C18.6667 8.59695 19.2637 8 20.0001 8C21.0609 8 22.0784 8.42143 22.8285 9.17157C23.5787 9.92172 24.0001 10.9391 24.0001 12C24.0001 12.7364 23.4031 13.3333 22.6667 13.3333C21.9304 13.3333 21.3334 12.7364 21.3334 12C21.3334 11.6464 21.1929 11.3072 20.9429 11.0572C20.6928 10.8071 20.3537 10.6667 20.0001 10.6667C19.2637 10.6667 18.6667 10.0697 18.6667 9.33333Z" fill="#B3B3B3"/>
</svg>
