<svg width="20" height="20" viewBox="0 0 20 20" fill="none" xmlns="http://www.w3.org/2000/svg">
<path fill-rule="evenodd" clip-rule="evenodd" d="M14.3911 2.20315C13.7012 2.00332 12.9764 1.95447 12.2659 2.05992C11.5554 2.16538 10.876 2.42266 10.2739 2.81427C9.6718 3.20587 9.16113 3.7226 8.77666 4.32929C8.39219 4.93598 8.14293 5.61838 8.04587 6.33004C7.9488 7.0417 8.00621 7.76593 8.21417 8.45342C8.32092 8.80633 8.22482 9.18935 7.96411 9.45006L2.00011 15.4141L2 18H4V17C4 16.4477 4.44772 16 5 16H6V15C6 14.4477 6.44771 14 7 14H8.58579L10.5499 12.0358C10.8109 11.7749 11.1944 11.6789 11.5475 11.7861C12.2948 12.013 13.0848 12.0616 13.8543 11.9282C14.6238 11.7947 15.3514 11.4829 15.9786 11.0176C16.6059 10.5524 17.1155 9.94668 17.4665 9.24903C17.8174 8.55159 18.0001 7.78166 18 7.00092M8 16V17C8 17.5522 7.55228 18 7 18H6V19C6 19.5522 5.55228 20 5 20H2C1.46957 20 0.96086 19.7892 0.585786 19.4142C0.210713 19.0391 0 18.5304 0 18V15.414C0.000113279 14.8836 0.210862 14.3748 0.585893 13.9998V13.9998L6.14803 8.43771C5.9849 7.65712 5.95604 6.85287 6.06422 6.05976C6.20011 5.06343 6.54906 4.10807 7.08732 3.25871C7.62559 2.40935 8.34052 1.68593 9.18348 1.13768C10.0264 0.589431 10.9776 0.229232 11.9723 0.0815955C12.9669 -0.0660404 13.9817 0.00235332 14.9476 0.282122C15.9134 0.56189 16.8077 1.04647 17.5694 1.70286C18.3312 2.35926 18.9426 3.17208 19.362 4.08599C19.7814 4.99989 19.999 5.99344 20 6.99899C20.0003 8.09236 19.7445 9.17127 19.2531 10.148C18.7617 11.1247 18.0483 11.9727 17.1701 12.624C16.2919 13.2754 15.2734 13.7119 14.1961 13.8988C13.3211 14.0505 12.4272 14.0341 11.5618 13.8524L9.70711 15.7071C9.51957 15.8946 9.26522 16 9 16H8ZM18 7.00092C17.9992 6.28289 17.8438 5.57279 17.5443 4.9202C17.2447 4.26741 16.808 3.68683 16.2639 3.21797C15.7198 2.74911 15.081 2.40299 14.3911 2.20315M12 4.99995C12 4.44767 12.4477 3.99995 13 3.99995C13.7956 3.99995 14.5587 4.31602 15.1213 4.87863C15.6839 5.44124 16 6.2043 16 6.99995C16 7.55224 15.5523 7.99995 15 7.99995C14.4477 7.99995 14 7.55224 14 6.99995C14 6.73474 13.8946 6.48038 13.7071 6.29285C13.5196 6.10531 13.2652 5.99995 13 5.99995C12.4477 5.99995 12 5.55224 12 4.99995Z" fill="#B3B3B3"/>
</svg>
