<svg width="42" height="42" viewBox="0 0 42 42" fill="none" xmlns="http://www.w3.org/2000/svg">
<path fill-rule="evenodd" clip-rule="evenodd" d="M5.50376 7.875C5.50376 7.02931 6.18932 6.34375 7.03501 6.34375H34.965C35.8107 6.34375 36.4963 7.02931 36.4963 7.875V26.0024L39.0651 33.1084C39.2347 33.5777 39.165 34.1002 38.8784 34.5087C38.5917 34.9171 38.124 35.1603 37.625 35.1603H4.37501C3.87601 35.1603 3.40831 34.9171 3.12164 34.5087C2.83498 34.1002 2.76532 33.5777 2.93496 33.1084L5.50376 26.0024V7.875ZM8.1097 27.802L6.55678 32.0978H35.4432L33.8903 27.802H8.1097ZM33.4338 24.7395V9.40625H8.56626V24.7395H33.4338Z" fill="#262626"/>
</svg>
