<svg width="32" height="32" viewBox="0 0 32 32" fill="none" xmlns="http://www.w3.org/2000/svg">
<path d="M17.8135 22.6667C17.6339 22.666 17.4563 22.629 17.2913 22.558C17.1263 22.487 16.9774 22.3833 16.8535 22.2533L11.7068 16.92C11.4625 16.6708 11.3257 16.3357 11.3257 15.9867C11.3257 15.6377 11.4625 15.3026 11.7068 15.0533L17.0402 9.72C17.1645 9.59569 17.3121 9.49707 17.4745 9.42979C17.6369 9.36251 17.811 9.32788 17.9868 9.32788C18.1626 9.32788 18.3367 9.36251 18.4992 9.42979C18.6616 9.49707 18.8092 9.59569 18.9335 9.72C19.0578 9.84432 19.1564 9.99191 19.2237 10.1543C19.291 10.3168 19.3256 10.4909 19.3256 10.6667C19.3256 10.8425 19.291 11.0166 19.2237 11.179C19.1564 11.3414 19.0578 11.489 18.9335 11.6133L14.5335 16L18.7735 20.4C19.0218 20.6498 19.1612 20.9878 19.1612 21.34C19.1612 21.6922 19.0218 22.0302 18.7735 22.28C18.6473 22.4052 18.4974 22.5039 18.3325 22.5703C18.1677 22.6367 17.9912 22.6695 17.8135 22.6667Z" fill="#262626"/>
</svg>
