<svg width="42" height="42" viewBox="0 0 42 42" fill="none" xmlns="http://www.w3.org/2000/svg">
<path d="M38.0288 3.5H3.97115C3.15 3.5 2.36248 3.83523 1.78184 4.43193C1.2012 5.02864 0.875 5.83795 0.875 6.68182V35.3182C0.875 36.162 1.2012 36.9714 1.78184 37.5681C2.36248 38.1648 3.15 38.5 3.97115 38.5H6.56418C6.85732 38.5008 7.14451 38.4151 7.39154 38.2529C7.63856 38.0907 7.835 37.8589 7.95745 37.5852C8.71491 35.9561 9.90554 34.5806 11.3917 33.6177C12.8779 32.6548 14.5989 32.1438 16.3558 32.1438C18.1127 32.1438 19.8337 32.6548 21.3198 33.6177C22.806 34.5806 23.9966 35.9561 24.7541 37.5852C24.8765 37.8589 25.073 38.0907 25.32 38.2529C25.567 38.4151 25.8542 38.5008 26.1474 38.5H38.0288C38.85 38.5 39.6375 38.1648 40.2182 37.5681C40.7988 36.9714 41.125 36.162 41.125 35.3182V6.68182C41.125 5.83795 40.7988 5.02864 40.2182 4.43193C39.6375 3.83523 38.85 3.5 38.0288 3.5V3.5ZM16.3558 28.9545C15.131 28.9545 13.9338 28.5813 12.9155 27.8821C11.8972 27.1828 11.1035 26.189 10.6348 25.0262C10.1661 23.8634 10.0435 22.5838 10.2824 21.3494C10.5214 20.115 11.1111 18.9811 11.9771 18.0911C12.8432 17.2012 13.9465 16.5951 15.1477 16.3495C16.3489 16.104 17.594 16.23 18.7255 16.7117C19.857 17.1933 20.8241 18.009 21.5045 19.0555C22.1849 20.102 22.5481 21.3323 22.5481 22.5909C22.543 24.277 21.8889 25.8926 20.7288 27.0849C19.5686 28.2772 17.9965 28.9493 16.3558 28.9545ZM38.0288 35.3182H27.0762C26.4055 34.1228 25.5492 33.048 24.5412 32.1364H33.3846C33.7952 32.1364 34.189 31.9687 34.4793 31.6704C34.7696 31.372 34.9327 30.9674 34.9327 30.5454V11.4545C34.9327 11.0326 34.7696 10.628 34.4793 10.3296C34.189 10.0312 33.7952 9.86364 33.3846 9.86364H8.61538C8.20481 9.86364 7.81105 10.0312 7.52073 10.3296C7.23041 10.628 7.06731 11.0326 7.06731 11.4545V30.5454C7.06927 30.8966 7.18422 31.2372 7.39424 31.5142C7.60425 31.7911 7.89753 31.9889 8.22837 32.0767C7.19597 33.0028 6.3198 34.0981 5.63534 35.3182H3.97115V6.68182H38.0288V35.3182Z" fill="#262626"/>
</svg>
