<svg width="22" height="22" viewBox="0 0 22 22" fill="none" xmlns="http://www.w3.org/2000/svg">
<path d="M10.9998 1.83333C9.06756 1.83324 7.21332 2.59578 5.84014 3.95522C4.46697 5.31467 3.68583 7.16115 3.6665 9.09333C3.6665 14.1167 10.129 19.7083 10.404 19.9467C10.57 20.0887 10.7813 20.1667 10.9998 20.1667C11.2183 20.1667 11.4296 20.0887 11.5957 19.9467C11.9165 19.7083 18.3332 14.1167 18.3332 9.09333C18.3138 7.16115 17.5327 5.31467 16.1595 3.95522C14.7864 2.59578 12.9321 1.83324 10.9998 1.83333ZM10.9998 18.0125C9.469 16.555 5.49984 12.5125 5.49984 9.09333C5.49984 7.63464 6.0793 6.23569 7.11075 5.20424C8.1422 4.17279 9.54115 3.59333 10.9998 3.59333C12.4585 3.59333 13.8575 4.17279 14.8889 5.20424C15.9204 6.23569 16.4998 7.63464 16.4998 9.09333C16.4998 12.485 12.5307 16.555 10.9998 18.0125Z" fill="#262626"/>
<path d="M10.9998 5.5C10.3653 5.5 9.74499 5.68817 9.21738 6.0407C8.68978 6.39324 8.27856 6.89431 8.03573 7.48056C7.79289 8.0668 7.72936 8.71189 7.85315 9.33425C7.97695 9.9566 8.28251 10.5283 8.7312 10.977C9.1799 11.4257 9.75157 11.7312 10.3739 11.855C10.9963 11.9788 11.6414 11.9153 12.2276 11.6724C12.8139 11.4296 13.3149 11.0184 13.6675 10.4908C14.02 9.96318 14.2082 9.34288 14.2082 8.70833C14.2082 7.85743 13.8702 7.04138 13.2685 6.4397C12.6668 5.83802 11.8507 5.5 10.9998 5.5ZM10.9998 10.0833C10.7279 10.0833 10.462 10.0027 10.2359 9.8516C10.0098 9.70052 9.83358 9.48577 9.7295 9.23452C9.62543 8.98327 9.5982 8.70681 9.65126 8.44008C9.70431 8.17336 9.83527 7.92836 10.0276 7.73606C10.2199 7.54376 10.4649 7.41281 10.7316 7.35975C10.9983 7.3067 11.2748 7.33393 11.526 7.438C11.7773 7.54207 11.992 7.71831 12.1431 7.94442C12.2942 8.17054 12.3748 8.43638 12.3748 8.70833C12.3748 9.07301 12.23 9.42274 11.9721 9.6806C11.7142 9.93847 11.3645 10.0833 10.9998 10.0833Z" fill="#262626"/>
</svg>
