<svg width="26" height="40" viewBox="0 0 26 40" fill="none" xmlns="http://www.w3.org/2000/svg">
<path fill-rule="evenodd" clip-rule="evenodd" d="M12.9986 0.84159C12.6379 0.957261 12.0864 1.53667 11.9747 1.91723C11.9066 2.14947 11.8845 3.6429 11.886 7.89634L11.8881 13.5659L12.4476 13.8035L13.007 14.041L13.5415 13.7916C13.8355 13.6545 14.3352 13.4814 14.6519 13.4071L15.2278 13.2721V7.74938C15.2278 3.61695 15.2049 2.14887 15.137 1.91723C15.0824 1.73124 14.9118 1.47177 14.7097 1.26712C14.228 0.779618 13.6442 0.634464 12.9986 0.84159ZM7.4255 3.09786C7.06489 3.21353 6.51338 3.79294 6.4017 4.1735C6.3343 4.40326 6.3109 5.71724 6.3109 9.27019V14.0573L6.69937 13.8581C7.47997 13.4577 8.60015 13.1522 9.28802 13.1522H9.65472V8.81765C9.65472 5.62127 9.63087 4.40176 9.56392 4.1735C9.5093 3.98751 9.33877 3.72804 9.13665 3.52339C8.65499 3.03589 8.07116 2.89073 7.4255 3.09786ZM18.5716 3.09786C18.211 3.21353 17.6595 3.79294 17.5478 4.1735C17.4808 4.40191 17.457 5.62864 17.457 8.85232V13.2217L17.7728 13.3034C17.9464 13.3484 18.1856 13.4174 18.304 13.4568C18.6485 13.5712 18.6801 13.5495 18.7768 13.1334C18.989 12.2214 19.6896 11.1678 20.4157 10.669L20.797 10.4071L20.7989 7.44509C20.8003 5.3251 20.775 4.39506 20.71 4.1735C20.6554 3.98751 20.4849 3.72804 20.2827 3.52339C19.8011 3.03589 19.2173 2.89073 18.5716 3.09786ZM1.85246 7.6104C1.46896 7.73337 0.935061 8.30698 0.82412 8.71514C0.752934 8.9771 0.738072 10.9354 0.758284 17.4016C0.781245 24.7751 0.798633 25.8288 0.907344 26.4266C1.41055 29.1939 2.51454 31.352 4.38975 33.2339L5.18997 34.037L5.21167 36.2862C5.23285 38.4746 5.2379 38.5416 5.39914 38.7705C5.75552 39.276 5.33896 39.2498 12.9986 39.2498C20.6581 39.2498 20.2416 39.276 20.598 38.7705C20.7593 38.5414 20.7643 38.4755 20.7853 36.2621L20.807 33.9888L21.1838 33.6674C21.64 33.2781 22.6557 32.0983 23.1117 31.428C24.23 29.784 24.986 27.6971 25.1822 25.7121C25.2407 25.1206 25.2604 23.0887 25.2449 19.2818C25.2223 13.7704 25.2205 13.7129 25.0624 13.3667C24.8578 12.9186 24.3734 12.429 23.9328 12.2249C23.6781 12.1069 23.4408 12.0648 23.03 12.0648C22.3538 12.0648 21.9257 12.2394 21.4696 12.701C21.0444 13.1313 20.8574 13.5883 20.8158 14.2987L20.7818 14.8809L21.2557 15.3934C22.6497 16.9006 23.2819 19.116 22.9192 21.2218C22.5528 23.3483 21.383 25.0664 18.7155 27.3958C15.9519 29.8092 14.7173 30.7608 14.0644 30.9807C13.1405 31.2919 11.9711 31.1536 11.2086 30.6429C10.8695 30.4157 8.22394 28.2301 7.21915 27.347C4.88665 25.2968 3.7337 23.7292 3.22335 21.9141C2.7512 20.2346 2.98869 18.1553 3.82606 16.6373L4.08168 16.1738V12.5847C4.08168 9.97572 4.05686 8.91106 3.99087 8.68604C3.93626 8.50004 3.76572 8.24057 3.56361 8.03593C3.08195 7.54843 2.49811 7.40327 1.85246 7.6104ZM8.54011 15.5276C6.46263 16.0823 5.0794 18.0847 5.21925 20.3347C5.31287 21.8399 6.00958 23.0869 7.65771 24.6986C8.37775 25.4028 11.9564 28.4376 12.4331 28.7483C12.7754 28.9713 13.2883 28.9355 13.6786 28.6613C14.3118 28.2165 17.729 25.3068 18.4111 24.6317C19.5992 23.4557 20.272 22.4657 20.5902 21.4252C20.8337 20.6291 20.8338 19.4395 20.5905 18.6425C20.1606 17.2339 19.1045 16.0937 17.8007 15.6302C17.2304 15.4276 16.0384 15.3524 15.428 15.4807C14.7786 15.6171 13.9177 16.089 13.423 16.5797L12.9929 17.0063L12.5286 16.5551C12.0216 16.0622 11.3782 15.6948 10.7171 15.5205C10.1845 15.3801 9.07892 15.3837 8.54011 15.5276Z" fill="#262626"/>
</svg>
