<svg width="80" height="26" viewBox="0 0 80 26" fill="none" xmlns="http://www.w3.org/2000/svg">
<rect width="80" height="26" rx="4" fill="#FF6656"/>
<path d="M30.2181 18V9.432H30.9141V17.376H34.9221V18H30.2181ZM41.6499 14.808C41.6499 15.304 41.5859 15.756 41.4579 16.164C41.3379 16.564 41.1539 16.912 40.9059 17.208C40.6659 17.496 40.3659 17.72 40.0059 17.88C39.6459 18.04 39.2339 18.12 38.7699 18.12C38.3299 18.12 37.9339 18.044 37.5819 17.892C37.2379 17.732 36.9419 17.508 36.6939 17.22C36.4459 16.924 36.2579 16.572 36.1299 16.164C36.0019 15.756 35.9379 15.304 35.9379 14.808C35.9379 14.112 36.0499 13.52 36.2739 13.032C36.5059 12.536 36.8379 12.156 37.2699 11.892C37.7099 11.628 38.2299 11.496 38.8299 11.496C39.4379 11.496 39.9499 11.636 40.3659 11.916C40.7899 12.188 41.1099 12.572 41.3259 13.068C41.5419 13.564 41.6499 14.144 41.6499 14.808ZM36.6459 14.808C36.6459 15.352 36.7219 15.832 36.8739 16.248C37.0259 16.656 37.2619 16.972 37.5819 17.196C37.9019 17.42 38.3019 17.532 38.7819 17.532C39.2779 17.532 39.6859 17.42 40.0059 17.196C40.3259 16.964 40.5619 16.644 40.7139 16.236C40.8659 15.82 40.9419 15.344 40.9419 14.808C40.9419 14.272 40.8699 13.8 40.7259 13.392C40.5819 12.984 40.3539 12.664 40.0419 12.432C39.7299 12.2 39.3219 12.084 38.8179 12.084C38.0899 12.084 37.5459 12.324 37.1859 12.804C36.8259 13.284 36.6459 13.952 36.6459 14.808ZM47.0177 13.848C46.9777 13.712 46.9377 13.58 46.8977 13.452C46.8657 13.324 46.8337 13.204 46.8017 13.092C46.7697 12.972 46.7377 12.856 46.7057 12.744C46.6737 12.632 46.6457 12.528 46.6217 12.432H46.5857C46.5617 12.528 46.5337 12.632 46.5017 12.744C46.4777 12.856 46.4497 12.976 46.4177 13.104C46.3857 13.224 46.3497 13.348 46.3097 13.476C46.2777 13.596 46.2417 13.724 46.2017 13.86L44.8457 18H44.1257L42.3257 11.616H43.0337L44.1137 15.564C44.1777 15.804 44.2337 16.024 44.2817 16.224C44.3297 16.416 44.3737 16.596 44.4137 16.764C44.4537 16.924 44.4817 17.072 44.4977 17.208H44.5337C44.5577 17.112 44.5817 17.008 44.6057 16.896C44.6377 16.776 44.6697 16.652 44.7017 16.524C44.7337 16.396 44.7697 16.26 44.8097 16.116C44.8577 15.964 44.9057 15.812 44.9537 15.66L46.2737 11.616H46.9817L48.2417 15.648C48.3057 15.84 48.3617 16.032 48.4097 16.224C48.4657 16.408 48.5137 16.584 48.5537 16.752C48.6017 16.912 48.6377 17.064 48.6617 17.208H48.6977C48.7137 17.072 48.7377 16.924 48.7697 16.764C48.8097 16.596 48.8537 16.412 48.9017 16.212C48.9577 16.012 49.0177 15.796 49.0817 15.564L50.1257 11.616H50.8217L49.0817 18H48.3257L47.0177 13.848Z" fill="#262626"/>
</svg>
