<svg width="42" height="26" viewBox="0 0 42 26" fill="none" xmlns="http://www.w3.org/2000/svg">
<rect width="42" height="26" rx="4" fill="#FF6656"/>
<path d="M11.2301 18V9.432H11.9261V17.376H15.9341V18H11.2301ZM22.6499 14.808C22.6499 15.304 22.5859 15.756 22.4579 16.164C22.3379 16.564 22.1539 16.912 21.9059 17.208C21.6659 17.496 21.3659 17.72 21.0059 17.88C20.6459 18.04 20.2339 18.12 19.7699 18.12C19.3299 18.12 18.9339 18.044 18.5819 17.892C18.2379 17.732 17.9419 17.508 17.6939 17.22C17.4459 16.924 17.2579 16.572 17.1299 16.164C17.0019 15.756 16.9379 15.304 16.9379 14.808C16.9379 14.112 17.0499 13.52 17.2739 13.032C17.5059 12.536 17.8379 12.156 18.2699 11.892C18.7099 11.628 19.2299 11.496 19.8299 11.496C20.4379 11.496 20.9499 11.636 21.3659 11.916C21.7899 12.188 22.1099 12.572 22.3259 13.068C22.5419 13.564 22.6499 14.144 22.6499 14.808ZM17.6459 14.808C17.6459 15.352 17.7219 15.832 17.8739 16.248C18.0259 16.656 18.2619 16.972 18.5819 17.196C18.9019 17.42 19.3019 17.532 19.7819 17.532C20.2779 17.532 20.6859 17.42 21.0059 17.196C21.3259 16.964 21.5619 16.644 21.7139 16.236C21.8659 15.82 21.9419 15.344 21.9419 14.808C21.9419 14.272 21.8699 13.8 21.7259 13.392C21.5819 12.984 21.3539 12.664 21.0419 12.432C20.7299 12.2 20.3219 12.084 19.8179 12.084C19.0899 12.084 18.5459 12.324 18.1859 12.804C17.8259 13.284 17.6459 13.952 17.6459 14.808ZM28.0057 13.848C27.9657 13.712 27.9257 13.58 27.8857 13.452C27.8537 13.324 27.8217 13.204 27.7897 13.092C27.7577 12.972 27.7257 12.856 27.6937 12.744C27.6617 12.632 27.6337 12.528 27.6097 12.432H27.5737C27.5497 12.528 27.5217 12.632 27.4897 12.744C27.4657 12.856 27.4377 12.976 27.4057 13.104C27.3737 13.224 27.3377 13.348 27.2977 13.476C27.2657 13.596 27.2297 13.724 27.1897 13.86L25.8337 18H25.1137L23.3137 11.616H24.0217L25.1017 15.564C25.1657 15.804 25.2217 16.024 25.2697 16.224C25.3177 16.416 25.3617 16.596 25.4017 16.764C25.4417 16.924 25.4697 17.072 25.4857 17.208H25.5217C25.5457 17.112 25.5697 17.008 25.5937 16.896C25.6257 16.776 25.6577 16.652 25.6897 16.524C25.7217 16.396 25.7577 16.26 25.7977 16.116C25.8457 15.964 25.8937 15.812 25.9417 15.66L27.2617 11.616H27.9697L29.2297 15.648C29.2937 15.84 29.3497 16.032 29.3977 16.224C29.4537 16.408 29.5017 16.584 29.5417 16.752C29.5897 16.912 29.6257 17.064 29.6497 17.208H29.6857C29.7017 17.072 29.7257 16.924 29.7577 16.764C29.7977 16.596 29.8417 16.412 29.8897 16.212C29.9457 16.012 30.0057 15.796 30.0697 15.564L31.1137 11.616H31.8097L30.0697 18H29.3137L28.0057 13.848Z" fill="#262626"/>
</svg>
