<svg width="42" height="42" viewBox="0 0 42 42" fill="none" xmlns="http://www.w3.org/2000/svg">
<path fill-rule="evenodd" clip-rule="evenodd" d="M21.3016 6.65876C21.9732 6.93143 22.2966 7.69694 22.024 8.36858C21.5075 9.64077 21.4049 10.4994 21.4455 11.1283C21.4866 11.7643 21.6772 12.2726 21.9448 12.9137L22.003 13.0523C22.2536 13.648 22.577 14.4166 22.674 15.3416C22.7829 16.38 22.6064 17.5175 22.0132 18.8942C21.7264 19.5599 20.9542 19.8671 20.2885 19.5802C19.6228 19.2934 19.3157 18.5212 19.6025 17.8555C20.0557 16.8035 20.1162 16.1195 20.0633 15.6154C20.0079 15.0872 19.8254 14.6502 19.5476 13.9851L19.5225 13.925C19.2421 13.2536 18.8972 12.4003 18.826 11.2974C18.7543 10.1876 18.9628 8.93025 19.5918 7.38114C19.8644 6.70951 20.6299 6.38609 21.3016 6.65876ZM14.9288 12.0576C15.3059 11.4385 15.1096 10.6309 14.4905 10.2539C13.8714 9.8769 13.0639 10.0731 12.6868 10.6923C12.018 11.7906 11.7376 12.7796 11.8293 13.7268C11.9181 14.644 12.3476 15.3308 12.6212 15.7678C12.9391 16.2754 13.0415 16.4535 13.0721 16.6479C13.0885 16.7526 13.1106 17.0357 12.7055 17.6625C12.3121 18.2713 12.4866 19.0838 13.0954 19.4772C13.7042 19.8707 14.5167 19.6961 14.9102 19.0873C15.5515 18.095 15.8105 17.1638 15.6652 16.2401C15.5449 15.4755 15.1499 14.8535 14.9077 14.4722C14.8858 14.4377 14.8651 14.4051 14.846 14.3746C14.5717 13.9366 14.4655 13.7157 14.4421 13.4738C14.4216 13.2618 14.4523 12.8401 14.9288 12.0576ZM5.25 26.2499H6.72247C8.1639 30.3281 12.0532 33.2499 16.625 33.2499H25.375C29.9468 33.2499 33.8361 30.3281 35.2775 26.2499H36.75C37.7165 26.2499 38.5 25.4664 38.5 24.4999C38.5 23.5334 37.7165 22.7499 36.75 22.7499H5.25C4.2835 22.7499 3.5 23.5334 3.5 24.4999C3.5 25.4664 4.2835 26.2499 5.25 26.2499ZM25.375 29.7499C27.9621 29.7499 30.2276 28.3451 31.4396 26.2499H10.5604C11.7724 28.3451 14.0379 29.7499 16.625 29.7499H25.375ZM28.9288 12.0576C29.3059 11.4385 29.1096 10.6309 28.4905 10.2539C27.8714 9.8769 27.0639 10.0731 26.6868 10.6923C26.018 11.7906 25.7376 12.7796 25.8293 13.7268C25.9181 14.644 26.3476 15.3308 26.6212 15.7678C26.9391 16.2754 27.0415 16.4535 27.0721 16.6479C27.0885 16.7526 27.1106 17.0357 26.7055 17.6625C26.3121 18.2713 26.4866 19.0838 27.0954 19.4772C27.7042 19.8707 28.5167 19.6961 28.9102 19.0873C29.5515 18.095 29.8105 17.1638 29.6652 16.2401C29.5449 15.4755 29.1499 14.8535 28.9077 14.4722C28.8858 14.4377 28.8651 14.4051 28.846 14.3746C28.5717 13.9366 28.4655 13.7157 28.4421 13.4738C28.4216 13.2618 28.4523 12.8401 28.9288 12.0576Z" fill="#262626"/>
</svg>
