<svg width="42" height="42" viewBox="0 0 42 42" fill="none" xmlns="http://www.w3.org/2000/svg">
<path d="M19.1625 32.025H22.8375V26.5125H28.35V22.8375H22.8375V17.325H19.1625V22.8375H13.65V26.5125H19.1625V32.025ZM6.3 39.375C5.28937 39.375 4.42453 39.0155 3.70545 38.2964C2.98515 37.5761 2.625 36.7106 2.625 35.7V13.65C2.625 12.6394 2.98515 11.7745 3.70545 11.0554C4.42453 10.3351 5.28937 9.975 6.3 9.975H13.65V6.3C13.65 5.28937 14.0102 4.42391 14.7305 3.70361C15.4495 2.98454 16.3144 2.625 17.325 2.625H24.675C25.6856 2.625 26.5511 2.98454 27.2714 3.70361C27.9905 4.42391 28.35 5.28937 28.35 6.3V9.975H35.7C36.7106 9.975 37.5761 10.3351 38.2964 11.0554C39.0155 11.7745 39.375 12.6394 39.375 13.65V35.7C39.375 36.7106 39.0155 37.5761 38.2964 38.2964C37.5761 39.0155 36.7106 39.375 35.7 39.375H6.3ZM6.3 35.7H35.7V13.65H6.3V35.7ZM17.325 9.975H24.675V6.3H17.325V9.975ZM6.3 35.7V13.65V35.7Z" fill="#262626"/>
</svg>
