<svg width="42" height="42" viewBox="0 0 42 42" fill="none" xmlns="http://www.w3.org/2000/svg">
<path d="M4.9 36.75C3.79313 36.75 2.84591 36.3648 2.05835 35.5943C1.26945 34.8226 0.875 33.8953 0.875 32.8125V9.1875C0.875 8.10469 1.26945 7.17806 2.05835 6.40762C2.84591 5.63587 3.79313 5.25 4.9 5.25H37.1C38.2069 5.25 39.1548 5.63587 39.9437 6.40762C40.7312 7.17806 41.125 8.10469 41.125 9.1875V32.8125C41.125 33.8953 40.7312 34.8226 39.9437 35.5943C39.1548 36.3648 38.2069 36.75 37.1 36.75H4.9ZM4.9 32.8125H25.025V9.1875H4.9V32.8125ZM29.05 32.8125H37.1V9.1875H29.05V32.8125ZM31.0625 15.0938H35.0875V11.1562H31.0625V15.0938ZM33.075 22.9688C33.6452 22.9688 34.1228 22.7797 34.5079 22.4017C34.8943 22.0251 35.0875 21.5578 35.0875 21C35.0875 20.4422 34.8943 19.9743 34.5079 19.5963C34.1228 19.2196 33.6452 19.0312 33.075 19.0312C32.5048 19.0312 32.0272 19.2196 31.6421 19.5963C31.2557 19.9743 31.0625 20.4422 31.0625 21C31.0625 21.5578 31.2557 22.0251 31.6421 22.4017C32.0272 22.7797 32.5048 22.9688 33.075 22.9688ZM33.075 30.8438C33.6452 30.8438 34.1228 30.6547 34.5079 30.2767C34.8943 29.9001 35.0875 29.4328 35.0875 28.875C35.0875 28.3172 34.8943 27.8493 34.5079 27.4713C34.1228 27.0946 33.6452 26.9062 33.075 26.9062C32.5048 26.9062 32.0272 27.0946 31.6421 27.4713C31.2557 27.8493 31.0625 28.3172 31.0625 28.875C31.0625 29.4328 31.2557 29.9001 31.6421 30.2767C32.0272 30.6547 32.5048 30.8438 33.075 30.8438ZM20.3459 28.0875C19.9434 28.3172 19.5074 28.5055 19.0378 28.6525C18.5682 28.8008 18.0483 28.875 17.4781 28.875C16.6731 28.875 15.9775 28.7273 15.3912 28.432C14.8035 28.1367 14.2917 27.8578 13.8556 27.5953C13.5202 27.3656 13.2519 27.193 13.0506 27.0775C12.8494 26.9633 12.6481 26.9062 12.4469 26.9062C12.4804 26.9062 12.2121 26.9883 11.6419 27.1523C11.1723 27.3492 10.6859 27.407 10.1828 27.3256C9.67969 27.2429 9.27719 26.9883 8.97531 26.5617C8.70698 26.1352 8.5983 25.643 8.64929 25.0852C8.69893 24.5273 9.00885 24.0844 9.57906 23.7562C9.98156 23.5266 10.4176 23.3382 10.8872 23.1912C11.3568 23.0429 11.8767 22.9688 12.4469 22.9688C13.2519 22.9688 13.9475 23.1249 14.5338 23.4373C15.1215 23.7484 15.6333 24.0352 16.0694 24.2977C16.3713 24.4945 16.6396 24.6501 16.8744 24.7642C17.1092 24.8797 17.3104 24.9375 17.4781 24.9375C17.5117 24.9375 17.7465 24.8719 18.1825 24.7406C18.7527 24.4781 19.2726 24.3876 19.7422 24.4689C20.2118 24.5516 20.5807 24.7734 20.8491 25.1344C21.1845 25.5938 21.3186 26.1266 21.2516 26.733C21.1845 27.3407 20.8826 27.7922 20.3459 28.0875V28.0875ZM20.195 18.293C19.826 18.4898 19.4068 18.6618 18.9372 18.8088C18.4676 18.9571 17.9813 19.0312 17.4781 19.0312C16.6731 19.0312 15.9775 18.8836 15.3912 18.5883C14.8035 18.293 14.2917 18.0141 13.8556 17.7516C13.5202 17.5219 13.2519 17.3493 13.0506 17.2338C12.8494 17.1196 12.6481 17.0625 12.4469 17.0625C12.3798 17.0625 12.0779 17.1609 11.5413 17.3578C11.0381 17.6203 10.5605 17.6938 10.1083 17.5783C9.65487 17.4641 9.31073 17.2266 9.07594 16.8656C8.70698 16.3078 8.60635 15.7251 8.77406 15.1174C8.94177 14.511 9.27719 14.0766 9.78031 13.8141C10.1493 13.6172 10.5598 13.4531 11.012 13.3219C11.4654 13.1906 11.9438 13.125 12.4469 13.125C13.2519 13.125 13.9475 13.2812 14.5338 13.5936C15.1215 13.9046 15.6333 14.1914 16.0694 14.4539C16.3713 14.6508 16.6396 14.8063 16.8744 14.9205C17.1092 15.036 17.3104 15.0938 17.4781 15.0938C17.5452 15.0938 17.8303 15.0117 18.3334 14.8477C18.803 14.618 19.2726 14.5438 19.7422 14.6252C20.2118 14.7079 20.5807 14.9297 20.8491 15.2906C21.218 15.8484 21.3354 16.4227 21.2013 17.0133C21.0671 17.6039 20.7317 18.0305 20.195 18.293V18.293ZM29.05 32.8125V9.1875V32.8125Z" fill="#262626"/>
</svg>
