<svg width="42" height="32" viewBox="0 0 42 32" fill="none" xmlns="http://www.w3.org/2000/svg">
<path d="M4.9 31.75C3.79313 31.75 2.84591 31.3648 2.05835 30.5943C1.26945 29.8226 0.875 28.8953 0.875 27.8125V4.1875C0.875 3.10469 1.26945 2.17806 2.05835 1.40762C2.84591 0.635875 3.79313 0.25 4.9 0.25H37.1C38.2069 0.25 39.1548 0.635875 39.9437 1.40762C40.7312 2.17806 41.125 3.10469 41.125 4.1875V27.8125C41.125 28.8953 40.7312 29.8226 39.9437 30.5943C39.1548 31.3648 38.2069 31.75 37.1 31.75H4.9ZM4.9 27.8125H25.025V4.1875H4.9V27.8125ZM29.05 27.8125H37.1V4.1875H29.05V27.8125ZM31.0625 10.0938H35.0875V6.15625H31.0625V10.0938ZM33.075 17.9688C33.6452 17.9688 34.1228 17.7797 34.5079 17.4018C34.8943 17.0251 35.0875 16.5578 35.0875 16C35.0875 15.4422 34.8943 14.9743 34.5079 14.5963C34.1228 14.2196 33.6452 14.0312 33.075 14.0312C32.5048 14.0312 32.0272 14.2196 31.6421 14.5963C31.2557 14.9743 31.0625 15.4422 31.0625 16C31.0625 16.5578 31.2557 17.0251 31.6421 17.4018C32.0272 17.7797 32.5048 17.9688 33.075 17.9688ZM33.075 25.8438C33.6452 25.8438 34.1228 25.6547 34.5079 25.2768C34.8943 24.9001 35.0875 24.4328 35.0875 23.875C35.0875 23.3172 34.8943 22.8493 34.5079 22.4713C34.1228 22.0946 33.6452 21.9062 33.075 21.9062C32.5048 21.9062 32.0272 22.0946 31.6421 22.4713C31.2557 22.8493 31.0625 23.3172 31.0625 23.875C31.0625 24.4328 31.2557 24.9001 31.6421 25.2768C32.0272 25.6547 32.5048 25.8438 33.075 25.8438ZM20.3459 23.0875C19.9434 23.3172 19.5074 23.5055 19.0378 23.6525C18.5682 23.8008 18.0483 23.875 17.4781 23.875C16.6731 23.875 15.9775 23.7273 15.3912 23.432C14.8035 23.1367 14.2917 22.8578 13.8556 22.5953C13.5202 22.3656 13.2519 22.193 13.0506 22.0775C12.8494 21.9633 12.6481 21.9062 12.4469 21.9062C12.4804 21.9062 12.2121 21.9883 11.6419 22.1523C11.1723 22.3492 10.6859 22.407 10.1828 22.3256C9.67969 22.2429 9.27719 21.9883 8.97531 21.5617C8.70698 21.1352 8.5983 20.643 8.64929 20.0852C8.69893 19.5273 9.00885 19.0844 9.57906 18.7562C9.98156 18.5266 10.4176 18.3382 10.8872 18.1912C11.3568 18.0429 11.8767 17.9688 12.4469 17.9688C13.2519 17.9688 13.9475 18.1249 14.5338 18.4373C15.1215 18.7484 15.6333 19.0352 16.0694 19.2977C16.3713 19.4945 16.6396 19.6501 16.8744 19.7642C17.1092 19.8797 17.3104 19.9375 17.4781 19.9375C17.5117 19.9375 17.7465 19.8719 18.1825 19.7406C18.7527 19.4781 19.2726 19.3876 19.7422 19.4689C20.2118 19.5516 20.5807 19.7734 20.8491 20.1344C21.1845 20.5938 21.3186 21.1266 21.2516 21.733C21.1845 22.3407 20.8826 22.7922 20.3459 23.0875ZM20.195 13.293C19.826 13.4898 19.4068 13.6618 18.9372 13.8088C18.4676 13.9571 17.9813 14.0312 17.4781 14.0312C16.6731 14.0312 15.9775 13.8836 15.3912 13.5883C14.8035 13.293 14.2917 13.0141 13.8556 12.7516C13.5202 12.5219 13.2519 12.3493 13.0506 12.2338C12.8494 12.1196 12.6481 12.0625 12.4469 12.0625C12.3798 12.0625 12.0779 12.1609 11.5413 12.3578C11.0381 12.6203 10.5605 12.6938 10.1083 12.5783C9.65487 12.4641 9.31073 12.2266 9.07594 11.8656C8.70698 11.3078 8.60635 10.7251 8.77406 10.1174C8.94177 9.511 9.27719 9.07656 9.78031 8.81406C10.1493 8.61719 10.5598 8.45313 11.012 8.32188C11.4654 8.19063 11.9438 8.125 12.4469 8.125C13.2519 8.125 13.9475 8.28119 14.5338 8.59356C15.1215 8.90462 15.6333 9.19141 16.0694 9.45391C16.3713 9.65078 16.6396 9.80631 16.8744 9.9205C17.1092 10.036 17.3104 10.0938 17.4781 10.0938C17.5452 10.0938 17.8303 10.0117 18.3334 9.84766C18.803 9.61797 19.2726 9.54381 19.7422 9.62519C20.2118 9.70788 20.5807 9.92969 20.8491 10.2906C21.218 10.8484 21.3354 11.4227 21.2013 12.0133C21.0671 12.6039 20.7317 13.0305 20.195 13.293ZM29.05 27.8125V4.1875V27.8125Z" fill="#262626"/>
</svg>
