<svg width="22" height="36" viewBox="0 0 22 36" fill="none" xmlns="http://www.w3.org/2000/svg">
<path d="M17.5625 0.5C18.6068 0.5 19.6083 0.914842 20.3467 1.65327C21.0852 2.39169 21.5 3.39321 21.5 4.4375V31.5625C21.5 32.6068 21.0852 33.6083 20.3467 34.3467C19.6083 35.0852 18.6068 35.5 17.5625 35.5H4.4375C3.39321 35.5 2.39169 35.0852 1.65327 34.3467C0.914843 33.6083 0.5 32.6068 0.5 31.5625V4.4375C0.5 3.39321 0.914843 2.39169 1.65327 1.65327C2.39169 0.914842 3.39321 0.5 4.4375 0.5H17.5625ZM17.5625 3.125H4.4375C4.0894 3.125 3.75556 3.26328 3.50942 3.50942C3.26328 3.75556 3.125 4.0894 3.125 4.4375V31.5625C3.125 32.287 3.713 32.875 4.4375 32.875H17.5625C17.9106 32.875 18.2444 32.7367 18.4906 32.4906C18.7367 32.2444 18.875 31.9106 18.875 31.5625V4.4375C18.875 4.0894 18.7367 3.75556 18.4906 3.50942C18.2444 3.26328 17.9106 3.125 17.5625 3.125ZM13.1857 27.625C13.5338 27.6245 13.8679 27.7624 14.1143 28.0082C14.3608 28.254 14.4995 28.5877 14.5 28.9358C14.5005 29.2838 14.3626 29.6179 14.1168 29.8643C13.871 30.1108 13.5373 30.2495 13.1893 30.25L8.81425 30.257C8.46615 30.2575 8.13213 30.1196 7.88566 29.8738C7.63919 29.628 7.50046 29.2943 7.5 28.9462C7.49954 28.5982 7.63737 28.2641 7.88318 28.0177C8.129 27.7712 8.46265 27.6325 8.81075 27.632L13.1857 27.625Z" fill="#262626"/>
</svg>
