<svg width="74" height="26" viewBox="0 0 74 26" fill="none" xmlns="http://www.w3.org/2000/svg">
<rect width="74" height="26" rx="4" fill="#F6C844"/>
<path d="M15.2676 18L12.1836 10.164H12.1476C12.1636 10.308 12.1716 10.472 12.1716 10.656C12.1796 10.832 12.1836 11.02 12.1836 11.22C12.1916 11.412 12.1956 11.612 12.1956 11.82V18H11.5476V9.432H12.5916L15.5436 16.944H15.5916L18.5796 9.432H19.5996V18H18.9156V11.748C18.9156 11.572 18.9156 11.392 18.9156 11.208C18.9236 11.024 18.9316 10.844 18.9396 10.668C18.9476 10.492 18.9556 10.328 18.9636 10.176H18.9276L15.8316 18H15.2676ZM27.2565 14.808C27.2565 15.304 27.1925 15.756 27.0645 16.164C26.9445 16.564 26.7605 16.912 26.5125 17.208C26.2725 17.496 25.9725 17.72 25.6125 17.88C25.2525 18.04 24.8405 18.12 24.3765 18.12C23.9365 18.12 23.5405 18.044 23.1885 17.892C22.8445 17.732 22.5485 17.508 22.3005 17.22C22.0525 16.924 21.8645 16.572 21.7365 16.164C21.6085 15.756 21.5445 15.304 21.5445 14.808C21.5445 14.112 21.6565 13.52 21.8805 13.032C22.1125 12.536 22.4445 12.156 22.8765 11.892C23.3165 11.628 23.8365 11.496 24.4365 11.496C25.0445 11.496 25.5565 11.636 25.9725 11.916C26.3965 12.188 26.7165 12.572 26.9325 13.068C27.1485 13.564 27.2565 14.144 27.2565 14.808ZM22.2525 14.808C22.2525 15.352 22.3285 15.832 22.4805 16.248C22.6325 16.656 22.8685 16.972 23.1885 17.196C23.5085 17.42 23.9085 17.532 24.3885 17.532C24.8845 17.532 25.2925 17.42 25.6125 17.196C25.9325 16.964 26.1685 16.644 26.3205 16.236C26.4725 15.82 26.5485 15.344 26.5485 14.808C26.5485 14.272 26.4765 13.8 26.3325 13.392C26.1885 12.984 25.9605 12.664 25.6485 12.432C25.3365 12.2 24.9285 12.084 24.4245 12.084C23.6965 12.084 23.1525 12.324 22.7925 12.804C22.4325 13.284 22.2525 13.952 22.2525 14.808ZM31.3346 18.12C30.4786 18.12 29.8186 17.848 29.3546 17.304C28.8986 16.752 28.6706 15.944 28.6706 14.88C28.6706 13.776 28.9106 12.936 29.3906 12.36C29.8786 11.784 30.5466 11.496 31.3946 11.496C31.7546 11.496 32.0666 11.552 32.3306 11.664C32.5946 11.768 32.8186 11.912 33.0026 12.096C33.1946 12.28 33.3426 12.488 33.4466 12.72H33.4946C33.4866 12.528 33.4746 12.32 33.4586 12.096C33.4506 11.864 33.4466 11.656 33.4466 11.472V8.88H34.1306V18H33.5786L33.4826 16.884H33.4466C33.3346 17.108 33.1866 17.316 33.0026 17.508C32.8186 17.692 32.5906 17.84 32.3186 17.952C32.0466 18.064 31.7186 18.12 31.3346 18.12ZM31.4186 17.532C32.1626 17.532 32.6866 17.308 32.9906 16.86C33.3026 16.412 33.4586 15.764 33.4586 14.916V14.808C33.4586 13.928 33.3026 13.256 32.9906 12.792C32.6866 12.32 32.1786 12.084 31.4666 12.084C30.7786 12.084 30.2586 12.328 29.9066 12.816C29.5546 13.296 29.3786 13.988 29.3786 14.892C29.3786 15.756 29.5466 16.412 29.8826 16.86C30.2186 17.308 30.7306 17.532 31.4186 17.532ZM38.6862 11.496C39.2382 11.496 39.6942 11.624 40.0542 11.88C40.4222 12.128 40.6982 12.472 40.8822 12.912C41.0742 13.352 41.1702 13.86 41.1702 14.436V14.892H36.6102C36.6102 15.748 36.8062 16.4 37.1982 16.848C37.5982 17.296 38.1622 17.52 38.8902 17.52C39.2902 17.52 39.6382 17.488 39.9342 17.424C40.2302 17.36 40.5542 17.248 40.9062 17.088V17.712C40.5862 17.856 40.2702 17.96 39.9582 18.024C39.6462 18.088 39.2822 18.12 38.8662 18.12C38.2342 18.12 37.6942 17.988 37.2462 17.724C36.8062 17.46 36.4702 17.084 36.2382 16.596C36.0142 16.1 35.9022 15.524 35.9022 14.868C35.9022 14.212 36.0102 13.632 36.2262 13.128C36.4422 12.624 36.7582 12.228 37.1742 11.94C37.5902 11.644 38.0942 11.496 38.6862 11.496ZM38.6862 12.072C38.0942 12.072 37.6182 12.268 37.2582 12.66C36.8982 13.044 36.6862 13.6 36.6222 14.328H40.4622C40.4622 13.88 40.3982 13.488 40.2702 13.152C40.1422 12.816 39.9462 12.552 39.6822 12.36C39.4262 12.168 39.0942 12.072 38.6862 12.072ZM45.5593 11.508C45.7193 11.508 45.8713 11.52 46.0153 11.544C46.1673 11.56 46.3033 11.584 46.4233 11.616L46.3273 12.24C46.1993 12.208 46.0713 12.184 45.9433 12.168C45.8153 12.144 45.6753 12.132 45.5233 12.132C45.2353 12.132 44.9753 12.188 44.7433 12.3C44.5113 12.412 44.3113 12.572 44.1433 12.78C43.9753 12.988 43.8473 13.236 43.7593 13.524C43.6713 13.812 43.6273 14.136 43.6273 14.496V18H42.9433V11.616H43.5193L43.5913 12.816H43.6273C43.7313 12.568 43.8713 12.348 44.0473 12.156C44.2313 11.956 44.4513 11.8 44.7073 11.688C44.9633 11.568 45.2473 11.508 45.5593 11.508ZM49.7356 11.508C50.4556 11.508 50.9916 11.684 51.3436 12.036C51.6956 12.388 51.8716 12.948 51.8716 13.716V18H51.3556L51.2356 16.92H51.1996C51.0476 17.16 50.8716 17.372 50.6716 17.556C50.4796 17.732 50.2436 17.872 49.9636 17.976C49.6916 18.072 49.3556 18.12 48.9556 18.12C48.5556 18.12 48.2076 18.052 47.9116 17.916C47.6156 17.772 47.3876 17.568 47.2276 17.304C47.0676 17.04 46.9876 16.716 46.9876 16.332C46.9876 15.7 47.2476 15.22 47.7676 14.892C48.2876 14.556 49.0436 14.364 50.0356 14.316L51.1996 14.268V13.812C51.1996 13.18 51.0716 12.736 50.8156 12.48C50.5676 12.216 50.1956 12.084 49.6996 12.084C49.3716 12.084 49.0556 12.128 48.7516 12.216C48.4556 12.296 48.1556 12.412 47.8516 12.564L47.6356 12.024C47.9316 11.872 48.2596 11.748 48.6196 11.652C48.9796 11.556 49.3516 11.508 49.7356 11.508ZM50.1076 14.82C49.2996 14.86 48.6956 15.004 48.2956 15.252C47.8956 15.492 47.6956 15.856 47.6956 16.344C47.6956 16.736 47.8196 17.036 48.0676 17.244C48.3156 17.444 48.6516 17.544 49.0756 17.544C49.7556 17.544 50.2756 17.356 50.6356 16.98C51.0036 16.604 51.1916 16.076 51.1996 15.396V14.772L50.1076 14.82ZM55.7612 17.544C55.9372 17.544 56.1052 17.532 56.2652 17.508C56.4252 17.476 56.5652 17.44 56.6852 17.4V17.952C56.5652 18 56.4132 18.04 56.2292 18.072C56.0532 18.104 55.8652 18.12 55.6652 18.12C55.3132 18.12 55.0132 18.056 54.7652 17.928C54.5172 17.792 54.3252 17.584 54.1892 17.304C54.0612 17.024 53.9972 16.664 53.9972 16.224V12.168H53.0612V11.784L53.9972 11.568L54.2492 10.092H54.6812V11.616H56.6492V12.168H54.6812V16.2C54.6812 16.64 54.7692 16.976 54.9452 17.208C55.1212 17.432 55.3932 17.544 55.7612 17.544ZM60.4993 11.496C61.0513 11.496 61.5073 11.624 61.8673 11.88C62.2353 12.128 62.5113 12.472 62.6953 12.912C62.8873 13.352 62.9833 13.86 62.9833 14.436V14.892H58.4233C58.4233 15.748 58.6193 16.4 59.0113 16.848C59.4113 17.296 59.9753 17.52 60.7033 17.52C61.1033 17.52 61.4513 17.488 61.7473 17.424C62.0433 17.36 62.3673 17.248 62.7193 17.088V17.712C62.3993 17.856 62.0833 17.96 61.7713 18.024C61.4593 18.088 61.0953 18.12 60.6793 18.12C60.0473 18.12 59.5073 17.988 59.0593 17.724C58.6193 17.46 58.2833 17.084 58.0513 16.596C57.8273 16.1 57.7153 15.524 57.7153 14.868C57.7153 14.212 57.8233 13.632 58.0393 13.128C58.2553 12.624 58.5713 12.228 58.9873 11.94C59.4033 11.644 59.9073 11.496 60.4993 11.496ZM60.4993 12.072C59.9073 12.072 59.4313 12.268 59.0713 12.66C58.7113 13.044 58.4993 13.6 58.4353 14.328H62.2753C62.2753 13.88 62.2113 13.488 62.0833 13.152C61.9553 12.816 61.7593 12.552 61.4953 12.36C61.2393 12.168 60.9073 12.072 60.4993 12.072Z" fill="#262626"/>
</svg>
