<svg width="80" height="26" viewBox="0 0 80 26" fill="none" xmlns="http://www.w3.org/2000/svg">
<rect width="80" height="26" rx="4" fill="#F6C844"/>
<path d="M18.2256 18L15.1416 10.164H15.1056C15.1216 10.308 15.1296 10.472 15.1296 10.656C15.1376 10.832 15.1416 11.02 15.1416 11.22C15.1496 11.412 15.1536 11.612 15.1536 11.82V18H14.5056V9.432H15.5496L18.5016 16.944H18.5496L21.5376 9.432H22.5576V18H21.8736V11.748C21.8736 11.572 21.8736 11.392 21.8736 11.208C21.8816 11.024 21.8896 10.844 21.8976 10.668C21.9056 10.492 21.9136 10.328 21.9216 10.176H21.8856L18.7896 18H18.2256ZM30.2265 14.808C30.2265 15.304 30.1625 15.756 30.0345 16.164C29.9145 16.564 29.7305 16.912 29.4825 17.208C29.2425 17.496 28.9425 17.72 28.5825 17.88C28.2225 18.04 27.8105 18.12 27.3465 18.12C26.9065 18.12 26.5105 18.044 26.1585 17.892C25.8145 17.732 25.5185 17.508 25.2705 17.22C25.0225 16.924 24.8345 16.572 24.7065 16.164C24.5785 15.756 24.5145 15.304 24.5145 14.808C24.5145 14.112 24.6265 13.52 24.8505 13.032C25.0825 12.536 25.4145 12.156 25.8465 11.892C26.2865 11.628 26.8065 11.496 27.4065 11.496C28.0145 11.496 28.5265 11.636 28.9425 11.916C29.3665 12.188 29.6865 12.572 29.9025 13.068C30.1185 13.564 30.2265 14.144 30.2265 14.808ZM25.2225 14.808C25.2225 15.352 25.2985 15.832 25.4505 16.248C25.6025 16.656 25.8385 16.972 26.1585 17.196C26.4785 17.42 26.8785 17.532 27.3585 17.532C27.8545 17.532 28.2625 17.42 28.5825 17.196C28.9025 16.964 29.1385 16.644 29.2905 16.236C29.4425 15.82 29.5185 15.344 29.5185 14.808C29.5185 14.272 29.4465 13.8 29.3025 13.392C29.1585 12.984 28.9305 12.664 28.6185 12.432C28.3065 12.2 27.8985 12.084 27.3945 12.084C26.6665 12.084 26.1225 12.324 25.7625 12.804C25.4025 13.284 25.2225 13.952 25.2225 14.808ZM34.3166 18.12C33.4606 18.12 32.8006 17.848 32.3366 17.304C31.8806 16.752 31.6526 15.944 31.6526 14.88C31.6526 13.776 31.8926 12.936 32.3726 12.36C32.8606 11.784 33.5286 11.496 34.3766 11.496C34.7366 11.496 35.0486 11.552 35.3126 11.664C35.5766 11.768 35.8006 11.912 35.9846 12.096C36.1766 12.28 36.3246 12.488 36.4286 12.72H36.4766C36.4686 12.528 36.4566 12.32 36.4406 12.096C36.4326 11.864 36.4286 11.656 36.4286 11.472V8.88H37.1126V18H36.5606L36.4646 16.884H36.4286C36.3166 17.108 36.1686 17.316 35.9846 17.508C35.8006 17.692 35.5726 17.84 35.3006 17.952C35.0286 18.064 34.7006 18.12 34.3166 18.12ZM34.4006 17.532C35.1446 17.532 35.6686 17.308 35.9726 16.86C36.2846 16.412 36.4406 15.764 36.4406 14.916V14.808C36.4406 13.928 36.2846 13.256 35.9726 12.792C35.6686 12.32 35.1606 12.084 34.4486 12.084C33.7606 12.084 33.2406 12.328 32.8886 12.816C32.5366 13.296 32.3606 13.988 32.3606 14.892C32.3606 15.756 32.5286 16.412 32.8646 16.86C33.2006 17.308 33.7126 17.532 34.4006 17.532ZM41.6802 11.496C42.2322 11.496 42.6882 11.624 43.0482 11.88C43.4162 12.128 43.6922 12.472 43.8762 12.912C44.0682 13.352 44.1642 13.86 44.1642 14.436V14.892H39.6042C39.6042 15.748 39.8002 16.4 40.1922 16.848C40.5922 17.296 41.1562 17.52 41.8842 17.52C42.2842 17.52 42.6322 17.488 42.9282 17.424C43.2242 17.36 43.5482 17.248 43.9002 17.088V17.712C43.5802 17.856 43.2642 17.96 42.9522 18.024C42.6402 18.088 42.2762 18.12 41.8602 18.12C41.2282 18.12 40.6882 17.988 40.2402 17.724C39.8002 17.46 39.4642 17.084 39.2322 16.596C39.0082 16.1 38.8962 15.524 38.8962 14.868C38.8962 14.212 39.0042 13.632 39.2202 13.128C39.4362 12.624 39.7522 12.228 40.1682 11.94C40.5842 11.644 41.0882 11.496 41.6802 11.496ZM41.6802 12.072C41.0882 12.072 40.6122 12.268 40.2522 12.66C39.8922 13.044 39.6802 13.6 39.6162 14.328H43.4562C43.4562 13.88 43.3922 13.488 43.2642 13.152C43.1362 12.816 42.9402 12.552 42.6762 12.36C42.4202 12.168 42.0882 12.072 41.6802 12.072ZM48.5653 11.508C48.7253 11.508 48.8773 11.52 49.0213 11.544C49.1733 11.56 49.3093 11.584 49.4293 11.616L49.3333 12.24C49.2053 12.208 49.0773 12.184 48.9493 12.168C48.8213 12.144 48.6813 12.132 48.5293 12.132C48.2413 12.132 47.9813 12.188 47.7493 12.3C47.5173 12.412 47.3173 12.572 47.1493 12.78C46.9813 12.988 46.8533 13.236 46.7653 13.524C46.6773 13.812 46.6333 14.136 46.6333 14.496V18H45.9493V11.616H46.5253L46.5973 12.816H46.6333C46.7373 12.568 46.8773 12.348 47.0533 12.156C47.2373 11.956 47.4573 11.8 47.7133 11.688C47.9693 11.568 48.2533 11.508 48.5653 11.508ZM52.7536 11.508C53.4736 11.508 54.0096 11.684 54.3616 12.036C54.7136 12.388 54.8896 12.948 54.8896 13.716V18H54.3736L54.2536 16.92H54.2176C54.0656 17.16 53.8896 17.372 53.6896 17.556C53.4976 17.732 53.2616 17.872 52.9816 17.976C52.7096 18.072 52.3736 18.12 51.9736 18.12C51.5736 18.12 51.2256 18.052 50.9296 17.916C50.6336 17.772 50.4056 17.568 50.2456 17.304C50.0856 17.04 50.0056 16.716 50.0056 16.332C50.0056 15.7 50.2656 15.22 50.7856 14.892C51.3056 14.556 52.0616 14.364 53.0536 14.316L54.2176 14.268V13.812C54.2176 13.18 54.0896 12.736 53.8336 12.48C53.5856 12.216 53.2136 12.084 52.7176 12.084C52.3896 12.084 52.0736 12.128 51.7696 12.216C51.4736 12.296 51.1736 12.412 50.8696 12.564L50.6536 12.024C50.9496 11.872 51.2776 11.748 51.6376 11.652C51.9976 11.556 52.3696 11.508 52.7536 11.508ZM53.1256 14.82C52.3176 14.86 51.7136 15.004 51.3136 15.252C50.9136 15.492 50.7136 15.856 50.7136 16.344C50.7136 16.736 50.8376 17.036 51.0856 17.244C51.3336 17.444 51.6696 17.544 52.0936 17.544C52.7736 17.544 53.2936 17.356 53.6536 16.98C54.0216 16.604 54.2096 16.076 54.2176 15.396V14.772L53.1256 14.82ZM58.7912 17.544C58.9672 17.544 59.1352 17.532 59.2952 17.508C59.4552 17.476 59.5952 17.44 59.7152 17.4V17.952C59.5952 18 59.4432 18.04 59.2592 18.072C59.0832 18.104 58.8952 18.12 58.6952 18.12C58.3432 18.12 58.0432 18.056 57.7952 17.928C57.5472 17.792 57.3552 17.584 57.2192 17.304C57.0912 17.024 57.0272 16.664 57.0272 16.224V12.168H56.0912V11.784L57.0272 11.568L57.2792 10.092H57.7112V11.616H59.6792V12.168H57.7112V16.2C57.7112 16.64 57.7992 16.976 57.9752 17.208C58.1512 17.432 58.4232 17.544 58.7912 17.544ZM63.5413 11.496C64.0933 11.496 64.5493 11.624 64.9093 11.88C65.2773 12.128 65.5533 12.472 65.7373 12.912C65.9293 13.352 66.0253 13.86 66.0253 14.436V14.892H61.4653C61.4653 15.748 61.6613 16.4 62.0533 16.848C62.4533 17.296 63.0173 17.52 63.7453 17.52C64.1453 17.52 64.4933 17.488 64.7893 17.424C65.0853 17.36 65.4093 17.248 65.7613 17.088V17.712C65.4413 17.856 65.1253 17.96 64.8133 18.024C64.5013 18.088 64.1373 18.12 63.7213 18.12C63.0893 18.12 62.5493 17.988 62.1013 17.724C61.6613 17.46 61.3253 17.084 61.0933 16.596C60.8693 16.1 60.7573 15.524 60.7573 14.868C60.7573 14.212 60.8653 13.632 61.0813 13.128C61.2973 12.624 61.6133 12.228 62.0293 11.94C62.4453 11.644 62.9493 11.496 63.5413 11.496ZM63.5413 12.072C62.9493 12.072 62.4733 12.268 62.1133 12.66C61.7533 13.044 61.5413 13.6 61.4773 14.328H65.3173C65.3173 13.88 65.2533 13.488 65.1253 13.152C64.9973 12.816 64.8013 12.552 64.5373 12.36C64.2813 12.168 63.9493 12.072 63.5413 12.072Z" fill="#262626"/>
</svg>
