<svg width="22" height="22" viewBox="0 0 22 22" fill="none" xmlns="http://www.w3.org/2000/svg">
<path d="M20.1668 7.33333C20.1757 7.26948 20.1757 7.20469 20.1668 7.14083V7.0675C20.1511 7.01634 20.1295 6.96713 20.1027 6.92083C20.0908 6.89443 20.0753 6.86976 20.0568 6.8475L19.9652 6.72833L19.7818 6.59083L11.5318 2.0075C11.3925 1.92705 11.2344 1.88469 11.0735 1.88469C10.9126 1.88469 10.7545 1.92705 10.6152 2.0075L2.36516 6.59083L2.28266 6.655L2.18183 6.72833C2.1552 6.75831 2.13354 6.79235 2.11766 6.82917C2.08833 6.85547 2.06356 6.88645 2.04433 6.92083C2.02053 6.96105 2.00204 7.00419 1.98933 7.04917C1.9842 7.07951 1.9842 7.11049 1.98933 7.14083C1.9263 7.19518 1.87353 7.26037 1.8335 7.33333V14.6667C1.83469 14.83 1.8795 14.9901 1.96331 15.1303C2.04711 15.2705 2.16686 15.3858 2.31016 15.4642L10.5602 20.0475C10.598 20.0696 10.6379 20.088 10.6793 20.1025H10.771C10.9216 20.139 11.0787 20.139 11.2293 20.1025H11.321L11.4493 20.0475L19.6993 15.4642C19.8409 15.3846 19.9588 15.2688 20.041 15.1287C20.1231 14.9885 20.1665 14.8291 20.1668 14.6667V7.33333ZM11.0002 10.8808L4.6385 7.33333L7.1685 5.94L13.4293 9.515L11.0002 10.8808ZM11.0002 3.80417L17.3618 7.33333L15.3085 8.47917L9.04766 4.895L11.0002 3.80417ZM3.66683 8.89167L10.0835 12.485V17.6917L3.66683 14.1258V8.89167ZM11.9168 17.6917V12.485L14.6668 10.945V13.75L16.5002 12.8333V9.91833L18.3335 8.90083V14.1258L11.9168 17.6917Z" fill="#222222"/>
</svg>
