<svg width="48" height="48" viewBox="0 0 48 48" fill="none" xmlns="http://www.w3.org/2000/svg">
<path fill-rule="evenodd" clip-rule="evenodd" d="M8.00993 3.80099C8.11217 2.77859 8.97251 2 10 2H38C39.0275 2 39.8878 2.77859 39.9901 3.80099L43.9901 43.801C44.0463 44.3632 43.8621 44.923 43.4829 45.342C43.1038 45.761 42.5651 46 42 46H33C32.1566 46 31.4039 45.471 31.1182 44.6774L24 24.9046L16.8818 44.6774C16.5961 45.471 15.8434 46 15 46H6.00001C5.43495 46 4.89626 45.761 4.5171 45.342C4.13795 44.923 3.95371 44.3632 4.00993 43.801L8.00993 3.80099ZM22 6V9.5C22 10.6046 22.8954 11.5 24 11.5C25.1046 11.5 26 10.6046 26 9.5V6H36.19L39.79 42H34.4057L25.8818 18.3226C25.5961 17.529 24.8434 17 24 17C23.1566 17 22.4039 17.529 22.1182 18.3226L13.5944 42H8.20998L11.81 6H22Z" fill="#222222"/>
<path fill-rule="evenodd" clip-rule="evenodd" d="M17 2C18.1046 2 19 2.89543 19 4H17C19 4 19 3.99963 19 4L19 4.00372L19 4.00963L18.9999 4.02797L18.9994 4.08985C18.9988 4.14199 18.9977 4.21561 18.9956 4.30822C18.9913 4.49327 18.9828 4.75515 18.966 5.07387C18.9326 5.70826 18.8656 6.58278 18.7299 7.53284C18.5953 8.4749 18.3864 9.54046 18.0536 10.5387C17.7324 11.5025 17.2346 12.5938 16.4142 13.4142C15.1119 14.7166 13.2662 15.588 11.9302 16.1119C11.2308 16.3862 10.6026 16.591 10.1479 16.7278C9.91971 16.7964 9.73302 16.8485 9.60027 16.8843C9.53383 16.9022 9.48075 16.916 9.44255 16.9258L9.39655 16.9374L9.38224 16.941L9.37543 16.9427C9.37507 16.9428 9.37392 16.943 8.90001 15L9.37392 16.943C8.30081 17.2048 7.2187 16.547 6.95697 15.4739C6.6954 14.4015 7.35213 13.3201 8.42401 13.0575C8.42395 13.0575 8.42407 13.0575 8.42401 13.0575L8.42511 13.0572C8.42532 13.0571 8.42589 13.057 8.4261 13.057L8.42712 13.0567L8.45054 13.0508C8.47337 13.0449 8.51032 13.0353 8.55991 13.022C8.65919 12.9952 8.80843 12.9536 8.99587 12.8972C9.37244 12.784 9.89423 12.6138 10.4698 12.3881C11.6838 11.912 12.8882 11.2834 13.5858 10.5858C13.7654 10.4062 14.0177 9.99748 14.2589 9.27379C14.4886 8.58454 14.6547 7.7751 14.7701 6.96716C14.8844 6.16722 14.9424 5.41674 14.9715 4.86363C14.986 4.5886 14.9931 4.3661 14.9966 4.21522C14.9984 4.13986 14.9992 4.08262 14.9996 4.04589L15 4.00658L15 4C15.0003 2.8957 15.8956 2 17 2ZM31 2C32.1044 2 32.9997 2.89512 33 3.99942C33 3.99942 33 3.99942 33 3.99942M31 4C29 4 29 4.00035 29 4.00072L29 4.00372L29 4.00963L29.0001 4.02797L29.0006 4.08985C29.0012 4.14199 29.0023 4.21561 29.0045 4.30822C29.0088 4.49327 29.0172 4.75515 29.034 5.07387C29.0674 5.70826 29.1344 6.58278 29.2701 7.53284C29.4047 8.4749 29.6136 9.54046 29.9464 10.5387C30.2677 11.5025 30.7654 12.5938 31.5858 13.4142C32.8882 14.7166 34.7338 15.588 36.0698 16.1119C36.7692 16.3862 37.3974 16.591 37.8521 16.7278C38.0803 16.7964 38.267 16.8485 38.3997 16.8843C38.4662 16.9022 38.5193 16.916 38.5575 16.9258L38.6035 16.9374L38.6178 16.941L38.6227 16.9422L38.6246 16.9427C38.6249 16.9428 38.6261 16.943 39.1 15L38.6261 16.943C39.6992 17.2048 40.7813 16.547 41.043 15.4739C41.3048 14.4008 40.647 13.3187 39.5739 13.057L39.5729 13.0567L39.5495 13.0508C39.5266 13.0449 39.4897 13.0353 39.4401 13.022C39.3408 12.9952 39.1916 12.9536 39.0042 12.8972C38.6276 12.784 38.1058 12.6138 37.5302 12.3881C36.3162 11.912 35.1119 11.2834 34.4142 10.5858C34.2346 10.4062 33.9824 9.99748 33.7411 9.27379C33.5114 8.58454 33.3453 7.7751 33.2299 6.96716C33.1156 6.16722 33.0576 5.41674 33.0285 4.86363C33.014 4.5886 33.0069 4.3661 33.0034 4.21522C33.0016 4.13986 33.0008 4.08262 33.0004 4.04589L33 4.00658L33 3.99942M31 4L29 4.00072C29 2.89615 29.8954 2 31 2" fill="#222222"/>
</svg>
