<svg width="32" height="32" viewBox="0 0 32 32" xmlns="http://www.w3.org/2000/svg">
<path d="M25.8666 9.78666L22.2132 6.13333C21.7364 5.68545 21.1116 5.42847 20.4577 5.41126C19.8037 5.39405 19.1663 5.61782 18.6666 6.03999L6.66657 18.04C6.23559 18.4746 5.96725 19.0443 5.90657 19.6533L5.33324 25.2133C5.31528 25.4086 5.34062 25.6055 5.40746 25.7898C5.47429 25.9742 5.58098 26.1416 5.71991 26.28C5.84449 26.4036 5.99225 26.5013 6.1547 26.5677C6.31715 26.634 6.4911 26.6677 6.66657 26.6667H6.78657L12.3466 26.16C12.9556 26.0993 13.5253 25.831 13.9599 25.4L25.9599 13.4C26.4257 12.9079 26.6774 12.2513 26.6599 11.574C26.6424 10.8967 26.3571 10.254 25.8666 9.78666ZM12.1066 23.4933L8.10657 23.8667L8.46657 19.8667L15.9999 12.4267L19.5999 16.0267L12.1066 23.4933ZM21.3332 14.24L17.7599 10.6667L20.3599 7.99999L23.9999 11.64L21.3332 14.24Z"/>
</svg>
