<svg width="42" height="42" viewBox="0 0 42 42" fill="none" xmlns="http://www.w3.org/2000/svg">
<path fill-rule="evenodd" clip-rule="evenodd" d="M13.3037 2.93062C14.4665 2.05957 15.9329 1.75 17.325 1.75H27.125C28.0915 1.75 28.875 2.5335 28.875 3.5C28.875 4.4665 28.0915 5.25 27.125 5.25H22.75V7.875H25.375C26.3415 7.875 27.125 8.6585 27.125 9.625V13.2854C27.7861 13.4077 28.4342 13.5991 29.0583 13.8577C30.2261 14.3414 31.2871 15.0503 32.1809 15.9441C33.0747 16.8379 33.7836 17.8989 34.2673 19.0667C34.751 20.2344 35 21.486 35 22.75V23.6049C35 24.5714 34.2165 25.3549 33.25 25.3549C32.2835 25.3549 31.5 24.5714 31.5 23.6049V22.75C31.5 21.9457 31.3416 21.1492 31.0338 20.4061C30.726 19.6629 30.2748 18.9877 29.706 18.419C29.1373 17.8502 28.4621 17.399 27.7189 17.0912C26.9758 16.7834 26.1793 16.625 25.375 16.625H16.625C15.0005 16.625 13.4426 17.2703 12.294 18.419C11.1453 19.5676 10.5 21.1255 10.5 22.75V30.625C10.5 32.2494 11.1453 33.8074 12.294 34.956C13.4426 36.1047 15.0005 36.75 16.625 36.75H21C21.9665 36.75 22.75 37.5335 22.75 38.5C22.75 39.4665 21.9665 40.25 21 40.25H16.625C14.0723 40.25 11.6241 39.2359 9.8191 37.4309C8.01406 35.6259 7 33.1777 7 30.625V22.75C7 20.1973 8.01406 17.7491 9.8191 15.9441C11.2061 14.5571 12.9729 13.6371 14.875 13.2854V9.625C14.875 8.6585 15.6585 7.875 16.625 7.875H19.25V5.25H17.325C16.3914 5.25 15.7577 5.46543 15.402 5.73188C15.1197 5.94331 14.875 6.27979 14.875 7C14.875 7.9665 14.0915 8.75 13.125 8.75C12.1585 8.75 11.375 7.9665 11.375 7C11.375 5.27021 12.0674 3.85669 13.3037 2.93062ZM18.375 11.375V13.125H23.625V11.375H18.375ZM29.1714 33.6647C28.9472 34.2208 28.875 34.6077 28.875 34.7988C28.875 35.7758 29.751 36.75 31.0625 36.75C32.374 36.75 33.25 35.7758 33.25 34.7988C33.25 34.6077 33.1778 34.2208 32.9536 33.6647C32.7404 33.1359 32.4344 32.5639 32.0853 32.0382C31.7321 31.5063 31.372 31.0779 31.0734 30.8052C31.0697 30.8018 31.0661 30.7985 31.0625 30.7953C31.0589 30.7985 31.0553 30.8018 31.0516 30.8052C30.753 31.0779 30.3929 31.5063 30.0397 32.0382C29.6906 32.5639 29.3846 33.1359 29.1714 33.6647ZM29.6609 27.5107C30.0077 27.3208 30.4926 27.125 31.0625 27.125C31.6324 27.125 32.1173 27.3208 32.4641 27.5107C32.8239 27.7078 33.1499 27.9616 33.4338 28.2209C34.0015 28.7394 34.5404 29.4085 35.0009 30.1019C35.4656 30.8015 35.888 31.5826 36.1998 32.3562C36.5007 33.1026 36.75 33.9674 36.75 34.7988C36.75 37.9097 34.0998 40.25 31.0625 40.25C28.0252 40.25 25.375 37.9097 25.375 34.7988C25.375 33.9674 25.6243 33.1026 25.9252 32.3562C26.237 31.5826 26.6594 30.8015 27.1241 30.1019C27.5846 29.4085 28.1235 28.7394 28.6912 28.2209C28.9751 27.9616 29.3011 27.7078 29.6609 27.5107Z" fill="#262626"/>
</svg>
