<svg width="42" height="42" viewBox="0 0 42 42" fill="none" xmlns="http://www.w3.org/2000/svg">
<path d="M23.625 15.75H19.6875C19.3331 15.75 19.0312 15.4481 19.0312 15.0938C19.0312 14.7394 19.32 14.4375 19.6875 14.4375H23.625C23.9794 14.4375 24.2812 14.7262 24.2812 15.0938C24.2812 15.4481 23.9794 15.75 23.625 15.75ZM19.6875 18.375H23.625C23.9794 18.375 24.2812 18.0863 24.2812 17.7188C24.2812 17.3644 23.9794 17.0625 23.625 17.0625H19.6875C19.32 17.0625 19.0312 17.3644 19.0312 17.7188C19.0312 18.0863 19.3331 18.375 19.6875 18.375Z" fill="#262626"/>
<path d="M19.6219 7.875H23.6906V3.87188C23.6906 3.18938 24.255 2.625 24.9375 2.625C25.62 2.625 26.1844 3.18938 26.1844 3.87188V7.875H29.2294C31.3819 7.875 32.8125 9.82013 32.8125 11.8125C32.8125 13.4925 31.7966 15.1371 30.1875 15.6135V17.5389C30.1931 18.9941 29.8361 20.4278 29.1486 21.7104C28.4611 22.993 27.4649 24.084 26.25 24.885V30.2977C26.25 31.2519 25.7198 32.0814 24.9375 32.508V39.375C24.9375 39.7231 24.7992 40.0569 24.5531 40.3031C24.3069 40.5492 23.9731 40.6875 23.625 40.6875H19.6875C19.3394 40.6875 19.0056 40.5492 18.7594 40.3031C18.5133 40.0569 18.375 39.7231 18.375 39.375V32.508C17.5927 32.0814 17.0625 31.2519 17.0625 30.2977V24.8784C15.8483 24.0782 14.8526 22.9883 14.1651 21.7069C13.4777 20.4255 13.1202 18.9931 13.125 17.5389V15.6135C11.5159 15.1371 10.5 13.4925 10.5 11.8125C10.5 9.82013 11.9306 7.875 14.0831 7.875H17.1281V3.87188C17.1281 3.18938 17.6925 2.625 18.375 2.625C19.0575 2.625 19.6219 3.18938 19.6219 3.87188V7.875ZM19.6875 26.0164V30.1875C20.0356 30.1875 20.3694 30.3258 20.6156 30.5719C20.8617 30.8181 21 31.1519 21 31.5V38.0625H22.3125V31.5C22.3125 31.1519 22.4508 30.8181 22.6969 30.5719C22.9431 30.3258 23.2769 30.1875 23.625 30.1875V26.019C22.3309 26.3303 20.9812 26.3294 19.6875 26.0164ZM13.125 11.8125C13.125 12.7247 13.7235 13.125 14.0831 13.125H15.75V17.5389C15.75 20.9344 18.4327 23.625 21.6628 23.625C24.8889 23.625 27.5625 20.9357 27.5625 17.5389V13.125H29.2294C29.589 13.125 30.1875 12.7247 30.1875 11.8125C30.1875 10.9003 29.589 10.5 29.2294 10.5H14.0831C13.7235 10.5 13.125 10.9003 13.125 11.8125Z" fill="#262626"/>
</svg>
