<svg width="32" height="32" viewBox="0 0 32 32" fill="none" xmlns="http://www.w3.org/2000/svg">
<path d="M16.4693 28.4782L16.4509 28.4918L16.4335 28.5067C16.3127 28.61 16.1591 28.6668 16.0002 28.6668C15.8417 28.6668 15.6885 28.6103 15.5679 28.5076C15.3629 28.33 12.9573 26.2453 10.6034 23.3127C8.21578 20.3381 6.0016 16.6366 6.00016 13.23C6.02738 10.5964 7.09246 8.07983 8.96418 6.22682C10.8367 4.37303 13.3652 3.3332 16.0001 3.33333H16.0002C18.6351 3.3332 21.1636 4.37303 23.0361 6.22682C24.9079 8.07985 25.973 10.5965 26.0002 13.2301C25.9987 16.638 23.7996 20.3402 21.4212 23.3136C20.2458 24.7831 19.0542 26.0409 18.1274 26.9527C17.6643 27.4083 17.2687 27.7762 16.976 28.0396C16.8295 28.1714 16.7096 28.2763 16.6205 28.3526C16.5758 28.3907 16.5398 28.421 16.5125 28.4434C16.4989 28.4546 16.4882 28.4632 16.4802 28.4696C16.4716 28.4764 16.4684 28.4788 16.4693 28.4782Z" fill="#FF6656" stroke="#262626" stroke-width="1.33333"/>
<path d="M15.9997 16.6667C15.2086 16.6667 14.4352 16.4321 13.7774 15.9925C13.1196 15.553 12.6069 14.9283 12.3042 14.1974C12.0014 13.4665 11.9222 12.6622 12.0765 11.8863C12.2309 11.1104 12.6118 10.3977 13.1713 9.83824C13.7307 9.27883 14.4434 8.89787 15.2193 8.74353C15.9952 8.58919 16.7995 8.6684 17.5304 8.97115C18.2613 9.2739 18.886 9.78659 19.3256 10.4444C19.7651 11.1022 19.9997 11.8755 19.9997 12.6667C19.9997 13.7275 19.5782 14.7449 18.8281 15.4951C18.078 16.2452 17.0605 16.6667 15.9997 16.6667Z" fill="#FCFCFC" stroke="#262626" stroke-width="1.33333"/>
<path d="M16 14.6667C17.1046 14.6667 18 13.7712 18 12.6667C18 11.5621 17.1046 10.6667 16 10.6667C14.8954 10.6667 14 11.5621 14 12.6667C14 13.7712 14.8954 14.6667 16 14.6667Z" fill="#FF6656"/>
</svg>
