<svg width="42" height="42" viewBox="0 0 42 42" fill="none" xmlns="http://www.w3.org/2000/svg">
<path d="M20.125 27.125V22.75H17.9375C17.6167 22.75 17.3763 22.6187 17.2165 22.3562C17.0555 22.0937 17.0479 21.8312 17.1937 21.5687L20.6937 14.6125C20.8396 14.3208 21.0729 14.2112 21.3938 14.2835C21.7146 14.357 21.875 14.5542 21.875 14.875V19.25H24.0625C24.3833 19.25 24.6243 19.3813 24.7853 19.6438C24.9451 19.9063 24.9521 20.1688 24.8063 20.4313L21.3063 27.3875C21.1604 27.6792 20.9271 27.7888 20.6062 27.7165C20.2854 27.643 20.125 27.4458 20.125 27.125ZM12.25 40.25C11.2875 40.25 10.4638 39.9076 9.779 39.2228C9.093 38.5368 8.75 37.7125 8.75 36.75V5.25C8.75 4.2875 9.093 3.46325 9.779 2.77725C10.4638 2.09242 11.2875 1.75 12.25 1.75H29.75C30.7125 1.75 31.5368 2.09242 32.2228 2.77725C32.9076 3.46325 33.25 4.2875 33.25 5.25V36.75C33.25 37.7125 32.9076 38.5368 32.2228 39.2228C31.5368 39.9076 30.7125 40.25 29.75 40.25H12.25ZM12.25 31.5H29.75V10.5H12.25V31.5ZM12.25 35V36.75H29.75V35H12.25ZM12.25 7H29.75V5.25H12.25V7ZM12.25 5.25V7V5.25ZM12.25 36.75V35V36.75Z" fill="#262626"/>
</svg>
