<svg width="32" height="32" viewBox="0 0 32 32" fill="none" xmlns="http://www.w3.org/2000/svg">
<path fill-rule="evenodd" clip-rule="evenodd" d="M16.0002 18C18.7617 18 21.0002 15.7614 21.0002 13C21.0002 10.2385 18.7617 7.99997 16.0002 7.99997C13.2388 7.99997 11.0002 10.2385 11.0002 13C11.0002 15.7614 13.2388 18 16.0002 18ZM16.0002 15.2C17.2153 15.2 18.2002 14.215 18.2002 13C18.2002 11.7849 17.2153 10.8 16.0002 10.8C14.7852 10.8 13.8002 11.7849 13.8002 13C13.8002 14.215 14.7852 15.2 16.0002 15.2Z" fill="#262626"/>
<path fill-rule="evenodd" clip-rule="evenodd" d="M16.0003 2.66663C13.3632 2.66663 10.7854 3.44861 8.59273 4.9137C6.40007 6.37878 4.69111 8.46116 3.68194 10.8975C2.67277 13.3339 2.40872 16.0148 2.92319 18.6012C3.43766 21.1876 4.70754 23.5634 6.57224 25.4281C8.43694 27.2928 10.8127 28.5626 13.3991 29.0771C15.9855 29.5916 18.6664 29.3275 21.1028 28.3184C23.5391 27.3092 25.6215 25.6002 27.0866 23.4076C28.5517 21.2149 29.3337 18.637 29.3337 16C29.3337 14.249 28.9888 12.5152 28.3187 10.8975C27.6487 9.27984 26.6665 7.80998 25.4284 6.57187C24.1903 5.33375 22.7205 4.35163 21.1028 3.68157C19.4851 3.0115 17.7513 2.66663 16.0003 2.66663ZM8.68305 23.7611C9.92634 20.9564 12.7348 19 16.0003 19C19.2657 19 22.0743 20.9565 23.3175 23.7612C23.3936 23.6895 23.4687 23.6166 23.5428 23.5424C25.5432 21.542 26.667 18.8289 26.667 16C26.667 13.8903 26.0414 11.828 24.8693 10.0739C23.6973 8.31975 22.0314 6.95258 20.0823 6.14524C18.1332 5.33791 15.9885 5.12667 13.9194 5.53825C11.8502 5.94983 9.94962 6.96573 8.45786 8.45749C6.9661 9.94925 5.9502 11.8499 5.53862 13.919C5.12705 15.9881 5.33828 18.1328 6.14562 20.0819C6.72468 21.4799 7.59176 22.7322 8.68305 23.7611ZM10.7595 25.2903C12.3549 26.1903 14.1596 26.6666 16.0003 26.6666C17.8528 26.6666 19.6556 26.1848 21.2411 25.2904C20.5217 23.0836 18.4472 21.4889 16.0003 21.4889C13.5534 21.4889 11.4789 23.0836 10.7595 25.2903Z" fill="#262626"/>
</svg>
