<svg width="38" height="42" viewBox="0 0 38 42" fill="none" xmlns="http://www.w3.org/2000/svg">
<path fill-rule="evenodd" clip-rule="evenodd" d="M18.0366 0.0472455C14.6145 0.415175 11.6617 2.53372 10.0534 5.7751C8.66692 8.56961 8.71648 12.1114 10.181 14.8831L10.4845 15.4575L9.58058 16.3601C7.7086 18.2293 6.49888 20.3123 5.87654 22.738C5.42028 24.5164 5.42175 24.4824 5.42175 33.099C5.42175 40.9107 5.42477 41.0634 5.58505 41.3368C5.67487 41.4901 5.85205 41.6932 5.97885 41.7881L6.20935 41.9609L19.0836 41.9805L31.9579 42L32.276 41.8164C32.451 41.7153 32.6622 41.504 32.7455 41.3468C32.8899 41.0739 32.8968 40.6984 32.8953 33.1824C32.8936 24.963 32.8736 24.4044 32.5315 23.0412C31.8851 20.4651 30.7412 18.4237 28.8841 16.532L27.8446 15.473L28.2843 14.5627C30.0384 10.9301 29.4732 6.73365 26.7943 3.5018C26.3175 2.92652 25.4146 2.12058 24.7064 1.63794C24.1235 1.24088 22.7353 0.598237 22.0375 0.402539C20.81 0.0583227 19.235 -0.0815791 18.0366 0.0472455ZM32.2437 1.97445C31.7077 2.33745 31.6724 2.50361 31.6724 4.66737C31.6724 6.82588 31.7088 6.99951 32.2354 7.353C32.643 7.62665 33.2865 7.61343 33.6284 7.32436C34.1056 6.9209 34.1216 6.83409 34.1216 4.66737C34.1216 2.54136 34.1058 2.44732 33.6792 2.04682C33.3601 1.74724 32.6334 1.71056 32.2437 1.97445ZM20.7551 2.66911C22.0682 2.92348 23.3364 3.6028 24.3829 4.61248C25.8715 6.04875 26.6522 7.76458 26.7492 9.81289C26.8397 11.724 26.456 13.0502 25.3329 14.7088C24.907 15.3377 24.8532 15.4819 24.8852 15.9088C24.9184 16.3518 25.0949 16.5812 25.8303 17.1366C28.4345 19.1037 30.0388 21.9472 30.3622 25.169C30.4107 25.6537 30.4474 28.0772 30.4474 30.8102V35.6017H28.8961H27.3447V30.3605C27.3447 27.4779 27.3206 24.9981 27.2911 24.8501C27.2129 24.4571 26.7052 23.9806 26.2896 23.9101C25.8398 23.8337 25.2522 24.1178 25.0191 24.5244C24.8577 24.8058 24.8539 24.9618 24.8323 32.1759L24.8101 39.5403H22.6073H20.4045V27.7262V15.9121L20.7361 15.7421C21.6902 15.2529 23.0362 14.2397 23.8049 13.432C24.8823 12.2999 25.3239 11.3091 25.3157 10.0419C25.3048 8.34101 24.6023 6.7819 23.3146 5.60049C22.6523 4.99288 22.0365 4.61953 21.2149 4.32734C19.5886 3.74902 17.8622 3.87145 16.322 4.67435C15.1315 5.29492 14.154 6.30344 13.5871 7.49585C13.1556 8.40329 13.0225 9.01065 13.02 10.0829C13.018 10.9095 13.0433 11.0878 13.2235 11.5195C13.8185 12.9449 15.081 14.2172 17.1743 15.5009L17.9142 15.9546V27.727V39.4992H15.7096H13.5051L13.4643 32.1144C13.4331 26.4922 13.3995 24.6876 13.3232 24.5538C13.15 24.25 12.7477 23.9676 12.4055 23.9095C11.9461 23.8315 11.4317 24.0885 11.1931 24.5151C11.0148 24.8339 11.0148 24.8347 11.0148 30.2178V35.6017H9.46341H7.91207V30.5043C7.91207 24.7415 7.94114 24.3441 8.48239 22.7083C9.27513 20.3124 10.4785 18.6771 12.7196 16.9503C13.6173 16.2586 13.6878 15.7542 13.0235 14.7794C11.4496 12.4699 11.1011 10.0143 11.9988 7.55805C13.3308 3.91313 16.8973 1.92185 20.7551 2.66911ZM20.1184 6.599C21.3552 6.9227 22.4029 7.98169 22.7244 9.23318C22.8932 9.89018 22.8858 10.3738 22.7006 10.7834C22.378 11.4974 21.0826 12.6645 19.7935 13.4027L19.1481 13.7723L18.7761 13.5577C17.3545 12.7375 16.1438 11.709 15.7052 10.9487C15.5055 10.6026 15.4732 10.464 15.4866 10.0106C15.5555 7.67579 17.8305 6.00009 20.1184 6.599ZM4.78831 10.1013C4.21407 10.4358 4.15618 10.6847 4.15618 12.8193C4.15618 14.8696 4.1908 15.0599 4.63212 15.4331C5.01432 15.7562 5.46315 15.8027 5.93296 15.5677C6.62062 15.2236 6.6465 15.1223 6.6465 12.7762C6.6465 10.8503 6.63817 10.7401 6.47569 10.5197C6.03543 9.9226 5.37595 9.75906 4.78831 10.1013ZM14.9748 17.1031C14.6613 17.2653 13.2467 18.6655 13.0842 18.9744C12.9156 19.2952 12.9286 19.8754 13.1118 20.1973C13.333 20.586 13.9297 20.8642 14.3805 20.7887C14.6831 20.7381 14.8482 20.6136 15.6146 19.8581C16.6056 18.8811 16.7304 18.6944 16.7299 18.1899C16.7292 17.2902 15.766 16.6939 14.9748 17.1031ZM22.2107 17.1158C21.7092 17.364 21.449 18.0266 21.633 18.5868C21.7665 18.9935 23.1552 20.4371 23.6394 20.6726C24.5373 21.1094 25.5353 20.3086 25.3475 19.3021C25.3 19.0475 25.122 18.8167 24.4183 18.0973C23.9397 17.6079 23.4488 17.1552 23.3275 17.0915C23.0341 16.9371 22.5503 16.9476 22.2107 17.1158ZM0.644426 23.8885C0.0443818 24.2988 0.0357269 24.3325 0.00690454 26.3675C-0.022571 28.4527 0.027807 28.7741 0.446997 29.1714C0.971351 29.6684 1.75837 29.5967 2.22949 29.0092L2.48236 28.6939V26.6152C2.48236 24.6345 2.47428 24.5255 2.31155 24.3048C2.03402 23.9284 1.64023 23.7039 1.25762 23.7039C1.03602 23.7039 0.818666 23.7694 0.644426 23.8885ZM36.2813 27.9996C35.9168 28.1656 35.6089 28.5765 35.5494 28.9762C35.5208 29.1678 35.5094 30.1251 35.524 31.1034C35.5485 32.749 35.5632 32.8993 35.7189 33.1087C36.0304 33.5276 36.3032 33.6734 36.7753 33.6734C37.2475 33.6734 37.5203 33.5275 37.8316 33.1085C37.9913 32.8936 38 32.7747 38 30.8015C38 28.8284 37.9913 28.7095 37.8316 28.4946C37.4404 27.968 36.7997 27.7633 36.2813 27.9996ZM10.9976 38.8223L10.9739 39.4992L9.443 39.5216L7.91207 39.5439V38.8446V38.1454H9.46668H11.0214L10.9976 38.8223ZM30.4303 38.8223L30.4066 39.4992L28.8756 39.5216L27.3447 39.5439V38.8446V38.1454H28.8993H30.454L30.4303 38.8223Z" fill="#262626"/>
</svg>
