<svg width="42" height="42" viewBox="0 0 42 42" fill="none" xmlns="http://www.w3.org/2000/svg">
<path d="M21 25.75H14.5543C8.93263 25.75 4.375 29.7376 4.375 34.6562V37.625M37.625 9.125V21C37.625 22.2598 37.1246 23.468 36.2338 24.3588C35.343 25.2496 34.1348 25.75 32.875 25.75H28.125V37.625M25.75 11.5C25.75 12.4357 25.5657 13.3622 25.2076 14.2266C24.8496 15.0911 24.3248 15.8765 23.6631 16.5381C23.0015 17.1998 22.2161 17.7246 21.3516 18.0826C20.4872 18.4407 19.5607 18.625 18.625 18.625C17.6893 18.625 16.7628 18.4407 15.8984 18.0826C15.0339 17.7246 14.2485 17.1998 13.5869 16.5381C12.9252 15.8765 12.4004 15.0911 12.0424 14.2266C11.6843 13.3622 11.5 12.4357 11.5 11.5C11.5 9.61033 12.2507 7.79806 13.5869 6.46186C14.9231 5.12567 16.7353 4.375 18.625 4.375C20.5147 4.375 22.3269 5.12567 23.6631 6.46186C24.9993 7.79806 25.75 9.61033 25.75 11.5V11.5Z" stroke="#262626" stroke-width="4" stroke-linecap="round" stroke-linejoin="round"/>
</svg>
