<svg width="48" height="48" viewBox="0 0 48 48" fill="none" xmlns="http://www.w3.org/2000/svg">
<path d="M14 39.32V42C14 42.5305 14.2107 43.0392 14.5858 43.4142C14.9609 43.7893 15.4696 44 16 44H32C32.5304 44 33.0391 43.7893 33.4142 43.4142C33.7893 43.0392 34 42.5305 34 42V39.32C37.0403 37.5647 39.565 35.04 41.3204 31.9997C43.0757 28.9594 43.9999 25.5107 44 22C44 21.4696 43.7893 20.9609 43.4142 20.5858C43.0391 20.2107 42.5304 20 42 20C41.9634 18.7755 41.6132 17.5808 40.9828 16.5303C40.3525 15.4798 39.4632 14.6086 38.4 14C38.145 12.2579 37.2707 10.666 35.9373 9.51628C34.6038 8.36652 32.9007 7.73589 31.14 7.74002C30.4648 7.73886 29.7924 7.82627 29.14 8.00002C27.7634 6.68573 25.9333 5.95239 24.03 5.95239C22.1267 5.95239 20.2966 6.68573 18.92 8.00002C18.2676 7.82627 17.5952 7.73886 16.92 7.74002C15.1525 7.72623 13.4396 8.35248 12.0978 9.50311C10.756 10.6537 9.87591 12.251 9.62 14C8.55303 14.6061 7.65973 15.4762 7.02583 16.5269C6.39192 17.5776 6.03868 18.7735 6 20C5.46957 20 4.96086 20.2107 4.58579 20.5858C4.21071 20.9609 4 21.4696 4 22C4.00009 25.5107 4.92426 28.9594 6.67962 31.9997C8.43498 35.04 10.9597 37.5647 14 39.32ZM12.22 17.32L13.88 16.8L13.56 15C13.5652 14.5693 13.6552 14.1438 13.8249 13.7478C13.9946 13.3519 14.2406 12.9932 14.5489 12.6924C14.8572 12.3915 15.2217 12.1543 15.6217 11.9943C16.0217 11.8344 16.4493 11.7547 16.88 11.76C17.4576 11.7567 18.0273 11.894 18.54 12.16L20.16 13.06L21.16 11.52C21.4727 11.0539 21.8954 10.6719 22.3907 10.4078C22.886 10.1436 23.4387 10.0055 24 10.0055C24.5613 10.0055 25.114 10.1436 25.6093 10.4078C26.1046 10.6719 26.5273 11.0539 26.84 11.52L27.84 13.06L29.46 12.16C29.9727 11.894 30.5424 11.7567 31.12 11.76C31.9851 11.7491 32.8198 12.0784 33.4445 12.6769C34.0692 13.2754 34.4339 14.0953 34.46 14.96L34.14 16.66L35.78 17.22C36.385 17.4093 36.9196 17.7752 37.3151 18.2705C37.7107 18.7659 37.9492 19.3681 38 20H10C10.0508 19.3681 10.2893 18.7659 10.6849 18.2705C11.0804 17.7752 11.615 17.4093 12.22 17.22V17.32ZM39.88 24C39.5463 26.6185 38.57 29.1137 37.0381 31.2633C35.5061 33.4129 33.4662 35.1501 31.1 36.32C30.7671 36.4877 30.4878 36.7452 30.2934 37.0632C30.099 37.3813 29.9974 37.7473 30 38.12V40H18V38.12C18.0026 37.7473 17.901 37.3813 17.7066 37.0632C17.5122 36.7452 17.2329 36.4877 16.9 36.32C14.5338 35.1501 12.4939 33.4129 10.9619 31.2633C9.42998 29.1137 8.45367 26.6185 8.12 24H39.88Z" fill="#262626"/>
</svg>
