<svg width="30" height="32" viewBox="0 0 30 32" fill="none" xmlns="http://www.w3.org/2000/svg">
<path d="M8.51389 5.22368V3.56579C8.51389 2.65395 8.83783 1.87308 9.48572 1.22318C10.1325 0.574395 10.9104 0.25 11.8194 0.25H18.4306C19.3396 0.25 20.118 0.574395 20.7659 1.22318C21.4127 1.87308 21.7361 2.65395 21.7361 3.56579V5.22368H26.6944C27.6035 5.22368 28.3819 5.54863 29.0298 6.19853C29.6766 6.84732 30 7.62763 30 8.53947V28.4342C30 29.3461 29.6766 30.1269 29.0298 30.7768C28.3819 31.4256 27.6035 31.75 26.6944 31.75H3.55556C2.64653 31.75 1.86807 31.4256 1.22018 30.7768C0.573393 30.1269 0.25 29.3461 0.25 28.4342V8.53947C0.25 7.62763 0.573393 6.84732 1.22018 6.19853C1.86807 5.54863 2.64653 5.22368 3.55556 5.22368H8.51389ZM3.55556 28.4342H26.6944V13.5132H23.3889V16.8289C23.3889 17.7408 23.0655 18.5211 22.4187 19.1699C21.7708 19.8198 20.9924 20.1447 20.0833 20.1447H10.1667C9.25764 20.1447 8.47973 19.8198 7.83294 19.1699C7.18506 18.5211 6.86111 17.7408 6.86111 16.8289V13.5132H3.55556V28.4342ZM8.51389 26.7763C8.0456 26.7763 7.65279 26.6172 7.33546 26.2988C7.01923 25.9816 6.86111 25.5882 6.86111 25.1184C6.86111 24.6487 7.01923 24.2552 7.33546 23.938C7.65279 23.6197 8.0456 23.4605 8.51389 23.4605C8.98218 23.4605 9.37499 23.6197 9.69232 23.938C10.0086 24.2552 10.1667 24.6487 10.1667 25.1184C10.1667 25.5882 10.0086 25.9816 9.69232 26.2988C9.37499 26.6172 8.98218 26.7763 8.51389 26.7763ZM15.125 26.7763C14.6567 26.7763 14.2645 26.6172 13.9482 26.2988C13.6309 25.9816 13.4722 25.5882 13.4722 25.1184C13.4722 24.6487 13.6309 24.2552 13.9482 23.938C14.2645 23.6197 14.6567 23.4605 15.125 23.4605C15.5933 23.4605 15.9861 23.6197 16.3034 23.938C16.6197 24.2552 16.7778 24.6487 16.7778 25.1184C16.7778 25.5882 16.6197 25.9816 16.3034 26.2988C15.9861 26.6172 15.5933 26.7763 15.125 26.7763ZM21.7361 26.7763C21.2678 26.7763 20.8756 26.6172 20.5593 26.2988C20.242 25.9816 20.0833 25.5882 20.0833 25.1184C20.0833 24.6487 20.242 24.2552 20.5593 23.938C20.8756 23.6197 21.2678 23.4605 21.7361 23.4605C22.2044 23.4605 22.5967 23.6197 22.9129 23.938C23.2302 24.2552 23.3889 24.6487 23.3889 25.1184C23.3889 25.5882 23.2302 25.9816 22.9129 26.2988C22.5967 26.6172 22.2044 26.7763 21.7361 26.7763ZM10.1667 16.8289H20.0833V13.5132H10.1667V16.8289ZM3.55556 10.1974H26.6944V8.53947H3.55556V10.1974ZM11.8194 5.22368H18.4306V3.56579H11.8194V5.22368Z" fill="#262626"/>
</svg>
