<svg width="48" height="48" viewBox="0 0 48 48" fill="none" xmlns="http://www.w3.org/2000/svg">
<path fill-rule="evenodd" clip-rule="evenodd" d="M26.1 8C26.1 7.17157 26.7716 6.5 27.6 6.5H42C42.8284 6.5 43.5 7.17157 43.5 8V34.6667C43.5 36.292 42.3278 37.6127 40.8 37.8905V40C40.8 40.8284 40.1284 41.5 39.3 41.5C38.4716 41.5 37.8 40.8284 37.8 40V37.9444H34.5V40C34.5 40.8284 33.8284 41.5 33 41.5C32.1716 41.5 31.5 40.8284 31.5 40V37.9444H23.7V40C23.7 40.8284 23.0284 41.5 22.2 41.5C21.3716 41.5 20.7 40.8284 20.7 40V37.9444H17.4V40C17.4 40.8284 16.7284 41.5 15.9 41.5C15.0716 41.5 14.4 40.8284 14.4 40V37.9444H11.1V40C11.1 40.8284 10.4284 41.5 9.6 41.5C8.77157 41.5 8.1 40.8284 8.1 40V37.7219C6.02354 37.089 4.5 35.1761 4.5 32.8889V27.5556C4.5 22.7807 8.41119 18.9444 13.2 18.9444H26.1V8ZM29.1 16.6111V20.4444C29.1 21.2729 28.4284 21.9444 27.6 21.9444H22.8V25.7778C22.8 26.6062 22.1284 27.2778 21.3 27.2778C20.4716 27.2778 19.8 26.6062 19.8 25.7778V21.9444H16.5V25.7778C16.5 26.6062 15.8284 27.2778 15 27.2778C14.1716 27.2778 13.5 26.6062 13.5 25.7778V21.9444H13.2C10.0328 21.9444 7.5 24.4726 7.5 27.5556V32.8889C7.5 34.0074 8.4218 34.9444 9.6 34.9444H40.2C40.3882 34.9444 40.5 34.8074 40.5 34.6667V16.6111H29.1ZM40.5 13.6111H29.1V9.5H40.5V13.6111Z" fill="#262626"/>
</svg>
