<svg width="22" height="22" viewBox="0 0 22 22" fill="none" xmlns="http://www.w3.org/2000/svg">
<path fill-rule="evenodd" clip-rule="evenodd" d="M6.78802 4.49171C6.83401 4.95493 7.22484 5.31671 7.70016 5.31671C8.17548 5.31671 8.56631 4.95493 8.6123 4.49171H12.563C12.609 4.95493 12.9998 5.31671 13.4752 5.31671C13.9505 5.31671 14.3413 4.95493 14.3873 4.49171H15.1252C15.7573 4.49171 16.3635 4.74281 16.8104 5.18977C17.2357 5.61508 17.4837 6.18458 17.5067 6.78337H3.66859C3.69162 6.18458 3.93958 5.61508 4.36489 5.18977C4.81185 4.74281 5.41806 4.49171 6.05016 4.49171H6.78802ZM1.8335 14.3C1.8335 15.4184 2.27775 16.4909 3.06853 17.2817C3.85931 18.0724 4.93183 18.5167 6.05016 18.5167H8.52516C9.03142 18.5167 9.44182 18.1063 9.44182 17.6C9.44182 17.0938 9.03142 16.6834 8.52516 16.6834H6.05016C5.41806 16.6834 4.81185 16.4323 4.36489 15.9853C3.91793 15.5383 3.66683 14.9321 3.66683 14.3V8.6167H17.5085V9.35003C17.5085 9.8563 17.9189 10.2667 18.4251 10.2667C18.9314 10.2667 19.3418 9.8563 19.3418 9.35003V6.87504C19.3418 5.75671 18.8976 4.68418 18.1068 3.89341C17.316 3.10263 16.2435 2.65837 15.1252 2.65837H14.3873C14.3413 2.19515 13.9505 1.83337 13.4752 1.83337C12.9998 1.83337 12.609 2.19515 12.563 2.65837H8.6123C8.56631 2.19515 8.17548 1.83337 7.70016 1.83337C7.22484 1.83337 6.83401 2.19515 6.78802 2.65837H6.05016C4.93183 2.65837 3.85931 3.10263 3.06853 3.89341C2.27775 4.68418 1.8335 5.75671 1.8335 6.87504V14.3ZM17.0108 13.3573C17.3688 13.7153 17.3688 14.2957 17.0108 14.6537L15.7733 15.8912C15.4154 16.2492 14.835 16.2492 14.477 15.8912C14.119 15.5332 14.119 14.9528 14.477 14.5948L15.7145 13.3573C16.0725 12.9993 16.6529 12.9993 17.0108 13.3573Z" fill="#262626"/>
<path fill-rule="evenodd" clip-rule="evenodd" d="M15.1252 11.9167C13.3533 11.9167 11.9168 13.3531 11.9168 15.125C11.9168 16.8969 13.3533 18.3334 15.1252 18.3334C16.8971 18.3334 18.3335 16.8969 18.3335 15.125C18.3335 13.3531 16.8971 11.9167 15.1252 11.9167ZM10.0835 15.125C10.0835 12.3406 12.3407 10.0834 15.1252 10.0834C17.9096 10.0834 20.1668 12.3406 20.1668 15.125C20.1668 17.9095 17.9096 20.1667 15.1252 20.1667C12.3407 20.1667 10.0835 17.9095 10.0835 15.125Z" fill="#262626"/>
</svg>
