<svg width="22" height="22" viewBox="0 0 22 22" xmlns="http://www.w3.org/2000/svg">
<path fill-rule="evenodd" clip-rule="evenodd" d="M6.79173 1.74997C7.17852 1.36317 7.70313 1.14587 8.25014 1.14587C8.79691 1.14587 9.3213 1.36298 9.70806 1.74948C10.0948 2.13598 10.3123 2.66023 10.3126 3.207L10.3126 4.73556C10.5349 4.65562 10.7682 4.61592 11.0001 4.61592C11.5174 4.61592 12.0411 4.81337 12.4354 5.21406C12.551 5.33153 12.6522 5.46298 12.7377 5.60695C13.0504 5.42601 13.4017 5.33642 13.7501 5.33642C14.2674 5.33642 14.7911 5.53387 15.1854 5.93456C15.3669 6.11897 15.5129 6.33785 15.6181 6.58554C15.8965 6.45091 16.1994 6.38417 16.5001 6.38417C17.0174 6.38417 17.5411 6.58162 17.9354 6.98231C18.3355 7.38874 18.5626 7.96257 18.5626 8.64329V16.5C18.5626 18.6676 16.8321 20.8542 14.2085 20.8542H9.97255C9.26592 20.8542 8.59245 20.5582 8.11551 20.0373L4.64698 16.2534C4.24944 15.82 4.01596 15.2612 3.98696 14.6738C3.95795 14.0864 4.13524 13.5073 4.48814 13.0369L6.18764 10.7709V3.20837C6.18764 2.66137 6.40493 2.13676 6.79173 1.74997ZM7.56264 11.0081C7.56269 11.0031 7.56269 10.9981 7.56264 10.9931V3.20837C7.56264 3.02604 7.63507 2.85117 7.764 2.72224C7.89293 2.59331 8.0678 2.52087 8.25014 2.52087C8.43239 2.52087 8.60719 2.59324 8.73611 2.72208C8.86503 2.85091 8.93752 3.02566 8.93764 3.20792V9.16671C8.93764 9.5464 9.24544 9.85421 9.62514 9.85421C10.0048 9.85421 10.3126 9.5464 10.3126 9.16671V6.87504C10.3126 6.50801 10.4292 6.29603 10.5448 6.17859C10.6661 6.0554 10.8299 5.99092 11.0001 5.99092C11.1704 5.99092 11.3342 6.0554 11.4555 6.17859C11.5711 6.29603 11.6876 6.50801 11.6876 6.87504V9.16671C11.6876 9.5464 11.9954 9.85421 12.3751 9.85421C12.7548 9.85421 13.0626 9.5464 13.0626 9.16671V7.59554C13.0626 7.22851 13.1792 7.01653 13.2948 6.89909C13.4161 6.7759 13.5799 6.71142 13.7501 6.71142C13.9204 6.71142 14.0842 6.7759 14.2055 6.89909C14.3211 7.01653 14.4376 7.22851 14.4376 7.59554V9.16671C14.4376 9.5464 14.7454 9.85421 15.1251 9.85421C15.5048 9.85421 15.8126 9.5464 15.8126 9.16671L15.8126 8.64329C15.8126 8.27626 15.9292 8.06428 16.0448 7.94684C16.1661 7.82365 16.3299 7.75917 16.5001 7.75917C16.6704 7.75917 16.8342 7.82365 16.9555 7.94684C17.0711 8.06428 17.1876 8.27626 17.1876 8.64329V16.5C17.1876 17.9991 15.9849 19.4792 14.2085 19.4792H9.97255C9.65086 19.4792 9.34549 19.3446 9.12945 19.1085L5.66043 15.3242C5.47973 15.1271 5.37347 14.873 5.36028 14.606C5.3471 14.339 5.42769 14.0758 5.58811 13.8619L6.18764 13.0625V13.75C6.18764 14.1297 6.49544 14.4375 6.87514 14.4375C7.25483 14.4375 7.56264 14.1297 7.56264 13.75V11.0081Z" />
</svg>
