<svg width="48" height="48" viewBox="0 0 48 48" fill="none" xmlns="http://www.w3.org/2000/svg">
<path fill-rule="evenodd" clip-rule="evenodd" d="M24.1983 4.00232C24.7409 3.46088 25.4761 3.1568 26.2426 3.1568C27.0091 3.1568 27.7443 3.46088 28.2868 4.00232L28.2883 4.00378L43.9953 19.7108C44.5377 20.2535 44.8428 20.9897 44.8428 21.757C44.8428 22.5243 44.5381 23.2602 43.9956 23.8029L43.2126 24.5849C39.8463 27.9526 35.1913 29.2462 30.8344 28.4662C30.7877 28.5212 30.7387 28.5746 30.6874 28.6261L19.1713 40.1422C17.6709 41.6424 15.6359 42.4853 13.5141 42.4851C11.3923 42.485 9.35749 41.642 7.85726 40.1416C6.35703 38.6412 5.51428 36.6063 5.5144 34.4845C5.51453 32.3627 6.35752 30.3279 7.85793 28.8277L19.372 17.3146C19.424 17.2627 19.478 17.213 19.5337 17.1658C18.7536 12.809 20.047 8.15364 23.4138 4.78678L24.1983 4.00232ZM30.0354 24.1359L23.8638 17.9643C22.6507 14.4593 23.4435 10.414 26.2423 7.61521L40.3841 21.7565C37.5863 24.5556 33.5407 25.3493 30.0354 24.1359ZM20.9958 21.3476L10.6862 31.6563C9.93599 32.4064 9.51447 33.4238 9.5144 34.4848C9.51434 35.5457 9.93573 36.5631 10.6859 37.3134C11.436 38.0636 12.4534 38.4851 13.5143 38.4851C14.5752 38.4852 15.5926 38.0639 16.3428 37.3138C16.3429 37.3138 16.3428 37.3138 16.3428 37.3138L26.6526 27.004C25.4896 26.3745 24.3968 25.5682 23.4138 24.5852C22.4312 23.6026 21.6252 22.5102 20.9958 21.3476ZM26.2428 16.1008C27.0239 15.3197 28.2902 15.3197 29.0713 16.1008L31.8993 18.9288C32.6803 19.7098 32.6803 20.9762 31.8993 21.7572C31.1182 22.5383 29.8519 22.5383 29.0708 21.7572L26.2428 18.9292C25.4618 18.1482 25.4618 16.8818 26.2428 16.1008ZM21.2938 26.7073C22.0745 27.4886 22.0741 28.7549 21.2928 29.5357L19.8778 30.9497C19.0964 31.7305 17.8301 31.73 17.0493 30.9487C16.2686 30.1674 16.269 28.9011 17.0503 28.1203L18.4653 26.7063C19.2467 25.9255 20.513 25.926 21.2938 26.7073Z" fill="#262626"/>
</svg>
