<svg width="48" height="48" viewBox="0 0 48 48" fill="none" xmlns="http://www.w3.org/2000/svg">
<path fill-rule="evenodd" clip-rule="evenodd" d="M43 24V43H24H5L5.0003 37.1924C5.00052 32.3398 5.01922 31.2698 5.11393 30.6859C5.568 27.8861 7.47067 25.5448 10.1211 24.5244C11.2064 24.1065 11.5751 24.0615 14.3887 24.003C17.2555 23.9433 17.3284 23.9325 18.3223 23.4218C19.0579 23.0438 19.9414 22.1445 20.3061 21.4023C20.8266 20.3434 20.8063 20.7053 20.8075 12.4404L20.8086 5H25.5586H30.3086V7.375V9.75H31.9043H33.5V7.375V5H38.25H43V24ZM36.6723 14.1104C36.6427 20.7272 36.6766 20.2988 36.0919 21.4567C35.5458 22.5384 34.6211 23.3222 33.3879 23.749C32.582 24.0279 31.3604 24.0493 30.5684 23.7983C29.1357 23.3444 27.9628 22.1802 27.4354 20.6886L27.2285 20.1035L27.2078 14.1475L27.1872 8.19141H25.5935H24L23.9997 13.999C23.9994 20.3596 23.9889 20.5462 23.5608 21.8046C22.6428 24.5039 20.2646 26.5374 17.4238 27.0523C17.1832 27.096 15.8508 27.1563 14.4629 27.1864C12.1729 27.2361 11.8948 27.2558 11.457 27.3999C10.0561 27.8607 8.86108 29.0557 8.39974 30.457C8.26971 30.852 8.23512 31.1715 8.20885 32.2197L8.17671 33.5H23.9927H39.8086V20.8457V8.19141H38.2537H36.6988L36.6723 14.1104ZM30.3236 16.2256C30.3436 19.2018 30.3582 19.5376 30.4795 19.8066C30.8635 20.6583 31.773 21.0336 32.5729 20.6702C32.9471 20.5002 33.32 20.0807 33.4213 19.7159C33.4702 19.54 33.4993 18.2253 33.4996 16.1885L33.5 12.9414H31.9007H30.3014L30.3236 16.2256ZM33.5 38.25V39.8086H36.6543H39.8086V38.25V36.6914H36.6543H33.5V38.25ZM8.19141 38.25V39.8086H19.25H30.3086V38.25V36.6914H19.25H8.19141V38.25Z" fill="#262626"/>
</svg>
