<svg width="48" height="48" viewBox="0 0 48 48" fill="none" xmlns="http://www.w3.org/2000/svg">
<path d="M35.0011 4.68902C33.032 2.72012 30.3614 1.61401 27.5768 1.61401C24.7922 1.61401 22.1217 2.72012 20.1526 4.68902L9.65259 15.189C8.71037 14.9289 7.71428 14.9368 6.7763 15.2118C5.83832 15.4868 4.99563 16.0179 4.34296 16.7456C3.69029 17.4732 3.25352 18.3684 3.08174 19.3307C2.90997 20.2929 3.01 21.284 3.37059 22.1925C2.36392 24.1689 2.00867 26.4132 2.35572 28.6038C2.70278 30.7945 3.73433 32.8191 5.30259 34.3875L13.7881 42.873C14.7631 43.8482 15.9207 44.6217 17.1947 45.1494C18.4687 45.6772 19.8341 45.9488 21.2131 45.9488C22.5921 45.9488 23.9575 45.6772 25.2315 45.1494C26.5055 44.6217 27.6631 43.8482 28.6381 42.873L29.3656 42.1455C29.8386 42.7153 30.4697 43.1323 31.1794 43.3439C31.8891 43.5555 32.6455 43.5522 33.3533 43.3345C34.0611 43.1168 34.6886 42.6944 35.1567 42.1206C35.6248 41.5467 35.9125 40.8471 35.9836 40.11C37.4553 40.6351 39.0635 40.6333 40.5341 40.105C42.0046 39.5767 43.2463 38.5546 44.0473 37.213C44.8484 35.8714 45.1592 34.2935 44.9267 32.7483C44.6943 31.2032 43.9329 29.7865 42.7726 28.74L43.4866 28.0245C44.4617 27.0495 45.2352 25.8919 45.763 24.6179C46.2907 23.344 46.5623 21.9785 46.5623 20.5995C46.5623 19.2206 46.2907 17.8551 45.763 16.5811C45.2352 15.3071 44.4617 14.1496 43.4866 13.1745L35.0011 4.68902ZM13.4761 19.737C13.3722 18.6683 12.9417 17.6575 12.2431 16.842L22.2736 6.81002C23.6801 5.40353 25.5877 4.61337 27.5768 4.61337C29.5659 4.61337 31.4736 5.40353 32.8801 6.81002L41.3656 15.2955C42.7721 16.702 43.5622 18.6097 43.5622 20.5988C43.5622 22.5879 42.7721 24.4955 41.3656 25.902L40.0306 27.237C38.4037 26.7935 36.6699 26.9738 35.1691 27.7425L39.9406 22.971C40.2193 22.6924 40.4404 22.3617 40.5912 21.9976C40.7421 21.6335 40.8197 21.2433 40.8197 20.8493C40.8197 20.4552 40.7421 20.065 40.5912 19.7009C40.4404 19.3369 40.2193 19.0061 39.9406 18.7275L29.3356 8.12252C29.057 7.84359 28.7261 7.62232 28.3619 7.47134C27.9977 7.32037 27.6073 7.24266 27.2131 7.24266C26.8188 7.24266 26.4285 7.32037 26.0643 7.47134C25.7001 7.62232 25.3692 7.84359 25.0906 8.12252L13.4761 19.7385V19.737ZM13.1206 22.2135L26.1526 9.18152C26.4339 8.90031 26.8153 8.74234 27.2131 8.74234C27.6108 8.74234 27.9923 8.90031 28.2736 9.18152L38.8801 19.788C39.0196 19.9273 39.1302 20.0928 39.2057 20.2749C39.2812 20.457 39.32 20.6521 39.32 20.8493C39.32 21.0464 39.2812 21.2416 39.2057 21.4237C39.1302 21.6058 39.0196 21.7712 38.8801 21.9105L21.9091 38.88C21.6278 39.1612 21.2463 39.3192 20.8486 39.3192C20.4508 39.3192 20.0694 39.1612 19.7881 38.88L9.18309 28.275C9.04362 28.1357 8.93298 27.9703 8.8575 27.7882C8.78201 27.6061 8.74316 27.4109 8.74316 27.2138C8.74316 27.0166 8.78201 26.8215 8.8575 26.6394C8.93298 26.4573 9.04362 26.2918 9.18309 26.1525L10.2136 25.1205C10.8683 24.8556 11.463 24.4617 11.9624 23.9623C12.4618 23.4629 12.8556 22.8682 13.1206 22.2135ZM5.55759 24.7575C6.23798 25.1652 7.00233 25.4125 7.79259 25.4805C7.3838 26.0587 7.1927 26.7628 7.25309 27.4683C7.31348 28.1738 7.62148 28.8352 8.12259 29.3355L18.7276 39.9405C19.0062 40.2192 19.337 40.4403 19.701 40.5912C20.0651 40.742 20.4553 40.8196 20.8493 40.8196C21.2434 40.8196 21.6336 40.742 21.9977 40.5912C22.3617 40.4403 22.6925 40.2192 22.9711 39.9405L32.2426 30.669C31.4738 32.1698 31.2935 33.9037 31.7371 35.5305L31.0831 36.1845C30.5233 36.3684 30.0146 36.6812 29.5979 37.0979C29.1813 37.5145 28.8684 38.0232 28.6846 38.583L26.5171 40.752C25.8206 41.4487 24.9937 42.0013 24.0837 42.3783C23.1736 42.7554 22.1982 42.9494 21.2131 42.9494C20.228 42.9494 19.2526 42.7554 18.3425 42.3783C17.4324 42.0013 16.6056 41.4487 15.9091 40.752L7.42509 32.265C6.46071 31.3013 5.77725 30.093 5.44821 28.77C5.11916 27.4469 5.15698 26.0592 5.55759 24.756V24.7575ZM38.2501 39C36.8577 39 35.5223 38.4469 34.5378 37.4623C33.5532 36.4778 33.0001 35.1424 33.0001 33.75C33.0001 32.3576 33.5532 31.0223 34.5378 30.0377C35.5223 29.0531 36.8577 28.5 38.2501 28.5C39.6425 28.5 40.9778 29.0531 41.9624 30.0377C42.947 31.0223 43.5001 32.3576 43.5001 33.75C43.5001 35.1424 42.947 36.4778 41.9624 37.4623C40.9778 38.4469 39.6425 39 38.2501 39ZM32.2501 37.5C32.3911 37.5 32.5291 37.5135 32.6626 37.5375C33.1426 38.2455 33.7546 38.8575 34.4626 39.3375C34.5474 39.7923 34.49 40.2623 34.2981 40.6832C34.1062 41.1042 33.7892 41.4558 33.3902 41.6901C32.9913 41.9245 32.5298 42.0301 32.0686 41.9926C31.6075 41.9552 31.1691 41.7765 30.8132 41.4809C30.4573 41.1853 30.2011 40.7872 30.0797 40.3408C29.9582 39.8943 29.9773 39.4213 30.1344 38.9861C30.2914 38.5509 30.5789 38.1748 30.9575 37.9088C31.3361 37.6429 31.7874 37.5002 32.2501 37.5ZM8.25009 24C7.25552 24 6.3017 23.6049 5.59844 22.9017C4.89517 22.1984 4.50009 21.2446 4.50009 20.25C4.50009 19.2555 4.89517 18.3016 5.59844 17.5984C6.3017 16.8951 7.25552 16.5 8.25009 16.5C9.24465 16.5 10.1985 16.8951 10.9017 17.5984C11.605 18.3016 12.0001 19.2555 12.0001 20.25C12.0001 21.2446 11.605 22.1984 10.9017 22.9017C10.1985 23.6049 9.24465 24 8.25009 24ZM9.00009 8.25002C9.00009 8.84676 8.76303 9.41905 8.34108 9.84101C7.91912 10.263 7.34682 10.5 6.75009 10.5C6.15335 10.5 5.58105 10.263 5.1591 9.84101C4.73714 9.41905 4.50009 8.84676 4.50009 8.25002C4.50009 7.65328 4.73714 7.08099 5.1591 6.65903C5.58105 6.23707 6.15335 6.00002 6.75009 6.00002C7.34682 6.00002 7.91912 6.23707 8.34108 6.65903C8.76303 7.08099 9.00009 7.65328 9.00009 8.25002ZM7.50009 8.25002C7.50009 8.05111 7.42107 7.86034 7.28042 7.71969C7.13976 7.57904 6.949 7.50002 6.75009 7.50002C6.55117 7.50002 6.36041 7.57904 6.21976 7.71969C6.0791 7.86034 6.00009 8.05111 6.00009 8.25002C6.00009 8.44893 6.0791 8.6397 6.21976 8.78035C6.36041 8.921 6.55117 9.00002 6.75009 9.00002C6.949 9.00002 7.13976 8.921 7.28042 8.78035C7.42107 8.6397 7.50009 8.44893 7.50009 8.25002Z" fill="#262626"/>
</svg>
