<svg width="48" height="48" viewBox="0 0 48 48" fill="none" xmlns="http://www.w3.org/2000/svg">
<path d="M30 12C30.25 12 30.4766 12.0547 30.6797 12.1641L48 20.8125V24C47.5938 24 47.2422 24.1484 46.9453 24.4453C46.6484 24.7422 46.5 25.0938 46.5 25.5V28.5C46.5 29.9531 46.2266 31.3125 45.6797 32.5781C45.1328 33.8438 44.3828 34.9531 43.4297 35.9062C42.4766 36.8594 41.3672 37.6094 40.1016 38.1562C38.8359 38.7031 37.4688 38.9844 36 39C34.5469 39 33.1875 38.7266 31.9219 38.1797C30.6562 37.6328 29.5469 36.8828 28.5938 35.9297C27.6406 34.9766 26.8906 33.8672 26.3438 32.6016C25.7969 31.3359 25.5156 29.9688 25.5 28.5C25.5 28.0938 25.3516 27.7422 25.0547 27.4453C24.7578 27.1484 24.4062 27 24 27C23.5938 27 23.2422 27.1484 22.9453 27.4453C22.6484 27.7422 22.5 28.0938 22.5 28.5C22.5 29.9531 22.2266 31.3125 21.6797 32.5781C21.1328 33.8438 20.3828 34.9531 19.4297 35.9062C18.4766 36.8594 17.3672 37.6094 16.1016 38.1562C14.8359 38.7031 13.4688 38.9844 12 39C10.5469 39 9.1875 38.7266 7.92188 38.1797C6.65625 37.6328 5.54688 36.8828 4.59375 35.9297C3.64062 34.9766 2.89062 33.8672 2.34375 32.6016C1.79688 31.3359 1.51562 29.9688 1.5 28.5V25.5C1.5 25.0938 1.35156 24.7422 1.05469 24.4453C0.757812 24.1484 0.40625 24 0 24V20.8125L17.3203 12.1641C17.5234 12.0547 17.75 12 18 12C18.4062 12 18.7578 12.1484 19.0547 12.4453C19.2109 12.6016 19.3984 12.7734 19.6172 12.9609C19.8359 13.1484 20.0547 13.3594 20.2734 13.5938C20.4922 13.8281 20.6641 14.0547 20.7891 14.2734C20.9141 14.4922 20.9844 14.7344 21 15C21 15.4062 20.8516 15.7578 20.5547 16.0547C20.2578 16.3516 19.9062 16.5 19.5 16.5C19.1094 16.5 18.7812 16.375 18.5156 16.125C18.25 15.875 17.9766 15.6094 17.6953 15.3281L6.35156 21H18C18.5938 21 19.1016 21.0703 19.5234 21.2109C19.9453 21.3516 20.3281 21.5391 20.6719 21.7734C21.0156 22.0078 21.3203 22.25 21.5859 22.5C21.8516 22.75 22.1016 22.9922 22.3359 23.2266C22.5703 23.4609 22.8281 23.6406 23.1094 23.7656C23.3906 23.8906 23.6875 23.9688 24 24C24.3281 24 24.625 23.9297 24.8906 23.7891C25.1562 23.6484 25.4062 23.4609 25.6406 23.2266C25.875 22.9922 26.1328 22.75 26.4141 22.5C26.6953 22.25 26.9922 22.0078 27.3047 21.7734C27.6172 21.5391 28 21.3594 28.4531 21.2344C28.9062 21.1094 29.4219 21.0312 30 21H41.6484L30.3047 15.3281C30.0391 15.5938 29.7734 15.8516 29.5078 16.1016C29.2422 16.3516 28.9062 16.4844 28.5 16.5C28.0938 16.5 27.7422 16.3516 27.4453 16.0547C27.1484 15.7578 27 15.4062 27 15C27 14.75 27.0703 14.5078 27.2109 14.2734C27.3516 14.0391 27.5234 13.8125 27.7266 13.5938C27.9297 13.375 28.1406 13.1719 28.3594 12.9844C28.5781 12.7969 28.7734 12.6172 28.9453 12.4453C29.2422 12.1484 29.5938 12 30 12ZM19.5 27C19.5 26.5938 19.4219 26.2109 19.2656 25.8516C19.1094 25.4922 18.8984 25.1719 18.6328 24.8906C18.3672 24.6094 18.0469 24.3906 17.6719 24.2344C17.2969 24.0781 16.9062 24 16.5 24H6C5.59375 24 5.24219 24.1484 4.94531 24.4453C4.64844 24.7422 4.5 25.0938 4.5 25.5V28.5C4.5 29.5312 4.69531 30.5 5.08594 31.4062C5.47656 32.3125 6.00781 33.1094 6.67969 33.7969C7.35156 34.4844 8.14844 35.0234 9.07031 35.4141C9.99219 35.8047 10.9688 36 12 36C13.0312 36 14 35.8047 14.9062 35.4141C15.8125 35.0234 16.6016 34.4922 17.2734 33.8203C17.9453 33.1484 18.4844 32.3516 18.8906 31.4297C19.2969 30.5078 19.5 29.5312 19.5 28.5V27ZM36 36C37.0312 36 38 35.8047 38.9062 35.4141C39.8125 35.0234 40.6016 34.4922 41.2734 33.8203C41.9453 33.1484 42.4844 32.3516 42.8906 31.4297C43.2969 30.5078 43.5 29.5312 43.5 28.5C43.5 28.1562 43.4922 27.7891 43.4766 27.3984C43.4609 27.0078 43.4531 26.6172 43.4531 26.2266C43.4531 25.8359 43.4688 25.4531 43.5 25.0781C43.5312 24.7031 43.6172 24.3438 43.7578 24H31.5C31.0938 24 30.7109 24.0781 30.3516 24.2344C29.9922 24.3906 29.6719 24.6016 29.3906 24.8672C29.1094 25.1328 28.8906 25.4531 28.7344 25.8281C28.5781 26.2031 28.5 26.5938 28.5 27V28.5C28.5 29.5312 28.6953 30.5 29.0859 31.4062C29.4766 32.3125 30.0078 33.1094 30.6797 33.7969C31.3516 34.4844 32.1484 35.0234 33.0703 35.4141C33.9922 35.8047 34.9688 36 36 36Z" fill="#262626"/>
</svg>
