<svg width="20" height="20" viewBox="0 0 20 20" fill="none" xmlns="http://www.w3.org/2000/svg">
<path d="M19.1668 6.33333C19.1757 6.26948 19.1757 6.20469 19.1668 6.14083V6.0675C19.1511 6.01634 19.1295 5.96713 19.1027 5.92083C19.0908 5.89443 19.0753 5.86976 19.0568 5.8475L18.9652 5.72833L18.7818 5.59083L10.5318 1.0075C10.3925 0.927045 10.2344 0.884689 10.0735 0.884689C9.91259 0.884689 9.75451 0.927045 9.61516 1.0075L1.36516 5.59083L1.28266 5.655L1.18183 5.72833C1.1552 5.75831 1.13354 5.79235 1.11766 5.82917C1.08833 5.85547 1.06356 5.88645 1.04433 5.92083C1.02053 5.96105 1.00204 6.00419 0.98933 6.04917C0.984201 6.07951 0.984201 6.11049 0.98933 6.14083C0.926305 6.19518 0.873526 6.26037 0.833496 6.33333V13.6667C0.834686 13.83 0.879502 13.9901 0.963306 14.1303C1.04711 14.2705 1.16686 14.3858 1.31016 14.4642L9.56016 19.0475C9.59804 19.0696 9.63794 19.088 9.67933 19.1025H9.771C9.92159 19.139 10.0787 19.139 10.2293 19.1025H10.321L10.4493 19.0475L18.6993 14.4642C18.8409 14.3846 18.9588 14.2688 19.041 14.1287C19.1231 13.9885 19.1665 13.8291 19.1668 13.6667V6.33333ZM10.0002 9.88083L3.6385 6.33333L6.1685 4.94L12.4293 8.515L10.0002 9.88083ZM10.0002 2.80417L16.3618 6.33333L14.3085 7.47917L8.04766 3.895L10.0002 2.80417ZM2.66683 7.89167L9.0835 11.485V16.6917L2.66683 13.1258V7.89167ZM10.9168 16.6917V11.485L13.6668 9.945V12.75L15.5002 11.8333V8.91833L17.3335 7.90083V13.1258L10.9168 16.6917Z" fill="#222222"/>
</svg>
