<svg width="71" height="26" viewBox="0 0 71 26" fill="none" xmlns="http://www.w3.org/2000/svg">
<rect width="71" height="26" rx="4" fill="#6CBF43"/>
<path d="M16.1646 15.78C16.1646 16.292 16.0366 16.724 15.7806 17.076C15.5326 17.42 15.1846 17.68 14.7366 17.856C14.2886 18.032 13.7806 18.12 13.2126 18.12C12.8606 18.12 12.5446 18.1 12.2646 18.06C11.9846 18.028 11.7286 17.988 11.4966 17.94C11.2646 17.884 11.0566 17.82 10.8726 17.748V17.052C11.1766 17.172 11.5286 17.28 11.9286 17.376C12.3286 17.464 12.7686 17.508 13.2486 17.508C13.6886 17.508 14.0726 17.444 14.4006 17.316C14.7366 17.188 14.9966 17 15.1806 16.752C15.3726 16.504 15.4686 16.192 15.4686 15.816C15.4686 15.472 15.3886 15.192 15.2286 14.976C15.0766 14.76 14.8366 14.572 14.5086 14.412C14.1886 14.244 13.7766 14.076 13.2726 13.908C12.9126 13.78 12.5886 13.648 12.3006 13.512C12.0206 13.376 11.7806 13.216 11.5806 13.032C11.3806 12.848 11.2286 12.632 11.1246 12.384C11.0206 12.136 10.9686 11.836 10.9686 11.484C10.9686 11.012 11.0886 10.616 11.3286 10.296C11.5686 9.976 11.8926 9.732 12.3006 9.564C12.7166 9.396 13.1846 9.312 13.7046 9.312C14.1206 9.312 14.5166 9.352 14.8926 9.432C15.2686 9.504 15.6246 9.616 15.9606 9.768L15.7326 10.368C15.3966 10.224 15.0566 10.116 14.7126 10.044C14.3686 9.972 14.0246 9.936 13.6806 9.936C13.2806 9.936 12.9286 9.996 12.6246 10.116C12.3286 10.228 12.0966 10.4 11.9286 10.632C11.7606 10.856 11.6766 11.136 11.6766 11.472C11.6766 11.84 11.7566 12.136 11.9166 12.36C12.0766 12.584 12.3086 12.772 12.6126 12.924C12.9166 13.068 13.2886 13.216 13.7286 13.368C14.2326 13.544 14.6646 13.732 15.0246 13.932C15.3926 14.124 15.6726 14.364 15.8646 14.652C16.0646 14.94 16.1646 15.316 16.1646 15.78ZM22.9074 11.616V18H22.3434L22.2474 16.908H22.2114C22.0994 17.14 21.9394 17.348 21.7314 17.532C21.5314 17.716 21.2914 17.86 21.0114 17.964C20.7314 18.068 20.4074 18.12 20.0394 18.12C19.5434 18.12 19.1274 18.036 18.7914 17.868C18.4634 17.692 18.2154 17.432 18.0474 17.088C17.8794 16.744 17.7954 16.316 17.7954 15.804V11.616H18.4794V15.744C18.4794 16.352 18.6154 16.804 18.8874 17.1C19.1674 17.388 19.5754 17.532 20.1114 17.532C20.5834 17.532 20.9754 17.444 21.2874 17.268C21.5994 17.084 21.8314 16.812 21.9834 16.452C22.1434 16.092 22.2234 15.644 22.2234 15.108V11.616H22.9074ZM27.5481 12.168H26.0241V18H25.3401V12.168H24.1641V11.796L25.3401 11.604V10.956C25.3401 10.476 25.4081 10.08 25.5441 9.768C25.6881 9.448 25.9001 9.212 26.1801 9.06C26.4681 8.9 26.8241 8.82 27.2481 8.82C27.4721 8.82 27.6761 8.84 27.8601 8.88C28.0441 8.912 28.2121 8.952 28.3641 9L28.1961 9.564C28.0601 9.516 27.9081 9.476 27.7401 9.444C27.5801 9.412 27.4161 9.396 27.2481 9.396C26.8161 9.396 26.5041 9.52 26.3121 9.768C26.1201 10.008 26.0241 10.404 26.0241 10.956V11.616H27.5481V12.168ZM31.2561 12.168H29.7321V18H29.0481V12.168H27.8721V11.796L29.0481 11.604V10.956C29.0481 10.476 29.1161 10.08 29.2521 9.768C29.3961 9.448 29.6081 9.212 29.8881 9.06C30.1761 8.9 30.5321 8.82 30.9561 8.82C31.1801 8.82 31.3841 8.84 31.5681 8.88C31.7521 8.912 31.9201 8.952 32.0721 9L31.9041 9.564C31.7681 9.516 31.6161 9.476 31.4481 9.444C31.2881 9.412 31.1241 9.396 30.9561 9.396C30.5241 9.396 30.2121 9.52 30.0201 9.768C29.8281 10.008 29.7321 10.404 29.7321 10.956V11.616H31.2561V12.168ZM33.1521 11.616V18H32.4801V11.616H33.1521ZM32.8161 9.252C32.9681 9.252 33.0841 9.3 33.1641 9.396C33.2441 9.484 33.2841 9.608 33.2841 9.768C33.2841 9.936 33.2441 10.068 33.1641 10.164C33.0841 10.252 32.9681 10.296 32.8161 10.296C32.6721 10.296 32.5601 10.252 32.4801 10.164C32.4001 10.068 32.3601 9.936 32.3601 9.768C32.3601 9.608 32.4001 9.484 32.4801 9.396C32.5601 9.3 32.6721 9.252 32.8161 9.252ZM37.8634 18.12C37.2394 18.12 36.7074 17.992 36.2674 17.736C35.8354 17.472 35.5034 17.096 35.2714 16.608C35.0474 16.12 34.9354 15.532 34.9354 14.844C34.9354 14.124 35.0634 13.516 35.3194 13.02C35.5834 12.524 35.9434 12.148 36.3994 11.892C36.8554 11.628 37.3914 11.496 38.0074 11.496C38.3114 11.496 38.5954 11.528 38.8594 11.592C39.1314 11.648 39.3714 11.724 39.5794 11.82L39.3994 12.396C39.1834 12.308 38.9514 12.24 38.7034 12.192C38.4554 12.136 38.2194 12.108 37.9954 12.108C37.4834 12.108 37.0514 12.22 36.6994 12.444C36.3554 12.66 36.0914 12.972 35.9074 13.38C35.7314 13.788 35.6434 14.276 35.6434 14.844C35.6434 15.372 35.7194 15.84 35.8714 16.248C36.0314 16.648 36.2754 16.96 36.6034 17.184C36.9314 17.408 37.3514 17.52 37.8634 17.52C38.1754 17.52 38.4674 17.488 38.7394 17.424C39.0194 17.36 39.2754 17.276 39.5074 17.172V17.796C39.2994 17.884 39.0594 17.96 38.7874 18.024C38.5154 18.088 38.2074 18.12 37.8634 18.12ZM41.7344 11.616V18H41.0624V11.616H41.7344ZM41.3984 9.252C41.5504 9.252 41.6664 9.3 41.7464 9.396C41.8264 9.484 41.8664 9.608 41.8664 9.768C41.8664 9.936 41.8264 10.068 41.7464 10.164C41.6664 10.252 41.5504 10.296 41.3984 10.296C41.2544 10.296 41.1424 10.252 41.0624 10.164C40.9824 10.068 40.9424 9.936 40.9424 9.768C40.9424 9.608 40.9824 9.484 41.0624 9.396C41.1424 9.3 41.2544 9.252 41.3984 9.252ZM46.3115 11.496C46.8635 11.496 47.3195 11.624 47.6795 11.88C48.0475 12.128 48.3235 12.472 48.5075 12.912C48.6995 13.352 48.7955 13.86 48.7955 14.436V14.892H44.2355C44.2355 15.748 44.4315 16.4 44.8235 16.848C45.2235 17.296 45.7875 17.52 46.5155 17.52C46.9155 17.52 47.2635 17.488 47.5595 17.424C47.8555 17.36 48.1795 17.248 48.5315 17.088V17.712C48.2115 17.856 47.8955 17.96 47.5835 18.024C47.2715 18.088 46.9075 18.12 46.4915 18.12C45.8595 18.12 45.3195 17.988 44.8715 17.724C44.4315 17.46 44.0955 17.084 43.8635 16.596C43.6395 16.1 43.5275 15.524 43.5275 14.868C43.5275 14.212 43.6355 13.632 43.8515 13.128C44.0675 12.624 44.3835 12.228 44.7995 11.94C45.2155 11.644 45.7195 11.496 46.3115 11.496ZM46.3115 12.072C45.7195 12.072 45.2435 12.268 44.8835 12.66C44.5235 13.044 44.3115 13.6 44.2475 14.328H48.0875C48.0875 13.88 48.0235 13.488 47.8955 13.152C47.7675 12.816 47.5715 12.552 47.3075 12.36C47.0515 12.168 46.7195 12.072 46.3115 12.072ZM53.4246 11.496C54.1526 11.496 54.7086 11.684 55.0926 12.06C55.4766 12.436 55.6686 13.028 55.6686 13.836V18H54.9966V13.872C54.9966 13.256 54.8566 12.804 54.5766 12.516C54.2966 12.228 53.8846 12.084 53.3406 12.084C52.6446 12.084 52.1206 12.288 51.7686 12.696C51.4166 13.104 51.2406 13.712 51.2406 14.52V18H50.5686V11.616H51.1086L51.2166 12.72H51.2526C51.3726 12.488 51.5326 12.28 51.7326 12.096C51.9326 11.912 52.1726 11.768 52.4526 11.664C52.7406 11.552 53.0646 11.496 53.4246 11.496ZM59.5533 17.544C59.7293 17.544 59.8973 17.532 60.0573 17.508C60.2173 17.476 60.3573 17.44 60.4773 17.4V17.952C60.3573 18 60.2053 18.04 60.0213 18.072C59.8453 18.104 59.6573 18.12 59.4573 18.12C59.1053 18.12 58.8053 18.056 58.5573 17.928C58.3093 17.792 58.1173 17.584 57.9813 17.304C57.8533 17.024 57.7893 16.664 57.7893 16.224V12.168H56.8533V11.784L57.7893 11.568L58.0413 10.092H58.4733V11.616H60.4413V12.168H58.4733V16.2C58.4733 16.64 58.5613 16.976 58.7373 17.208C58.9133 17.432 59.1853 17.544 59.5533 17.544Z" fill="#262626"/>
</svg>
