<svg width="80" height="26" viewBox="0 0 80 26" fill="none" xmlns="http://www.w3.org/2000/svg">
<rect width="80" height="26" rx="4" fill="#6CBF43"/>
<path d="M20.6226 15.78C20.6226 16.292 20.4946 16.724 20.2386 17.076C19.9906 17.42 19.6426 17.68 19.1946 17.856C18.7466 18.032 18.2386 18.12 17.6706 18.12C17.3186 18.12 17.0026 18.1 16.7226 18.06C16.4426 18.028 16.1866 17.988 15.9546 17.94C15.7226 17.884 15.5146 17.82 15.3306 17.748V17.052C15.6346 17.172 15.9866 17.28 16.3866 17.376C16.7866 17.464 17.2266 17.508 17.7066 17.508C18.1466 17.508 18.5306 17.444 18.8586 17.316C19.1946 17.188 19.4546 17 19.6386 16.752C19.8306 16.504 19.9266 16.192 19.9266 15.816C19.9266 15.472 19.8466 15.192 19.6866 14.976C19.5346 14.76 19.2946 14.572 18.9666 14.412C18.6466 14.244 18.2346 14.076 17.7306 13.908C17.3706 13.78 17.0466 13.648 16.7586 13.512C16.4786 13.376 16.2386 13.216 16.0386 13.032C15.8386 12.848 15.6866 12.632 15.5826 12.384C15.4786 12.136 15.4266 11.836 15.4266 11.484C15.4266 11.012 15.5466 10.616 15.7866 10.296C16.0266 9.976 16.3506 9.732 16.7586 9.564C17.1746 9.396 17.6426 9.312 18.1626 9.312C18.5786 9.312 18.9746 9.352 19.3506 9.432C19.7266 9.504 20.0826 9.616 20.4186 9.768L20.1906 10.368C19.8546 10.224 19.5146 10.116 19.1706 10.044C18.8266 9.972 18.4826 9.936 18.1386 9.936C17.7386 9.936 17.3866 9.996 17.0826 10.116C16.7866 10.228 16.5546 10.4 16.3866 10.632C16.2186 10.856 16.1346 11.136 16.1346 11.472C16.1346 11.84 16.2146 12.136 16.3746 12.36C16.5346 12.584 16.7666 12.772 17.0706 12.924C17.3746 13.068 17.7466 13.216 18.1866 13.368C18.6906 13.544 19.1226 13.732 19.4826 13.932C19.8506 14.124 20.1306 14.364 20.3226 14.652C20.5226 14.94 20.6226 15.316 20.6226 15.78ZM27.3774 11.616V18H26.8134L26.7174 16.908H26.6814C26.5694 17.14 26.4094 17.348 26.2014 17.532C26.0014 17.716 25.7614 17.86 25.4814 17.964C25.2014 18.068 24.8774 18.12 24.5094 18.12C24.0134 18.12 23.5974 18.036 23.2614 17.868C22.9334 17.692 22.6854 17.432 22.5174 17.088C22.3494 16.744 22.2654 16.316 22.2654 15.804V11.616H22.9494V15.744C22.9494 16.352 23.0854 16.804 23.3574 17.1C23.6374 17.388 24.0454 17.532 24.5814 17.532C25.0534 17.532 25.4454 17.444 25.7574 17.268C26.0694 17.084 26.3014 16.812 26.4534 16.452C26.6134 16.092 26.6934 15.644 26.6934 15.108V11.616H27.3774ZM32.0301 12.168H30.5061V18H29.8221V12.168H28.6461V11.796L29.8221 11.604V10.956C29.8221 10.476 29.8901 10.08 30.0261 9.768C30.1701 9.448 30.3821 9.212 30.6621 9.06C30.9501 8.9 31.3061 8.82 31.7301 8.82C31.9541 8.82 32.1581 8.84 32.3421 8.88C32.5261 8.912 32.6941 8.952 32.8461 9L32.6781 9.564C32.5421 9.516 32.3901 9.476 32.2221 9.444C32.0621 9.412 31.8981 9.396 31.7301 9.396C31.2981 9.396 30.9861 9.52 30.7941 9.768C30.6021 10.008 30.5061 10.404 30.5061 10.956V11.616H32.0301V12.168ZM35.7381 12.168H34.2141V18H33.5301V12.168H32.3541V11.796L33.5301 11.604V10.956C33.5301 10.476 33.5981 10.08 33.7341 9.768C33.8781 9.448 34.0901 9.212 34.3701 9.06C34.6581 8.9 35.0141 8.82 35.4381 8.82C35.6621 8.82 35.8661 8.84 36.0501 8.88C36.2341 8.912 36.4021 8.952 36.5541 9L36.3861 9.564C36.2501 9.516 36.0981 9.476 35.9301 9.444C35.7701 9.412 35.6061 9.396 35.4381 9.396C35.0061 9.396 34.6941 9.52 34.5021 9.768C34.3101 10.008 34.2141 10.404 34.2141 10.956V11.616H35.7381V12.168ZM37.6341 11.616V18H36.9621V11.616H37.6341ZM37.2981 9.252C37.4501 9.252 37.5661 9.3 37.6461 9.396C37.7261 9.484 37.7661 9.608 37.7661 9.768C37.7661 9.936 37.7261 10.068 37.6461 10.164C37.5661 10.252 37.4501 10.296 37.2981 10.296C37.1541 10.296 37.0421 10.252 36.9621 10.164C36.8821 10.068 36.8421 9.936 36.8421 9.768C36.8421 9.608 36.8821 9.484 36.9621 9.396C37.0421 9.3 37.1541 9.252 37.2981 9.252ZM42.3574 18.12C41.7334 18.12 41.2014 17.992 40.7614 17.736C40.3294 17.472 39.9974 17.096 39.7654 16.608C39.5414 16.12 39.4294 15.532 39.4294 14.844C39.4294 14.124 39.5574 13.516 39.8134 13.02C40.0774 12.524 40.4374 12.148 40.8934 11.892C41.3494 11.628 41.8854 11.496 42.5014 11.496C42.8054 11.496 43.0894 11.528 43.3534 11.592C43.6254 11.648 43.8654 11.724 44.0734 11.82L43.8934 12.396C43.6774 12.308 43.4454 12.24 43.1974 12.192C42.9494 12.136 42.7134 12.108 42.4894 12.108C41.9774 12.108 41.5454 12.22 41.1934 12.444C40.8494 12.66 40.5854 12.972 40.4014 13.38C40.2254 13.788 40.1374 14.276 40.1374 14.844C40.1374 15.372 40.2134 15.84 40.3654 16.248C40.5254 16.648 40.7694 16.96 41.0974 17.184C41.4254 17.408 41.8454 17.52 42.3574 17.52C42.6694 17.52 42.9614 17.488 43.2334 17.424C43.5134 17.36 43.7694 17.276 44.0014 17.172V17.796C43.7934 17.884 43.5534 17.96 43.2814 18.024C43.0094 18.088 42.7014 18.12 42.3574 18.12ZM46.2404 11.616V18H45.5684V11.616H46.2404ZM45.9044 9.252C46.0564 9.252 46.1724 9.3 46.2524 9.396C46.3324 9.484 46.3724 9.608 46.3724 9.768C46.3724 9.936 46.3324 10.068 46.2524 10.164C46.1724 10.252 46.0564 10.296 45.9044 10.296C45.7604 10.296 45.6484 10.252 45.5684 10.164C45.4884 10.068 45.4484 9.936 45.4484 9.768C45.4484 9.608 45.4884 9.484 45.5684 9.396C45.6484 9.3 45.7604 9.252 45.9044 9.252ZM50.8295 11.496C51.3815 11.496 51.8375 11.624 52.1975 11.88C52.5655 12.128 52.8415 12.472 53.0255 12.912C53.2175 13.352 53.3135 13.86 53.3135 14.436V14.892H48.7535C48.7535 15.748 48.9495 16.4 49.3415 16.848C49.7415 17.296 50.3055 17.52 51.0335 17.52C51.4335 17.52 51.7815 17.488 52.0775 17.424C52.3735 17.36 52.6975 17.248 53.0495 17.088V17.712C52.7295 17.856 52.4135 17.96 52.1015 18.024C51.7895 18.088 51.4255 18.12 51.0095 18.12C50.3775 18.12 49.8375 17.988 49.3895 17.724C48.9495 17.46 48.6135 17.084 48.3815 16.596C48.1575 16.1 48.0455 15.524 48.0455 14.868C48.0455 14.212 48.1535 13.632 48.3695 13.128C48.5855 12.624 48.9015 12.228 49.3175 11.94C49.7335 11.644 50.2375 11.496 50.8295 11.496ZM50.8295 12.072C50.2375 12.072 49.7615 12.268 49.4015 12.66C49.0415 13.044 48.8295 13.6 48.7655 14.328H52.6055C52.6055 13.88 52.5415 13.488 52.4135 13.152C52.2855 12.816 52.0895 12.552 51.8255 12.36C51.5695 12.168 51.2375 12.072 50.8295 12.072ZM57.9546 11.496C58.6826 11.496 59.2386 11.684 59.6226 12.06C60.0066 12.436 60.1986 13.028 60.1986 13.836V18H59.5266V13.872C59.5266 13.256 59.3866 12.804 59.1066 12.516C58.8266 12.228 58.4146 12.084 57.8706 12.084C57.1746 12.084 56.6506 12.288 56.2986 12.696C55.9466 13.104 55.7706 13.712 55.7706 14.52V18H55.0986V11.616H55.6386L55.7466 12.72H55.7826C55.9026 12.488 56.0626 12.28 56.2626 12.096C56.4626 11.912 56.7026 11.768 56.9826 11.664C57.2706 11.552 57.5946 11.496 57.9546 11.496ZM64.0953 17.544C64.2713 17.544 64.4393 17.532 64.5993 17.508C64.7593 17.476 64.8993 17.44 65.0193 17.4V17.952C64.8993 18 64.7473 18.04 64.5633 18.072C64.3873 18.104 64.1993 18.12 63.9993 18.12C63.6473 18.12 63.3473 18.056 63.0993 17.928C62.8513 17.792 62.6593 17.584 62.5233 17.304C62.3953 17.024 62.3313 16.664 62.3313 16.224V12.168H61.3953V11.784L62.3313 11.568L62.5833 10.092H63.0153V11.616H64.9833V12.168H63.0153V16.2C63.0153 16.64 63.1033 16.976 63.2793 17.208C63.4553 17.432 63.7273 17.544 64.0953 17.544Z" fill="#262626"/>
</svg>
