<svg width="48" height="48" viewBox="0 0 48 48" fill="none" xmlns="http://www.w3.org/2000/svg">
<path fill-rule="evenodd" clip-rule="evenodd" d="M18.0442 2.00002C17.7669 1.99373 17.4838 2.04533 17.2122 2.16173L3.21216 8.16173C2.47679 8.47689 2 9.19997 2 10V37C2 38.1046 2.89543 39 4 39H9V44C9 45.1046 9.89543 46 11 46H37C38.1046 46 39 45.1046 39 44V39H44C45.1046 39 46 38.1046 46 37V10C46 9.19997 45.5232 8.47689 44.7878 8.16173L30.7878 2.16173C30.5162 2.04533 30.2331 1.99373 29.9558 2.00002H18.0442ZM26.9669 6.00002H21.0331L24 12.9228L26.9669 6.00002ZM31.0505 6.62615L26 18.4105V42H35V21C35 19.8955 35.8954 19 37 19C38.1046 19 39 19.8955 39 21V35H42V11.3188L31.0505 6.62615ZM22 42V18.4105L16.9495 6.62615L6 11.3188V35H9V21C9 19.8955 9.89543 19 11 19C12.1046 19 13 19.8955 13 21V42H22Z" fill="#262626"/>
<path fill-rule="evenodd" clip-rule="evenodd" d="M18.8944 2.21117C19.8824 2.70515 20.2828 3.90649 19.7889 4.89445L16.3326 11.807L19.6175 16.3237C20.0086 16.8615 20.1068 17.5585 19.8796 18.1835L18.1963 22.8125L24 32.9689L29.8037 22.8125L28.1204 18.1835C27.8666 17.4855 28.0205 16.7043 28.5201 16.1547L32.5012 11.7755L28.304 5.06002C27.7186 4.12335 28.0033 2.88945 28.94 2.30403C29.8767 1.71861 31.1106 2.00335 31.696 2.94003L36.696 10.94C37.1708 11.6997 37.0825 12.6825 36.4799 13.3454L32.2924 17.9516L33.8796 22.3165C34.0805 22.869 34.0281 23.4819 33.7365 23.9923L25.7532 37.9631C25.6636 38.1266 25.5504 38.2787 25.4154 38.4138C25.2415 38.5881 25.0392 38.726 24.8205 38.8241C24.5559 38.9435 24.2764 39.0006 24 39.0004C23.7236 39.0006 23.4441 38.9435 23.1795 38.8241C22.9608 38.726 22.7585 38.5881 22.5846 38.4138C22.4496 38.2787 22.3364 38.1266 22.2468 37.9631L14.2635 23.9923C13.9719 23.4819 13.9195 22.869 14.1204 22.3165L15.7569 17.8162L12.3825 13.1764C11.9432 12.5723 11.8771 11.7737 12.2111 11.1056L16.2111 3.1056C16.7051 2.11764 17.9065 1.71719 18.8944 2.21117Z" fill="#262626"/>
</svg>
