<svg width="48" height="48" viewBox="0 0 48 48" fill="none" xmlns="http://www.w3.org/2000/svg">
<path d="M37.5 7.5C37.1022 7.5 36.7206 7.65804 36.4393 7.93934C36.158 8.22064 36 8.60218 36 9C36 9.39782 36.158 9.77936 36.4393 10.0607C36.7206 10.342 37.1022 10.5 37.5 10.5C38.2957 10.5 39.0587 10.8161 39.6213 11.3787C40.1839 11.9413 40.5 12.7044 40.5 13.5V24.75H7.5V13.5C7.5 12.7044 7.81607 11.9413 8.37868 11.3787C8.94129 10.8161 9.70435 10.5 10.5 10.5C10.8978 10.5 11.2794 10.342 11.5607 10.0607C11.842 9.77936 12 9.39782 12 9C12 8.60218 11.842 8.22064 11.5607 7.93934C11.2794 7.65804 10.8978 7.5 10.5 7.5C8.91022 7.50494 7.38697 8.13867 6.26282 9.26282C5.13867 10.387 4.50494 11.9102 4.5 13.5V30.75C4.5 32.938 5.36919 35.0365 6.91637 36.5836C8.46354 38.1308 10.562 39 12.75 39C14.938 39 17.0365 38.1308 18.5836 36.5836C20.1308 35.0365 21 32.938 21 30.75V27.75H27V30.75C27 32.938 27.8692 35.0365 29.4164 36.5836C30.9635 38.1308 33.062 39 35.25 39C37.438 39 39.5365 38.1308 41.0836 36.5836C42.6308 35.0365 43.5 32.938 43.5 30.75V13.5C43.4951 11.9102 42.8613 10.387 41.7372 9.26282C40.613 8.13867 39.0898 7.50494 37.5 7.5ZM15.9375 33.1875C15.8023 33.33 15.6394 33.4434 15.4589 33.5208C15.2784 33.5981 15.0839 33.6379 14.8875 33.6375C14.6884 33.6372 14.4914 33.5972 14.3079 33.52C14.1244 33.4427 13.9581 33.3297 13.8187 33.1875L10.9312 30.3187C10.6921 30.0273 10.5698 29.6573 10.5883 29.2807C10.6068 28.9042 10.7647 28.5479 11.0313 28.2813C11.2979 28.0147 11.6542 27.8568 12.0307 27.8383C12.4073 27.8198 12.7773 27.9421 13.0687 28.1813L15.9375 31.0687C16.0787 31.2067 16.1908 31.3715 16.2674 31.5534C16.344 31.7353 16.3835 31.9307 16.3835 32.1281C16.3835 32.3255 16.344 32.5209 16.2674 32.7028C16.1908 32.8848 16.0787 33.0495 15.9375 33.1875ZM38.4375 33.1875C38.3023 33.33 38.1394 33.4434 37.9589 33.5208C37.7784 33.5981 37.5839 33.6379 37.3875 33.6375C37.1884 33.6372 36.9914 33.5972 36.8079 33.52C36.6244 33.4427 36.4581 33.3297 36.3187 33.1875L33.4313 30.3187C33.1921 30.0273 33.0698 29.6573 33.0883 29.2807C33.1068 28.9042 33.2647 28.5479 33.5313 28.2813C33.7979 28.0147 34.1542 27.8568 34.5307 27.8383C34.9073 27.8198 35.2773 27.9421 35.5687 28.1813L38.4375 31.0687C38.5787 31.2067 38.6908 31.3715 38.7674 31.5534C38.844 31.7353 38.8835 31.9307 38.8835 32.1281C38.8835 32.3255 38.844 32.5209 38.7674 32.7028C38.6908 32.8848 38.5787 33.0495 38.4375 33.1875Z" fill="#262626"/>
</svg>
