<svg width="48" height="48" viewBox="0 0 48 48" xmlns="http://www.w3.org/2000/svg">
<path fill-rule="evenodd" clip-rule="evenodd" d="M27.0504 5.54629C26.1987 5.32628 25.2621 5.92914 25.1628 6.96871L24.7047 11.687C24.704 11.6948 24.7033 11.7026 24.7026 11.7104C23.9716 19.2686 17.3321 24.8077 9.91813 23.8537L9.91622 23.8535C8.0803 23.6148 6.52597 24.608 6.16064 26.2167C5.3137 29.9795 5.27826 33.8796 6.05669 37.6572C6.4586 39.6085 6.59196 40.0289 7.19072 40.5579C7.75371 41.0562 8.29635 41.1517 10.727 41.2904L31.575 42.4884C36.1824 42.7514 40.0558 38.7322 39.6604 33.8347C39.5609 32.5946 39.7511 31.3478 40.216 30.1939L40.868 28.5739C41.534 26.9228 41.9929 25.7796 42.2589 24.8878C42.5232 24.0013 42.5301 23.5663 42.4683 23.2899C42.3256 22.6608 41.9689 22.1148 41.475 21.7465C41.2756 21.5982 40.9136 21.4419 40.0296 21.3541C39.139 21.2657 37.9501 21.264 36.2156 21.264L35.361 21.264C34.7619 21.264 34.2086 21.2641 33.7481 21.2191C33.2484 21.1704 32.7044 21.0579 32.187 20.733C31.7019 20.4294 31.3073 20.0127 31.0249 19.5329L32.3176 18.772L31.0263 19.5352C30.7194 19.016 30.6142 18.4724 30.5683 17.9695C30.5255 17.5009 30.5255 16.9355 30.5256 16.3122V10.182C30.5256 7.95828 29.0628 6.06764 27.0504 5.54629ZM22.1765 6.68159C22.442 3.91402 25.0609 1.93382 27.8008 2.64166C31.1924 3.52031 33.5256 6.64967 33.5256 10.182V16.252C33.5256 16.9549 33.527 17.3811 33.5558 17.6965C33.5755 17.912 33.6025 17.9925 33.61 18.0107C33.6584 18.0928 33.718 18.1513 33.7751 18.1878C33.7965 18.1956 33.8693 18.2167 34.0395 18.2333C34.3365 18.2623 34.7408 18.264 35.4236 18.264H36.2954C37.9305 18.2639 39.2693 18.2639 40.326 18.3688C41.4066 18.4761 42.4185 18.7091 43.2671 19.3407C44.3449 20.1442 45.0971 21.3145 45.3946 22.6288L45.3951 22.6312C45.625 23.6549 45.4505 24.6829 45.1338 25.7451C44.8216 26.792 44.306 28.0703 43.6714 29.6436L42.9991 31.314C42.708 32.0363 42.5885 32.8171 42.6507 33.5933C43.1833 40.1918 37.9408 45.8566 31.4041 45.4835L10.5561 44.2855C10.4592 44.28 10.363 44.2746 10.2677 44.2693C8.27329 44.1582 6.62865 44.0665 5.20386 42.8056C3.79478 41.5604 3.50798 40.1619 3.1573 38.452C3.14445 38.3893 3.13151 38.3262 3.11843 38.2627M22.1765 6.68159L22.1764 6.68325L22.1765 6.68159ZM22.1764 6.68325L21.7166 11.419C21.7158 11.4268 21.7151 11.4345 21.7145 11.4423C21.1275 17.3968 15.937 21.603 10.3017 20.8783C7.21436 20.4776 4.00168 22.172 3.2347 25.5543L3.23419 25.5565C2.29335 29.7356 2.2539 34.0672 3.11843 38.2627" fill="#262626"/>
<path fill-rule="evenodd" clip-rule="evenodd" d="M14.4303 21.5631C15.2238 21.801 15.6743 22.6372 15.4364 23.4307L15.1624 24.3447C13.4774 29.9617 13.5682 35.9623 15.4226 41.5256C15.6846 42.3116 15.2598 43.161 14.4739 43.423C13.688 43.685 12.8385 43.2602 12.5765 42.4743C10.5267 36.3247 10.4262 29.6921 12.2887 23.4832L12.5627 22.5692C12.8006 21.7757 13.6368 21.3253 14.4303 21.5631Z" />
</svg>
