<svg width="48" height="48" viewBox="0 0 48 48" fill="none" xmlns="http://www.w3.org/2000/svg">
<path d="M34.5 19.4996C33.6716 19.4996 33 20.1712 33 20.9996V26.4996H32.5C31.6716 26.4996 31 27.1712 31 27.9996C31 28.8281 31.6716 29.4996 32.5 29.4996H33V31.9996C33 32.8281 33.6716 33.4996 34.5 33.4996C35.3284 33.4996 36 32.8281 36 31.9996V29.4996H36.5C37.3284 29.4996 38 28.8281 38 27.9996C38 27.1712 37.3284 26.4996 36.5 26.4996H36V20.9996C36 20.1712 35.3284 19.4996 34.5 19.4996Z" fill="#262626"/>
<path fill-rule="evenodd" clip-rule="evenodd" d="M9.64408 13.4996C9.38132 12.0251 9.39416 9.91129 10.4133 8.12185C10.9808 7.1254 11.8507 6.25352 13.0912 5.69561C14.316 5.14478 15.8128 4.93935 17.5919 5.11084C19.625 5.30683 21.0201 5.52599 22.1089 5.71343C22.3312 5.7517 22.5359 5.78768 22.7269 5.82126C23.4937 5.95604 24.0403 6.05211 24.6211 6.10219C25.9949 6.22067 27.576 6.07683 32.2091 5.13405C33.6245 4.84603 34.8883 5.01824 35.9214 5.68846C36.9214 6.33721 37.5012 7.3216 37.8465 8.26121C38.5011 10.0427 38.5004 12.2147 38.5 13.416L38.5 13.4997L42 13.4996C43.1046 13.4996 44 14.3951 44 15.4996V37.4996C44 38.6042 43.1046 39.4996 42 39.4996H39C39 41.1565 37.6569 42.4996 36 42.4996C34.3431 42.4996 33 41.1565 33 39.4996H15C15 41.1565 13.6569 42.4996 12 42.4996C10.3431 42.4996 9 41.1565 9 39.4996H6C4.89543 39.4996 4 38.6042 4 37.4996V15.4996C4 14.3951 4.89543 13.4996 6 13.4996H9.64408ZM32.8073 8.0738C33.6378 7.9048 34.0584 8.05589 34.2886 8.20524C34.5519 8.37606 34.8143 8.7075 35.0305 9.29592C35.4834 10.5283 35.5 12.2002 35.5 13.4996H12.6732C12.6731 13.3941 12.6618 13.2869 12.6384 13.1796C12.403 12.1018 12.4283 10.6457 13.0202 9.60653C13.2963 9.12167 13.7024 8.71018 14.3217 8.43166C14.9567 8.14606 15.9037 7.96202 17.304 8.097C19.2451 8.28411 20.5642 8.49163 21.5999 8.66994C21.788 8.70232 21.971 8.73458 22.15 8.76615C22.9322 8.90406 23.6386 9.0286 24.3633 9.0911C26.2215 9.25134 28.1963 9.01209 32.8073 8.0738ZM7 36.4996V16.4996H41V36.4996H7Z" fill="#262626"/>
</svg>
