<svg width="48" height="48" viewBox="0 0 48 48" fill="none" xmlns="http://www.w3.org/2000/svg">
<path d="M13.9545 2.93701L10.1595 6.72601C9.26411 6.1544 8.19923 5.90857 7.14392 6.02987C6.08862 6.15116 5.10728 6.63217 4.36496 7.39201C3.48943 8.27442 2.99863 9.46743 2.99976 10.7105C3.00088 11.9536 3.49383 13.1457 4.37096 14.0265L13.452 23.1975L13.8825 23.6475L34.7325 44.718C35.2883 45.2822 35.9509 45.7302 36.6815 46.0359C37.4121 46.3417 38.1963 46.499 38.9883 46.4989C39.7803 46.4988 40.5644 46.3411 41.2949 46.0351C42.0254 45.7291 42.6878 45.2809 43.2435 44.7165C45.5835 42.3525 45.5895 38.52 43.2405 36.165L43.2375 36.162L32.148 24.9315C30.3454 23.1141 28.2094 21.6611 25.857 20.652C24.5261 20.0805 23.2739 19.341 22.131 18.4515L25.803 14.7795L25.809 14.7735C26.1198 14.458 26.3338 14.06 26.4256 13.6266C26.5175 13.1933 26.4832 12.7427 26.327 12.3282C26.1708 11.9137 25.8992 11.5526 25.5442 11.2876C25.1892 11.0227 24.7658 10.8649 24.324 10.833C24.2889 10.2754 24.0517 9.74981 23.6568 9.35465C23.262 8.95948 22.7365 8.72192 22.179 8.68651C22.1384 8.13372 21.9014 7.61369 21.5107 7.22053C21.12 6.82736 20.6015 6.58702 20.049 6.54301C20.0086 5.98698 19.7658 5.46504 19.3665 5.07601C18.9747 4.68611 18.4554 4.45068 17.904 4.41301C17.8662 3.85282 17.6232 3.32623 17.2215 2.93401C17.0082 2.71714 16.7538 2.54495 16.4732 2.42751C16.1927 2.31007 15.8915 2.24972 15.5873 2.25C15.2832 2.25028 14.9821 2.31118 14.7017 2.42914C14.4214 2.54709 14.1673 2.71975 13.9545 2.93701ZM16.155 3.98851L16.17 4.00351C16.2975 4.12999 16.3794 4.29531 16.4028 4.47344C16.4262 4.65157 16.3896 4.83241 16.299 4.98751C16.2874 5.00797 16.2769 5.029 16.2675 5.05051L12.4035 8.82601L11.298 7.70851L15.018 3.99601L15.024 3.98851C15.0975 3.91271 15.1855 3.85245 15.2828 3.8113C15.3801 3.77015 15.4846 3.74894 15.5902 3.74894C15.6958 3.74894 15.8004 3.77015 15.8976 3.8113C15.9949 3.85245 16.0829 3.91271 16.1565 3.98851H16.155ZM17.505 5.93851C17.6449 5.89798 17.7931 5.89538 17.9344 5.93096C18.0756 5.96654 18.2049 6.03903 18.309 6.14101L18.3165 6.14701C18.4446 6.27108 18.5267 6.43503 18.5493 6.61194C18.5719 6.78884 18.5337 6.96819 18.441 7.12051L14.514 10.9575L13.4595 9.89251L17.505 5.93701V5.93851ZM19.608 8.07601C19.7474 8.03004 19.8965 8.02231 20.0399 8.05363C20.1833 8.08494 20.3157 8.15415 20.4233 8.25404C20.5308 8.35393 20.6096 8.48084 20.6514 8.62155C20.6932 8.76225 20.6965 8.91159 20.661 9.05401L16.5795 13.044L15.57 12.024L19.608 8.07601ZM21.48 10.35C21.5204 10.3354 21.5596 10.3173 21.597 10.296C21.7535 10.2035 21.9362 10.1652 22.1168 10.1869C22.2973 10.2085 22.4657 10.2891 22.596 10.416C22.6956 10.5182 22.7671 10.6444 22.8034 10.7824C22.8397 10.9205 22.8395 11.0655 22.803 11.2035L18.714 15.1995L17.634 14.109L21.48 10.35ZM23.643 12.48C23.6755 12.4672 23.707 12.4522 23.7375 12.435C23.8937 12.3455 24.0749 12.3094 24.2536 12.3321C24.4322 12.3548 24.5986 12.4352 24.7275 12.561L24.7335 12.567C25.0485 12.8745 25.0605 13.392 24.738 13.722L20.985 17.475C20.826 17.3265 20.67 17.175 20.517 17.0205L19.77 16.266L23.643 12.48ZM8.84846 9.49951L18.3855 19.131C20.1877 20.9478 22.3231 22.4002 24.675 23.409C26.6716 24.2661 28.4846 25.4995 30.015 27.042L41.109 38.2755L41.115 38.2815C42.2925 39.4605 42.3 41.4075 41.1105 42.6075L41.106 42.612C40.829 42.8936 40.4987 43.1172 40.1344 43.2697C39.7701 43.4222 39.379 43.5005 38.984 43.5001C38.589 43.4997 38.1981 43.4205 37.8341 43.2673C37.4701 43.114 37.1403 42.8897 36.864 42.6075L16.032 21.555L15.6015 21.105L6.50096 11.9145L6.49346 11.907C6.17642 11.5864 5.99923 11.1533 6.00064 10.7025C6.00204 10.2516 6.18193 9.81961 6.50096 9.50101L6.50696 9.49501C6.65934 9.33881 6.84152 9.21479 7.04272 9.1303C7.24391 9.04581 7.46001 9.00256 7.67823 9.00312C7.89644 9.00368 8.11232 9.04804 8.31307 9.13356C8.51383 9.21908 8.69538 9.34403 8.84696 9.50101L8.84846 9.49951Z" fill="#262626"/>
</svg>
