<svg width="48" height="48" viewBox="0 0 48 48" fill="none" xmlns="http://www.w3.org/2000/svg">
<path fill-rule="evenodd" clip-rule="evenodd" d="M2 18C2 16.8954 2.89543 16 4 16H36C37.1046 16 38 16.8954 38 18V26C38 27.1046 37.1046 28 36 28H4C2.89543 28 2 27.1046 2 26V18ZM6 20V24H34V20H6Z" fill="#262626"/>
<path fill-rule="evenodd" clip-rule="evenodd" d="M8 6C7.46957 6 6.96086 6.21071 6.58579 6.58579C6.21071 6.96086 6 7.46957 6 8V32C6 32.5304 6.21071 33.0391 6.58579 33.4142C6.96086 33.7893 7.46957 34 8 34H32C32.5304 34 33.0391 33.7893 33.4142 33.4142C33.7893 33.0391 34 32.5304 34 32V12C34 10.8954 34.8954 10 36 10C37.1046 10 38 10.8954 38 12V32C38 33.5913 37.3679 35.1174 36.2426 36.2426C35.1174 37.3679 33.5913 38 32 38H14V40C14 41.1054 14.8946 42 16 42H40C41.1054 42 42 41.1054 42 40V8C42 7.46957 41.7893 6.96086 41.4142 6.58579C41.0391 6.21071 40.5304 6 40 6H8ZM10 38H8C6.4087 38 4.88258 37.3679 3.75736 36.2426C2.63214 35.1174 2 33.5913 2 32V8C2 6.4087 2.63214 4.88258 3.75736 3.75736C4.88258 2.63214 6.4087 2 8 2H40C41.5913 2 43.1174 2.63214 44.2426 3.75736C45.3679 4.88258 46 6.4087 46 8V40C46 43.3146 43.3146 46 40 46H16C12.6854 46 10 43.3146 10 40V38Z" fill="#262626"/>
</svg>
