<svg width="28" height="28" viewBox="0 0 28 28" fill="none" xmlns="http://www.w3.org/2000/svg">
<path fill-rule="evenodd" clip-rule="evenodd" d="M14 16C16.7614 16 19 13.7614 19 11C19 8.23858 16.7614 6 14 6C11.2386 6 9 8.23858 9 11C9 13.7614 11.2386 16 14 16ZM14 13.2C15.215 13.2 16.2 12.215 16.2 11C16.2 9.78497 15.215 8.8 14 8.8C12.785 8.8 11.8 9.78497 11.8 11C11.8 12.215 12.785 13.2 14 13.2Z" fill="#262626"/>
<path fill-rule="evenodd" clip-rule="evenodd" d="M14.0001 0.666656C11.363 0.666656 8.78514 1.44864 6.59248 2.91373C4.39983 4.37881 2.69086 6.4612 1.68169 8.89754C0.672525 11.3339 0.408481 14.0148 0.92295 16.6012C1.43742 19.1876 2.7073 21.5634 4.572 23.4281C6.4367 25.2928 8.81247 26.5627 11.3989 27.0771C13.9853 27.5916 16.6662 27.3276 19.1025 26.3184C21.5389 25.3092 23.6213 23.6002 25.0863 21.4076C26.5514 19.2149 27.3334 16.6371 27.3334 14C27.3334 12.249 26.9885 10.5152 26.3185 8.89754C25.6484 7.27987 24.6663 5.81001 23.4282 4.5719C22.1901 3.33379 20.7202 2.35166 19.1025 1.6816C17.4849 1.01153 15.751 0.666656 14.0001 0.666656ZM6.68281 21.7611C7.92609 18.9565 10.7346 17 14 17C17.2655 17 20.074 18.9565 21.3173 21.7612C21.3933 21.6895 21.4684 21.6166 21.5426 21.5425C23.5429 19.5421 24.6668 16.829 24.6668 14C24.6668 11.8903 24.0412 9.82803 22.8691 8.07391C21.697 6.31978 20.0311 4.95261 18.082 4.14528C16.133 3.33794 13.9883 3.1267 11.9191 3.53828C9.84999 3.94986 7.94938 4.96576 6.45761 6.45752C4.96586 7.94928 3.94995 9.8499 3.53838 11.919C3.1268 13.9882 3.33804 16.1329 4.14537 18.0819C4.72444 19.4799 5.59151 20.7322 6.68281 21.7611ZM8.75923 23.2904C10.3546 24.1904 12.1593 24.6667 14.0001 24.6667C15.8526 24.6667 17.6553 24.1848 19.2408 23.2905C18.5215 21.0836 16.447 19.4889 14 19.4889C11.5531 19.4889 9.47865 21.0836 8.75923 23.2904Z" fill="#262626"/>
</svg>
