<svg width="21" height="20" viewBox="0 0 21 20" fill="none" xmlns="http://www.w3.org/2000/svg">
<path d="M20.5 10C20.5 9.73478 20.3946 9.48043 20.2071 9.29289C20.0196 9.10536 19.7652 9 19.5 9C19.2348 9 18.9804 9.10536 18.7929 9.29289C18.6054 9.48043 18.5 9.73478 18.5 10H20.5ZM10.5 2C10.7652 2 11.0196 1.89464 11.2071 1.70711C11.3946 1.51957 11.5 1.26522 11.5 1C11.5 0.734783 11.3946 0.48043 11.2071 0.292893C11.0196 0.105357 10.7652 0 10.5 0V2ZM18 18H3V20H18V18ZM2.5 17.5V2.5H0.5V17.5H2.5ZM18.5 10V17.5H20.5V10H18.5ZM3 2H10.5V0H3V2ZM3 18C2.86739 18 2.74021 17.9473 2.64645 17.8536C2.55268 17.7598 2.5 17.6326 2.5 17.5H0.5C0.5 18.163 0.763392 18.7989 1.23223 19.2678C1.70107 19.7366 2.33696 20 3 20V18ZM18 20C18.663 20 19.2989 19.7366 19.7678 19.2678C20.2366 18.7989 20.5 18.163 20.5 17.5H18.5C18.5 17.6326 18.4473 17.7598 18.3536 17.8536C18.2598 17.9473 18.1326 18 18 18V20ZM2.5 2.5C2.5 2.36739 2.55268 2.24021 2.64645 2.14645C2.74021 2.05268 2.86739 2 3 2V0C2.33696 0 1.70107 0.263392 1.23223 0.732233C0.763392 1.20107 0.5 1.83696 0.5 2.5H2.5Z" fill="#262626"/>
<path fill-rule="evenodd" clip-rule="evenodd" d="M16.25 2.81066V7C16.25 7.41421 16.5858 7.75 17 7.75C17.4142 7.75 17.75 7.41421 17.75 7V2.81066L18.9697 4.03033C19.2626 4.32322 19.7374 4.32322 20.0303 4.03033C20.3232 3.73744 20.3232 3.26256 20.0303 2.96967L17.531 0.470292C17.5291 0.46845 17.5273 0.466618 17.5254 0.464796C17.3901 0.33194 17.2046 0.25 17 0.25C16.8983 0.25 16.8013 0.270239 16.7129 0.306909C16.6245 0.343509 16.5416 0.397762 16.4697 0.46967L13.9697 2.96967C13.6768 3.26256 13.6768 3.73744 13.9697 4.03033C14.2626 4.32322 14.7374 4.32322 15.0303 4.03033L16.25 2.81066ZM7.68487 11.1464C7.63847 11.1066 7.57912 11.0852 7.51801 11.0862C7.45693 11.0873 7.39834 11.1106 7.3533 11.1519C7.35328 11.1519 7.35331 11.1518 7.3533 11.1519L2.0068 16.0529C1.70146 16.3328 1.22703 16.3121 0.947136 16.0068C0.667241 15.7015 0.687866 15.227 0.993204 14.9471L6.3397 10.0461C6.65507 9.75711 7.06542 9.59355 7.49314 9.58645C7.92084 9.57936 8.33632 9.72916 8.66109 10.0076C8.6611 10.0076 8.66107 10.0075 8.66109 10.0076L12.0377 12.9017L14.356 10.5833C14.3561 10.5833 14.3559 10.5834 14.356 10.5833C14.6539 10.2854 15.0494 10.1047 15.4697 10.0748C15.89 10.0449 16.3069 10.1676 16.644 10.4205C16.644 10.4205 16.644 10.4205 16.644 10.4205L19.95 12.9C20.2814 13.1485 20.3485 13.6186 20.1 13.95C19.8515 14.2814 19.3814 14.3485 19.05 14.1L15.744 11.6205C15.6958 11.5844 15.6361 11.5667 15.5761 11.571C15.516 11.5753 15.4596 11.6011 15.417 11.6437L13.1799 13.8807L14.9881 15.4306C15.3026 15.7001 15.339 16.1736 15.0694 16.4881C14.7999 16.8026 14.3264 16.839 14.0119 16.5695L7.68487 11.1464Z" fill="#262626"/>
</svg>
