<svg width="24" height="24" viewBox="0 0 24 24" fill="none" xmlns="http://www.w3.org/2000/svg">
<path d="M22 12C22 11.7348 21.8946 11.4804 21.7071 11.2929C21.5196 11.1054 21.2652 11 21 11C20.7348 11 20.4804 11.1054 20.2929 11.2929C20.1054 11.4804 20 11.7348 20 12H22ZM12 4C12.2652 4 12.5196 3.89464 12.7071 3.70711C12.8946 3.51957 13 3.26522 13 3C13 2.73478 12.8946 2.48043 12.7071 2.29289C12.5196 2.10536 12.2652 2 12 2V4ZM19.5 20H4.5V22H19.5V20ZM4 19.5V4.5H2V19.5H4ZM20 12V19.5H22V12H20ZM4.5 4H12V2H4.5V4ZM4.5 20C4.36739 20 4.24021 19.9473 4.14645 19.8536C4.05268 19.7598 4 19.6326 4 19.5H2C2 20.163 2.26339 20.7989 2.73223 21.2678C3.20107 21.7366 3.83696 22 4.5 22V20ZM19.5 22C20.163 22 20.7989 21.7366 21.2678 21.2678C21.7366 20.7989 22 20.163 22 19.5H20C20 19.6326 19.9473 19.7598 19.8536 19.8536C19.7598 19.9473 19.6326 20 19.5 20V22ZM4 4.5C4 4.36739 4.05268 4.24021 4.14645 4.14645C4.24021 4.05268 4.36739 4 4.5 4V2C3.83696 2 3.20107 2.26339 2.73223 2.73223C2.26339 3.20107 2 3.83696 2 4.5H4Z" fill="#262626"/>
<path fill-rule="evenodd" clip-rule="evenodd" d="M17.75 4.81066V9C17.75 9.41421 18.0858 9.75 18.5 9.75C18.9142 9.75 19.25 9.41421 19.25 9V4.81066L20.4697 6.03033C20.7626 6.32322 21.2374 6.32322 21.5303 6.03033C21.8232 5.73744 21.8232 5.26256 21.5303 4.96967L19.031 2.47029C19.0291 2.46845 19.0273 2.46662 19.0254 2.4648C18.8901 2.33194 18.7046 2.25 18.5 2.25C18.3983 2.25 18.3013 2.27024 18.2129 2.30691C18.1245 2.34351 18.0416 2.39776 17.9697 2.46967L15.4697 4.96967C15.1768 5.26256 15.1768 5.73744 15.4697 6.03033C15.7626 6.32322 16.2374 6.32322 16.5303 6.03033L17.75 4.81066ZM9.18487 13.1464C9.13847 13.1066 9.07912 13.0852 9.01801 13.0862C8.95693 13.0873 8.89834 13.1106 8.8533 13.1519C8.85328 13.1519 8.85331 13.1518 8.8533 13.1519L3.5068 18.0529C3.20146 18.3328 2.72703 18.3121 2.44714 18.0068C2.16724 17.7015 2.18787 17.227 2.4932 16.9471L7.8397 12.0461C8.15507 11.7571 8.56542 11.5935 8.99314 11.5865C9.42084 11.5794 9.83632 11.7292 10.1611 12.0076C10.1611 12.0076 10.1611 12.0075 10.1611 12.0076L13.5377 14.9017L15.856 12.5833C15.8561 12.5833 15.8559 12.5834 15.856 12.5833C16.1539 12.2854 16.5494 12.1047 16.9697 12.0748C17.39 12.0449 17.8069 12.1676 18.144 12.4205C18.144 12.4205 18.144 12.4205 18.144 12.4205L21.45 14.9C21.7814 15.1485 21.8485 15.6186 21.6 15.95C21.3515 16.2814 20.8814 16.3485 20.55 16.1L17.244 13.6205C17.1958 13.5844 17.1361 13.5667 17.0761 13.571C17.016 13.5753 16.9596 13.6011 16.917 13.6437L14.6799 15.8807L16.4881 17.4306C16.8026 17.7001 16.839 18.1736 16.5694 18.4881C16.2999 18.8026 15.8264 18.839 15.5119 18.5694L9.18487 13.1464Z" fill="#262626"/>
</svg>
