<svg width="22" height="22" viewBox="0 0 22 22" fill="none" xmlns="http://www.w3.org/2000/svg">
<path d="M2.74997 11.9167H3.66663V18.3333C3.66663 19.3444 4.48888 20.1667 5.49997 20.1667H16.5C17.5111 20.1667 18.3333 19.3444 18.3333 18.3333V11.9167H19.25C19.4312 11.9166 19.6084 11.8628 19.7591 11.7621C19.9098 11.6614 20.0273 11.5182 20.0967 11.3508C20.166 11.1833 20.1842 10.999 20.1488 10.8212C20.1135 10.6434 20.0262 10.4801 19.8981 10.3519L11.6481 2.10191C11.563 2.01671 11.462 1.94912 11.3508 1.903C11.2396 1.85688 11.1204 1.83315 11 1.83315C10.8796 1.83315 10.7604 1.85688 10.6492 1.903C10.538 1.94912 10.4369 2.01671 10.3519 2.10191L2.10188 10.3519C1.97373 10.4801 1.88645 10.6434 1.8511 10.8212C1.81575 10.999 1.8339 11.1833 1.90326 11.3508C1.97263 11.5182 2.09009 11.6614 2.2408 11.7621C2.39151 11.8628 2.5687 11.9166 2.74997 11.9167ZM11 4.04616L16.5 9.54616L16.5009 18.3333H5.49997V9.54616L11 4.04616Z" fill="#262626"/>
<path d="M11 16.5C14.3944 16.5 15.4926 13.2559 15.5375 13.1184L13.7958 12.5492C13.7885 12.5702 13.0799 14.6667 11 14.6667C8.94847 14.6667 8.23163 12.6307 8.20322 12.5437L6.46247 13.1184C6.50738 13.2559 7.60555 16.5 11 16.5Z" fill="#262626"/>
</svg>
