<svg width="48" height="48" viewBox="0 0 48 48" fill="none" xmlns="http://www.w3.org/2000/svg">
<path fill-rule="evenodd" clip-rule="evenodd" d="M6 6C6 3.79086 7.79086 2 10 2H38C40.2091 2 42 3.79086 42 6V42C42 44.2091 40.2091 46 38 46H10C7.79086 46 6 44.2091 6 42V6ZM38 6H10V42H38V6Z" fill="#262626"/>
<path fill-rule="evenodd" clip-rule="evenodd" d="M6 15.5C6 14.3954 6.89543 13.5 8 13.5H40C41.1046 13.5 42 14.3954 42 15.5C42 16.6046 41.1046 17.5 40 17.5H8C6.89543 17.5 6 16.6046 6 15.5Z" fill="#262626"/>
<path d="M28 12C29.1046 12 30 11.1046 30 10C30 8.89543 29.1046 8 28 8C26.8954 8 26 8.89543 26 10C26 11.1046 26.8954 12 28 12Z" fill="#262626"/>
<path d="M34 12C35.1046 12 36 11.1046 36 10C36 8.89543 35.1046 8 34 8C32.8954 8 32 8.89543 32 10C32 11.1046 32.8954 12 34 12Z" fill="#262626"/>
<path fill-rule="evenodd" clip-rule="evenodd" d="M24 25C21.2386 25 19 27.2386 19 30C19 32.7614 21.2386 35 24 35C26.7614 35 29 32.7614 29 30C29 27.2386 26.7614 25 24 25ZM15 30C15 25.0294 19.0294 21 24 21C28.9706 21 33 25.0294 33 30C33 34.9706 28.9706 39 24 39C19.0294 39 15 34.9706 15 30Z" fill="#262626"/>
</svg>
