<svg width="48" height="48" viewBox="0 0 48 48" fill="none" xmlns="http://www.w3.org/2000/svg">
<path d="M12 44C10.9 44 9.95867 43.6087 9.176 42.826C8.392 42.042 8 41.1 8 40V12C8 9.8 8.78333 7.91667 10.35 6.35C11.9167 4.78333 13.8 4 16 4H32C34.2 4 36.0833 4.78333 37.65 6.35C39.2167 7.91667 40 9.8 40 12V40C40 41.1 39.6087 42.042 38.826 42.826C38.042 43.6087 37.1 44 36 44H12ZM12 36V40H36V36C35 36 34.2 36.3333 33.6 37C33 37.6667 31.8 38 30 38C28.2 38 27.0253 37.6667 26.476 37C25.9253 36.3333 25.1 36 24 36C22.9 36 22.0753 36.3333 21.526 37C20.9753 37.6667 19.8 38 18 38C16.2 38 15.0253 37.6667 14.476 37C13.9253 36.3333 13.1 36 12 36ZM18 34C19.1 34 19.9253 33.6667 20.476 33C21.0253 32.3333 22.2 32 24 32C25.8 32 27 32.3333 27.6 33C28.2 33.6667 29 34 30 34C31 34 31.8 33.6667 32.4 33C33 32.3333 34.2 32 36 32V12C36 10.9 35.6087 9.95867 34.826 9.176C34.042 8.392 33.1 8 32 8H16C14.9 8 13.9587 8.392 13.176 9.176C12.392 9.95867 12 10.9 12 12V32C13.8 32 14.9753 32.3333 15.526 33C16.0753 33.6667 16.9 34 18 34ZM24.25 29.9C22.05 29.9 20.1333 29.1747 18.5 27.724C16.8667 26.2747 16.05 24.4167 16.05 22.15C16.05 21.3833 16.1587 20.5913 16.376 19.774C16.592 18.958 16.9833 18.15 17.55 17.35C17.65 17.1833 17.792 17.05 17.976 16.95C18.1587 16.85 18.3667 16.8 18.6 16.8C18.7333 16.8 18.8333 16.8413 18.9 16.924C18.9667 17.008 19 17.1 19 17.2C18.9667 17.4 18.942 17.5913 18.926 17.774C18.9087 17.958 18.9 18.1333 18.9 18.3C18.9 19.3 19.1087 20.1747 19.526 20.924C19.942 21.6747 20.3167 22.05 20.65 22.05C20.85 22.05 20.992 21.9833 21.076 21.85C21.1587 21.7167 21.2 21.5667 21.2 21.4C21.2 21.2333 21.1667 21.0413 21.1 20.824L20.85 20C20.7833 19.7333 20.7167 19.408 20.65 19.024C20.5833 18.6413 20.55 18.2 20.55 17.7C20.55 15.9 20.958 14.358 21.774 13.074C22.5913 11.7913 23.75 10.8167 25.25 10.15C25.3833 10.0833 25.4753 10.0413 25.526 10.024C25.5753 10.008 25.65 10 25.75 10C25.85 10 25.9253 10.0333 25.976 10.1C26.0253 10.1667 26.0333 10.25 26 10.35C25.8667 10.7167 25.7753 11.0413 25.726 11.324C25.6753 11.608 25.65 11.9333 25.65 12.3C25.65 13.3667 25.942 14.3167 26.526 15.15C27.1087 15.9833 27.8833 16.7333 28.85 17.4C29.8833 18.1 30.6333 18.9587 31.1 19.976C31.5667 20.992 31.8 22.0333 31.8 23.1C31.8 24.8 31.1333 26.358 29.8 27.774C28.4667 29.1913 26.6167 29.9 24.25 29.9ZM24.5 26.55C25.4333 26.55 26.2167 26.2167 26.85 25.55C27.4833 24.8833 27.8 24.1 27.8 23.2C27.8 22.6667 27.6587 22.1913 27.376 21.774C27.092 21.358 26.75 20.9833 26.35 20.65C25.95 20.3167 25.6167 19.9833 25.35 19.65C25.0833 19.3167 24.8833 18.9667 24.75 18.6C24.4167 18.9 24.2167 19.2413 24.15 19.624C24.0833 20.008 24.1 20.4667 24.2 21C24.2667 21.3667 24.3167 21.708 24.35 22.024C24.3833 22.3413 24.4 22.6333 24.4 22.9C24.4 23.5667 24.1833 24.1667 23.75 24.7C23.3167 25.2333 22.8 25.55 22.2 25.65C22.4667 25.9167 22.8253 26.1333 23.276 26.3C23.7253 26.4667 24.1333 26.55 24.5 26.55Z" fill="#262626"/>
</svg>
