<svg width="48" height="48" viewBox="0 0 48 48" fill="none" xmlns="http://www.w3.org/2000/svg">
<path fill-rule="evenodd" clip-rule="evenodd" d="M22 2C20.9391 2 19.9217 2.42143 19.1716 3.17157C18.4214 3.92172 18 4.93913 18 6V7C18 9.8363 17.1162 12.6021 15.4716 14.9128L15.4707 14.9141L15.3707 15.0541C13.1776 18.1348 12 21.8202 12 25.6V38C12 39.5913 12.6321 41.1174 13.7574 42.2426C14.8826 43.3679 16.4087 44 18 44H30C31.5913 44 33.1174 43.3679 34.2426 42.2426C35.3679 41.1174 36 39.5913 36 38V26.5165C36.0001 26.5057 36.0001 26.4949 36 26.4841V25.602C36.0002 21.8211 34.822 18.1342 32.6293 15.0541L32.5295 14.9143L32.5286 14.9131C30.884 12.6018 30 9.83561 30 7V6C30 4.93913 29.5786 3.92172 28.8284 3.17157C28.0783 2.42143 27.0609 2 26 2H22ZM32 25.6785V25.602C32.0002 22.6531 31.0814 19.7773 29.3714 17.3748L29.2705 17.2337C28.1311 15.6326 27.2738 13.8625 26.7234 12H21.2768C20.7265 13.8626 19.8692 15.6328 18.7293 17.2339L18.6293 17.3739L18.6284 17.3752C17.0448 19.6002 16.1404 22.229 16.0151 24.9463C17.3234 24.0803 18.6298 23.6647 19.9795 23.7286C22.1036 23.8292 23.7861 25.1617 24.9044 26.0474C24.9703 26.0996 25.0342 26.1502 25.0961 26.199C26.4494 27.2637 27.2475 27.8002 28.1122 27.8496C28.7835 27.888 29.9945 27.6251 32 25.6785ZM16 30.3446V38C16 38.5304 16.2107 39.0391 16.5858 39.4142C16.9609 39.7893 17.4696 40 18 40H30C30.5304 40 31.0391 39.7893 31.4142 39.4142C31.7893 39.0391 32 38.5304 32 38V30.7337C30.6067 31.5532 29.2482 31.921 27.8841 31.8431C25.6314 31.7144 23.8985 30.3483 22.7356 29.4315L22.6228 29.3426C21.2206 28.2394 20.5137 27.7584 19.7903 27.7241C19.2538 27.6987 18.0867 27.942 16 30.3446ZM22 8H26V6H22V8Z" fill="#262626"/>
</svg>
